<svg width="255" height="136" viewBox="0 0 255 136" fill="none" xmlns="http://www.w3.org/2000/svg">
<rect x="20.0436" width="246.424" height="64.6128" rx="32.3064" transform="rotate(17.5617 20.0436 0)" fill="url(#paint0_linear_9_461)"/>
<path d="M67.213 52.9438C66.2735 53.436 65.2117 53.8727 64.0276 54.2536C63.2521 54.5003 62.5045 54.6859 61.7847 54.8102C61.0807 54.9396 60.5697 54.9546 60.2515 54.8552C60.0924 54.8055 59.9642 54.7131 59.8667 54.5779C59.7802 54.4635 59.7643 54.3189 59.8189 54.1439C59.8984 53.8893 60.0634 53.6964 60.314 53.5652C60.5595 53.4498 60.8588 53.3861 61.2118 53.3741C61.3907 53.3602 61.6333 53.3661 61.9396 53.3919C62.3253 53.4426 62.6838 53.441 63.0148 53.3873C63.6402 53.2858 64.3978 53.0684 65.2876 52.7352C66.1983 52.3911 66.93 52.0609 67.4828 51.7446C68.3954 51.2265 69.1137 50.7437 69.6376 50.2962C70.1824 49.8378 70.5492 49.3063 70.738 48.7018C70.8423 48.3677 70.7578 48.0794 70.4843 47.8368C70.2158 47.5784 69.8509 47.3771 69.3896 47.233C68.2123 46.8653 67.0739 46.7367 65.9743 46.8472C65.4851 46.9039 65.1486 46.9472 64.9646 46.9771C64.3124 47.0527 63.781 47.105 63.3704 47.1339C62.9071 47.1638 62.4646 47.1828 62.0431 47.1908C61.6265 47.1829 61.3471 47.1829 61.2049 47.1909L60.9694 48.1126C60.8949 48.3512 60.7836 48.7355 60.6355 49.2655C60.5033 49.8004 60.3652 50.2985 60.2211 50.7599C59.8783 51.8576 59.5204 52.7236 59.1477 53.358C59.0145 53.5609 58.8932 53.6976 58.7839 53.7682C58.6745 53.8388 58.5085 53.8393 58.2857 53.7698C58.1426 53.725 58.0222 53.6351 57.9248 53.4999C57.8273 53.3647 57.801 53.2255 57.8457 53.0823C57.8606 53.0346 58.0167 52.7865 58.3139 52.338C58.6111 51.8896 58.8193 51.4745 58.9386 51.0927C59.3262 49.8518 59.7649 48.2515 60.2548 46.2917L60.526 45.1717C60.7585 44.0919 60.9692 43.2497 61.158 42.6452C61.3021 42.1838 61.5153 41.6131 61.7976 40.933C62.0848 40.237 62.2791 39.7826 62.3805 39.5698C61.7263 39.5401 60.8653 39.5854 59.7975 39.7059C59.4922 39.7328 59.0801 39.8223 58.5612 39.9745C58.0839 40.1048 57.7737 40.1476 57.6306 40.1029C57.5033 40.0631 57.4093 39.9727 57.3486 39.8315C57.288 39.6903 57.2825 39.5402 57.3322 39.3811C57.4266 39.0788 58.0813 38.8555 59.2962 38.7112C60.5112 38.5669 61.8042 38.508 63.1753 38.5347C64.4091 38.5534 65.4884 38.6198 66.4131 38.734C67.3377 38.8483 68.2614 39.0495 69.1841 39.3377C70.0273 39.601 70.6751 39.9867 71.1276 40.4947C71.6009 40.9917 71.7456 41.5346 71.5618 42.1232C71.1245 43.5232 69.9087 44.7324 67.9144 45.7508C68.6283 45.869 69.2636 46.015 69.8204 46.1889C70.5522 46.4175 71.1334 46.7649 71.564 47.2312C71.9946 47.6974 72.0981 48.2885 71.8745 49.0044C71.636 49.768 71.1166 50.4526 70.3163 51.0582C69.521 51.6479 68.4865 52.2764 67.213 52.9438ZM68.6802 40.2803C68.0279 40.0766 67.1838 39.9002 66.1477 39.7512C65.1167 39.5863 64.3034 39.5069 63.7078 39.5129C63.0995 40.5103 62.681 41.3748 62.4525 42.1066C62.1295 43.1407 61.7697 44.4601 61.3733 46.0649C61.5373 46.0987 61.8117 46.1145 62.1965 46.1125C62.5972 46.1154 62.9685 46.1004 63.3106 46.0676C65.0207 45.9033 66.5358 45.4686 67.8561 44.7635C69.1764 44.0584 70.0054 43.1649 70.3433 42.0831C70.4626 41.7013 70.3691 41.3578 70.0628 41.0526C69.7615 40.7315 69.3006 40.4741 68.6802 40.2803ZM80.854 60.3735C80.5358 60.2742 80.3458 59.8482 80.2841 59.0955C80.2383 58.3478 80.2953 57.6061 80.4553 56.8704C80.6053 56.1664 80.9899 54.7674 81.609 52.6735C81.6974 52.3344 81.7938 51.9978 81.8982 51.6638C82.0075 51.3138 82.0915 51.017 82.1501 50.7734C81.3459 51.727 80.3274 52.7795 79.0947 53.9311C77.862 55.0826 76.6835 56.0327 75.5591 56.7816C74.4506 57.5354 73.6418 57.8328 73.1327 57.6738C72.6078 57.5098 72.3447 57.1221 72.3436 56.5106C72.3585 55.9041 72.5547 54.9963 72.9323 53.7873C73.2851 52.6578 73.8283 51.4218 74.5619 50.0795C75.3114 48.7421 75.9938 47.7592 76.6091 47.1307C76.8726 46.8463 77.0773 46.6659 77.2235 46.5893C77.3746 46.4968 77.5218 46.4729 77.6649 46.5176C78.0626 46.6419 78.2367 46.7835 78.187 46.9426C78.1621 47.0221 78.0254 47.1802 77.7769 47.4169C77.0989 48.0782 76.4269 48.9159 75.7609 49.9302C75.0949 50.9444 74.4688 52.3901 73.8824 54.2674C73.4899 55.5241 73.4686 56.2072 73.8186 56.3165C74.2322 56.4457 74.9306 56.1662 75.9138 55.4781C76.9179 54.779 77.9687 53.9024 79.0662 52.8483C80.1637 51.7943 81.042 50.8551 81.7011 50.0307C81.9277 49.7523 82.225 49.3039 82.5927 48.6854C82.7249 48.4298 82.8323 48.2538 82.9148 48.1574C83.0023 48.045 83.0778 47.9988 83.1415 48.0187C83.3165 48.0733 83.485 48.2045 83.6471 48.4123C83.8092 48.6201 83.8654 48.8035 83.8157 48.9626C83.5772 49.7262 83.1911 51.0461 82.6575 52.9224C82.1447 54.7877 81.8163 56.0907 81.6722 56.8314C81.5421 57.4717 81.5019 57.9917 81.5517 58.3914C81.6173 58.7961 81.6974 59.1266 81.7919 59.3831C81.8914 59.6237 81.9337 59.7679 81.9187 59.8156C81.8392 60.0702 81.7055 60.2467 81.5176 60.3451C81.3297 60.4436 81.1085 60.453 80.854 60.3735ZM93.9346 55.0566C93.3065 56.3969 92.9571 57.1521 92.8865 57.3221C92.0685 59.2143 91.4503 60.6625 91.0319 61.6668C90.6343 62.6601 90.3063 63.5704 90.048 64.3976C89.8343 65.0817 89.7131 65.6375 89.6843 66.065C89.6714 66.4975 89.6859 66.8425 89.7277 67.1C89.7804 67.3784 89.7993 67.5415 89.7844 67.5892C89.7397 67.7324 89.5727 67.8199 89.2834 67.8518C88.9941 67.8836 88.7142 67.8573 88.4437 67.7728C88.2369 67.7082 88.1568 67.3777 88.2035 66.7811C88.266 66.1895 88.4811 65.3051 88.8489 64.1279C89.1271 63.237 89.5898 62.0632 90.2368 60.6065L91.6233 57.4252C90.9354 58.1183 90.154 58.7473 89.2792 59.3121C88.4252 59.8661 87.6641 60.0387 86.9959 59.83C86.3755 59.6362 85.9876 58.9214 85.8324 57.6855C85.6771 56.4497 85.6699 55.103 85.8109 53.6454C85.9678 52.1928 86.1456 51.1483 86.3444 50.512C86.4686 50.1142 86.65 49.9526 86.8887 50.0272C87.2386 50.1365 87.3595 50.5322 87.2512 51.2143C86.4744 55.8257 86.6269 58.3004 87.7087 58.6383C88.1382 58.7724 88.5642 58.7222 88.9867 58.4875C89.4301 58.2418 89.9864 57.8306 90.6554 57.2538C90.9666 56.9844 91.3284 56.6085 91.741 56.1262C92.1535 55.6439 92.4806 55.2397 92.7221 54.9136L93.642 52.5556C93.7881 52.1996 93.9153 51.96 94.0237 51.8367C94.137 51.6975 94.2891 51.6577 94.48 51.7173C94.6391 51.767 94.7684 51.9121 94.8678 52.1527C94.9722 52.3774 94.9971 52.5773 94.9425 52.7523C94.8282 53.1182 94.4922 53.8863 93.9346 55.0566ZM106.551 67.4832L106.06 69.4773C105.97 69.7636 105.845 69.969 105.684 70.0933C105.518 70.2335 105.355 70.2788 105.196 70.2291C105.085 70.1943 105.058 69.8891 105.115 69.3134C105.189 68.7427 105.34 68.0914 105.569 67.3596C105.231 67.3239 104.871 67.2464 104.489 67.1271C103.741 66.8936 103.177 66.6302 102.797 66.3369C102.423 66.0278 102.282 65.722 102.377 65.4198C102.421 65.2766 102.673 65.0583 103.131 64.765C103.61 64.4607 103.914 64.3284 104.041 64.3681C104.232 64.4278 104.315 64.4973 104.29 64.5769C104.275 64.6246 104.165 64.6689 103.96 64.7097C103.777 64.7395 103.675 64.7863 103.655 64.8499C103.64 64.8976 103.681 64.9891 103.779 65.1243C103.892 65.2645 104.063 65.4141 104.293 65.5731C104.539 65.7371 104.852 65.8788 105.234 65.998C105.377 66.0427 105.597 66.0939 105.894 66.1515L106.117 65.4357C106.624 63.813 107.042 62.503 107.371 61.5057C105.923 60.4948 104.807 59.6225 104.024 58.8888C103.261 58.1442 102.964 57.5015 103.133 56.9606C103.362 56.2288 104.153 55.568 105.507 54.9782C106.866 54.3725 108.377 53.8667 110.041 53.4608L110.713 51.3922C110.962 50.6495 111.23 50.0171 111.515 49.4951C111.821 48.9621 112.149 48.7503 112.499 48.8596C112.722 48.9292 112.801 49.0674 112.736 49.2742C112.712 49.3537 112.676 49.4387 112.631 49.5292C112.585 49.6197 112.542 49.7022 112.501 49.7768C112.276 50.1606 112.117 50.5036 112.022 50.8059L111.572 52.0796L111.167 53.2101C111.613 53.1226 112.192 53.0589 112.903 53.019C113.629 52.9841 114.152 53.0163 114.47 53.1157C114.725 53.1952 114.943 53.3334 115.126 53.5302C115.314 53.7111 115.381 53.8891 115.326 54.0641C115.307 54.1804 115.279 54.3286 115.24 54.5085C115.222 54.6776 115.201 54.8282 115.177 54.9604C115.147 55.0559 115.088 55.1334 115 55.1931C114.932 55.2418 114.867 55.2563 114.803 55.2364C114.739 55.2165 114.701 55.1434 114.688 55.0172C114.68 54.875 114.625 54.7443 114.522 54.625C114.436 54.5106 114.218 54.3988 113.868 54.2895C113.597 54.205 113.178 54.1787 112.609 54.2106C112.045 54.2266 111.419 54.3018 110.731 54.4361C109.76 57.1535 109.01 59.3027 108.482 60.8836C110.058 61.987 111.24 62.8976 112.029 63.6153C112.838 64.3221 113.168 64.9142 113.019 65.3914C112.905 65.7573 112.516 66.1073 111.853 66.4415C111.19 66.7757 110.373 67.0442 109.401 67.2472C108.435 67.4343 107.485 67.5129 106.551 67.4832ZM104.466 57.2199C104.377 57.5063 104.619 57.9049 105.193 58.4159C105.767 58.9268 106.62 59.5775 107.752 60.3677C108.644 57.6255 109.272 55.7263 109.637 54.6704C108.319 54.9748 107.162 55.3553 106.163 55.8118C105.186 56.2574 104.621 56.7267 104.466 57.2199ZM108.108 61.9977C107.967 62.3905 107.784 63.0055 107.558 63.8427C107.371 64.5526 107.223 65.0825 107.113 65.4325L106.861 66.3229C107.579 66.3725 108.293 66.351 109.003 66.2585C109.729 66.1709 110.332 66.0276 110.814 65.8287C111.316 65.6188 111.604 65.3946 111.678 65.156C111.763 64.8855 111.505 64.5082 110.906 64.0241C110.322 63.545 109.389 62.8695 108.108 61.9977ZM125.705 71.2134C124.766 71.7057 123.704 72.1424 122.52 72.5233C121.745 72.77 120.997 72.9556 120.277 73.0799C119.573 73.2093 119.062 73.2243 118.744 73.1249C118.585 73.0752 118.457 72.9828 118.359 72.8476C118.273 72.7332 118.257 72.5886 118.311 72.4136C118.391 72.159 118.556 71.9661 118.806 71.8348C119.052 71.7195 119.351 71.6558 119.704 71.6438C119.883 71.6299 120.126 71.6358 120.432 71.6616C120.818 71.7123 121.176 71.7107 121.507 71.657C122.133 71.5555 122.89 71.3381 123.78 71.0049C124.691 70.6608 125.422 70.3306 125.975 70.0143C126.888 69.4962 127.606 69.0134 128.13 68.5659C128.675 68.1075 129.042 67.576 129.23 66.9715C129.335 66.6374 129.25 66.3491 128.977 66.1065C128.708 65.848 128.343 65.6468 127.882 65.5027C126.705 65.135 125.566 65.0064 124.467 65.1169C123.978 65.1736 123.641 65.2169 123.457 65.2468C122.805 65.3224 122.273 65.3747 121.863 65.4036C121.4 65.4335 120.957 65.4524 120.536 65.4605C120.119 65.4526 119.84 65.4526 119.697 65.4606L119.462 66.3823C119.387 66.6209 119.276 67.0052 119.128 67.5352C118.996 68.0701 118.858 68.5682 118.714 69.0296C118.371 70.1273 118.013 70.9933 117.64 71.6277C117.507 71.8306 117.386 71.9673 117.276 72.0379C117.167 72.1085 117.001 72.109 116.778 72.0395C116.635 71.9947 116.515 71.9048 116.417 71.7696C116.32 71.6344 116.293 71.4952 116.338 71.352C116.353 71.3043 116.509 71.0562 116.806 70.6077C117.104 70.1593 117.312 69.7442 117.431 69.3623C117.819 68.1215 118.257 66.5212 118.747 64.5614L119.019 63.4414C119.251 62.3616 119.462 61.5194 119.651 60.9149C119.795 60.4535 120.008 59.8828 120.29 59.2027C120.577 58.5067 120.772 58.0523 120.873 57.8395C120.219 57.8098 119.358 57.8551 118.29 57.9756C117.985 58.0025 117.573 58.092 117.054 58.2442C116.576 58.3745 116.266 58.4173 116.123 58.3726C115.996 58.3328 115.902 58.2424 115.841 58.1012C115.78 57.96 115.775 57.8099 115.825 57.6508C115.919 57.3485 116.574 57.1252 117.789 56.9809C119.004 56.8366 120.297 56.7777 121.668 56.8044C122.902 56.8231 123.981 56.8895 124.906 57.0037C125.83 57.1179 126.754 57.3192 127.677 57.6074C128.52 57.8707 129.168 58.2564 129.62 58.7644C130.093 59.2614 130.238 59.8043 130.054 60.3929C129.617 61.7929 128.401 63.002 126.407 64.0204C127.121 64.1387 127.756 64.2847 128.313 64.4586C129.045 64.6872 129.626 65.0346 130.056 65.5009C130.487 65.9671 130.591 66.5582 130.367 67.2741C130.128 68.0377 129.609 68.7223 128.809 69.3279C128.013 69.9176 126.979 70.5461 125.705 71.2134ZM127.173 58.55C126.52 58.3462 125.676 58.1699 124.64 58.0209C123.609 57.856 122.796 57.7766 122.2 57.7826C121.592 58.7799 121.174 59.6445 120.945 60.3763C120.622 61.4104 120.262 62.7298 119.866 64.3346C120.03 64.3684 120.304 64.3842 120.689 64.3822C121.09 64.3851 121.461 64.3701 121.803 64.3373C123.513 64.173 125.028 63.7383 126.349 63.0332C127.669 62.3281 128.498 61.4346 128.836 60.3528C128.955 59.971 128.862 59.6275 128.555 59.3223C128.254 59.0012 127.793 58.7438 127.173 58.55ZM135.582 76.9436C134.723 76.6753 133.966 76.2469 133.312 75.6584C132.663 75.054 132.209 74.3272 131.95 73.4782C131.691 72.6291 131.716 71.7114 132.024 70.7251C132.551 69.0388 133.532 67.4334 134.969 65.909C136.41 64.3687 138.159 63.0466 140.215 61.9427C140.419 61.8492 140.6 61.801 140.758 61.798C140.916 61.7949 141.09 61.8233 141.281 61.8829C141.44 61.9326 141.579 62.0196 141.697 62.1438C141.832 62.273 141.881 62.3933 141.847 62.5047C141.827 62.5683 141.765 62.6539 141.662 62.7612C141.579 62.8577 141.525 62.9194 141.499 62.9462C141.595 62.976 141.709 63.0028 141.841 63.0267C141.994 63.0396 142.269 63.1082 142.667 63.2324C143.128 63.3765 143.724 63.6498 144.454 64.0524C145.205 64.444 145.738 64.7765 146.054 65.0499C146.944 65.8342 147.545 66.6768 147.858 67.5775C148.175 68.4623 148.204 69.3184 147.946 70.1456C147.434 71.7842 146.483 73.2071 145.094 74.4144C143.704 75.6216 142.141 76.4605 140.405 76.931C138.669 77.4015 137.062 77.4057 135.582 76.9436ZM145.365 65.83C144.969 65.4791 144.42 65.1943 143.72 64.9756C143.497 64.9061 143.19 64.8276 142.798 64.7401L141.908 64.4882C141.144 64.2497 140.812 63.9714 140.912 63.6532C140.947 63.5418 140.987 63.4409 141.033 63.3504C141.078 63.2599 141.114 63.2013 141.14 63.1744C140.806 63.0701 140.506 63.0811 140.239 63.2074C138.512 64.1522 137.052 65.2764 135.859 66.58C134.682 67.8886 133.868 69.2668 133.416 70.7144C132.993 72.0667 133.019 73.1574 133.494 73.9865C133.989 74.8047 134.825 75.3977 136.002 75.7654C137.339 76.1828 138.762 76.2084 140.274 75.8423C141.801 75.4812 143.156 74.8044 144.339 73.812C145.538 72.8245 146.346 71.6626 146.763 70.3263C147.052 69.4036 147.07 68.5888 146.82 67.8819C146.574 67.1591 146.089 66.4751 145.365 65.83ZM159.166 84.5195C159.055 84.4848 158.573 83.4001 157.721 81.2656C156.889 79.1201 156.217 77.3037 155.704 75.8164C155.631 75.6016 155.407 74.8943 155.031 73.6942C154.486 71.9176 154.141 70.8409 153.997 70.4641L153.375 72.2866L152.792 74.0689C152.439 75.1984 152.041 76.4184 151.597 77.7289C151.168 79.0444 150.817 80.0869 150.541 80.8565C150.466 81.0424 150.324 81.1901 150.115 81.2995C149.922 81.4138 149.746 81.4462 149.587 81.3965C149.412 81.3418 149.299 81.2544 149.25 81.1341C149.221 81.0028 149.254 80.7861 149.348 80.4838C149.408 80.2929 149.623 79.7142 149.995 78.7477C150.71 76.963 151.261 75.4501 151.648 74.2093C151.956 73.2229 152.263 72.2972 152.568 71.4322C152.878 70.5512 153.066 70.0074 153.13 69.8005L153.37 69.116L153.393 69.0444C153.447 68.8694 153.513 68.7416 153.591 68.6611C153.689 68.5696 153.826 68.5512 154.001 68.6058L154.12 68.6431C154.295 68.6977 154.538 69.1228 154.848 69.9181C155.179 70.7025 155.574 71.7599 156.031 73.0901C156.137 73.3675 156.234 73.6424 156.324 73.9148C156.418 74.1713 156.507 74.4174 156.591 74.653C157.135 76.0975 157.421 76.8591 157.449 76.9376C158.808 80.5227 159.529 82.5464 159.612 83.0087C159.62 82.8715 159.656 82.5598 159.721 82.0736C159.785 81.5874 159.895 80.958 160.049 80.1855C160.219 79.4179 160.428 78.6364 160.676 77.8409C161.118 76.4251 161.567 74.5136 162.022 72.1064C162.181 71.318 162.288 70.8362 162.343 70.6612C162.531 70.0567 162.968 69.8613 163.652 70.0749C163.811 70.1246 163.878 70.3289 163.853 70.6879C163.833 71.0309 163.675 71.7323 163.379 72.7923C163.083 73.8522 162.575 75.5355 161.854 77.8423C161.626 78.5741 161.426 79.2974 161.255 80.0123C161.1 80.7322 160.962 81.37 160.841 81.9258C160.687 82.6984 160.55 83.2755 160.431 83.6573L160.186 84.5239C160.127 84.7148 159.787 84.7133 159.166 84.5195ZM176.525 78.7054C176.238 78.8426 175.862 78.8999 175.398 78.8771C174.954 78.8433 174.22 78.7624 173.195 78.6343C172.64 79.1245 171.606 80.1985 170.093 81.8561C168.585 83.4978 167.794 84.438 167.719 84.6766C167.635 84.9471 168.013 85.301 168.854 85.7383C169.716 86.1647 170.553 86.5046 171.364 86.7581C171.921 86.932 172.557 87.1044 173.272 87.2753C174.008 87.4353 174.471 87.5187 174.661 87.5256C175.23 87.5464 175.696 87.4822 176.056 87.3331C176.433 87.1888 176.653 87.1267 176.717 87.1465C176.797 87.1714 176.835 87.2445 176.832 87.3658C176.834 87.4711 176.788 87.675 176.693 87.9772C176.365 89.0272 174.523 89.028 171.166 87.9795C169.91 87.587 168.756 87.0607 167.705 86.4007C166.654 85.7406 166.208 85.1561 166.367 84.647C166.481 84.2811 167.134 83.4463 168.327 82.1427C169.541 80.8281 170.743 79.5797 171.933 78.3973C171.568 78.3357 171.183 78.3114 170.777 78.3244C170.376 78.3215 170.131 78.3235 170.042 78.3305C169.778 78.3355 169.512 78.3485 169.244 78.3694C168.976 78.3903 168.817 78.3933 168.77 78.3784C168.579 78.3188 168.428 78.1582 168.318 77.8967C168.207 77.6353 168.182 77.4091 168.242 77.2182C168.276 77.1068 168.365 77.0472 168.507 77.0392C168.67 77.0203 168.945 77.0361 169.33 77.0868L172.874 77.565C173.708 76.7953 174.476 76.0401 175.179 75.2993C175.887 74.5426 176.278 74.0449 176.353 73.8062C176.383 73.7108 176.27 73.6233 176.016 73.5438C175.761 73.4643 175.068 73.3352 173.937 73.1564L173.016 72.9999C171.097 72.7148 170.003 72.53 169.732 72.4456C169.398 72.3412 169.251 72.2254 169.291 72.0981C169.341 71.9391 169.494 71.8123 169.75 71.7178C170.023 71.6283 170.37 71.6058 170.793 71.6505L171.426 71.7175C172.573 71.8486 173.27 71.9355 173.519 71.9782C174.645 72.1729 175.285 72.2767 175.438 72.2896C176.253 72.4218 176.747 72.5152 176.922 72.5698C177.209 72.6593 177.448 72.7865 177.641 72.9515C177.85 73.1215 177.93 73.286 177.88 73.4451C177.815 73.6519 177.373 74.2296 176.553 75.1783C175.754 76.116 174.929 76.9935 174.08 77.8109C174.899 77.8744 175.726 77.8534 176.562 77.7479C176.883 77.726 177.06 77.72 177.092 77.7299C177.139 77.7449 177.18 77.7836 177.212 77.8463C177.245 77.9089 177.254 77.9641 177.239 78.0118C177.199 78.1391 177.105 78.2753 176.954 78.4205C176.809 78.5497 176.666 78.6447 176.525 78.7054ZM183.401 91.8796C182.542 91.6113 181.786 91.1829 181.131 90.5944C180.482 89.99 180.028 89.2632 179.769 88.4142C179.511 87.5651 179.535 86.6474 179.844 85.6611C180.37 83.9748 181.352 82.3694 182.788 80.845C184.23 79.3047 185.978 77.9826 188.034 76.8787C188.238 76.7852 188.419 76.737 188.577 76.734C188.735 76.731 188.91 76.7593 189.101 76.8189C189.26 76.8686 189.399 76.9556 189.517 77.0798C189.651 77.2091 189.701 77.3294 189.666 77.4407C189.646 77.5044 189.585 77.5899 189.481 77.6973C189.399 77.7937 189.344 77.8554 189.319 77.8822C189.414 77.912 189.528 77.9389 189.66 77.9627C189.813 77.9756 190.089 78.0442 190.486 78.1684C190.948 78.3125 191.543 78.5858 192.273 78.9884C193.024 79.38 193.557 79.7125 193.874 79.9859C194.764 80.7702 195.365 81.6128 195.677 82.5135C195.994 83.3984 196.024 84.2544 195.765 85.0817C195.254 86.7203 194.303 88.1432 192.913 89.3504C191.523 90.5576 189.96 91.3965 188.224 91.867C186.489 92.3375 184.881 92.3417 183.401 91.8796ZM193.185 80.766C192.788 80.4151 192.24 80.1303 191.54 79.9117C191.317 79.8421 191.01 79.7636 190.618 79.6762L189.727 79.4242C188.964 79.1857 188.632 78.9074 188.731 78.5892C188.766 78.4779 188.806 78.3769 188.852 78.2865C188.898 78.196 188.933 78.1373 188.959 78.1105C188.625 78.0061 188.325 78.0171 188.058 78.1434C186.332 79.0882 184.872 80.2124 183.679 81.516C182.502 82.8246 181.687 84.2028 181.235 85.6505C180.813 87.0027 180.839 88.0934 181.313 88.9225C181.808 89.7407 182.644 90.3337 183.822 90.7014C185.158 91.1188 186.582 91.1444 188.093 90.7783C189.62 90.4172 190.975 89.7404 192.158 88.748C193.357 87.7605 194.165 86.5986 194.583 85.2623C194.871 84.3396 194.89 83.5248 194.639 82.8179C194.393 82.0951 193.909 81.4112 193.185 80.766Z" fill="white"/>
<defs>
<linearGradient id="paint0_linear_9_461" x1="20.0436" y1="32.3064" x2="266.468" y2="32.3064" gradientUnits="userSpaceOnUse">
<stop stop-color="#72159E"/>
<stop offset="1" stop-color="#080838"/>
</linearGradient>
</defs>
</svg>
