<svg width="346" height="171" viewBox="0 0 346 171" fill="none" xmlns="http://www.w3.org/2000/svg">
<rect width="329.377" height="79.3194" rx="39.6597" transform="matrix(0.957868 0.287209 -0.346696 0.937977 29 1)" fill="url(#paint0_linear_504_7)"/>
<path d="M47.3922 54.7688C45.8522 55.4369 44.2943 56.0374 42.7187 56.5701C41.1622 57.1085 39.9031 57.4435 38.9414 57.5751C38.8084 57.7647 38.6673 57.8895 38.5179 57.9494C38.3617 58.028 38.1686 58.0333 37.9385 57.9651C37.7659 57.914 37.6549 57.8396 37.6056 57.7417C37.5495 57.6626 37.5523 57.5385 37.614 57.3694C37.6551 57.2567 37.8649 56.7984 38.2433 55.9944C38.6409 55.1961 39.042 54.2428 39.4465 53.1343C40.1322 51.2555 40.724 49.5467 41.2218 48.0078C41.828 46.2304 42.2614 44.9847 42.5219 44.2708C42.9265 43.1623 43.3741 42.2851 43.8648 41.6393C44.2019 41.2395 44.591 41.1049 45.0321 41.2355C45.1855 41.281 45.3095 41.3489 45.404 41.4393C45.5176 41.5354 45.5539 41.6398 45.5128 41.7526C45.4593 41.8408 45.2338 42.1384 44.8364 42.6453C44.4581 43.1578 44.1763 43.6677 43.9912 44.175C43.477 45.5841 42.9435 47.1332 42.3908 48.8223C41.6474 50.9755 41.1249 52.4654 40.8232 53.2921C40.309 54.7012 39.9908 55.5438 39.8688 55.82C40.6552 55.7613 41.7841 55.4919 43.2556 55.0116C44.7463 54.537 46.0178 54.0807 47.07 53.6429C49.2733 52.6714 50.971 51.7168 52.1632 50.7791C53.3554 49.8414 54.1812 48.7431 54.6406 47.4843C55.196 45.9625 54.5985 44.6302 52.8481 43.4874C51.1169 42.3502 48.6788 41.316 45.5338 40.3848C44.575 40.1009 43.249 39.8332 41.5558 39.5817C41.2421 39.5096 40.7284 39.4616 40.0147 39.4376C39.6928 39.4464 39.4743 39.4337 39.3592 39.3997C39.2058 39.3542 39.1065 39.1895 39.0614 38.9055C38.9971 38.6159 39.0096 38.3489 39.0987 38.1047C39.133 38.0107 39.231 37.9461 39.3926 37.9107C39.5611 37.8565 39.7961 37.8532 40.0975 37.9008C41.3029 38.0912 42.3221 38.268 43.155 38.4314C44.007 38.6004 44.9796 38.8467 46.0727 39.1704C49.5629 40.2038 52.2605 41.4293 54.1656 42.847C56.0898 44.2703 56.7159 45.9025 56.044 47.7437C55.5091 49.2092 54.5703 50.4717 53.2273 51.5314C51.8844 52.591 49.9394 53.6701 47.3922 54.7688ZM56.6921 62.6749C55.4073 62.2945 54.5849 61.6658 54.2249 60.789C53.8649 59.9121 53.8735 58.957 54.2506 57.9237C54.5798 57.0219 55.1507 55.9523 55.9636 54.7148C56.7956 53.4831 57.7104 52.432 58.7081 51.5616C58.7738 51.4978 59.0267 51.2708 59.4666 50.8806C59.9325 50.4773 60.3826 50.2046 60.817 50.0626C61.2581 49.9018 61.6705 49.8782 62.054 49.9917C62.2266 50.0428 62.3629 50.1352 62.4629 50.2689C62.5889 50.3895 62.6279 50.5155 62.5799 50.647C62.5661 50.6846 62.4743 50.7615 62.3044 50.8778C62.1605 50.9809 62.0461 51.0615 61.9612 51.1196C61.028 51.6969 60.2229 52.3016 59.546 52.9339C58.6593 53.7331 57.8911 54.557 57.2415 55.4055C56.611 56.2597 56.0935 57.2411 55.6889 58.3496C55.1472 59.8338 55.7969 60.8485 57.6379 61.3936C58.5009 61.6491 59.3858 61.6405 60.2928 61.3678C61.219 61.1008 62.0295 60.685 62.7243 60.1204C63.4259 59.5371 63.883 58.9542 64.0955 58.3718C64.3355 57.7142 64.3241 57.0759 64.0613 56.4568C63.7985 55.8377 63.383 55.1422 62.8148 54.3702C62.4464 53.8656 62.1884 53.4665 62.0405 53.1729C61.8927 52.8793 61.8462 52.6574 61.901 52.507C61.9833 52.2816 62.2115 52.1514 62.5855 52.1164C62.9663 52.0626 63.3773 52.101 63.8184 52.2316C64.0677 52.3054 64.2238 52.3725 64.2868 52.4328C64.3567 52.4743 64.3779 52.5326 64.3504 52.6078C64.3367 52.6453 64.2744 52.6997 64.1634 52.771C64.0784 52.8291 64.0257 52.8863 64.0051 52.9427C63.9845 52.9991 64.1077 53.2437 64.3747 53.6767C64.9155 54.5238 65.3282 55.3434 65.6129 56.1355C65.8975 56.9276 65.8822 57.7558 65.5668 58.62C65.2993 59.3528 64.7127 60.1159 63.8069 60.9094C62.9011 61.7029 61.8131 62.2968 60.543 62.691C59.2798 63.0664 57.9962 63.061 56.6921 62.6749ZM74.2784 68.7877C74.0866 68.731 73.9408 68.6357 73.8408 68.502C73.734 68.3871 73.708 68.2545 73.7629 68.1042C74.044 67.3339 74.5369 66.1579 75.2417 64.5762C75.9875 62.8818 76.5696 61.4616 76.9879 60.3155C77.3924 59.207 77.6832 58.2939 77.8602 57.576C78.0632 56.845 78.0401 56.4426 77.7908 56.3688C77.1387 56.1758 76.1282 56.7613 74.7591 58.1255C73.4161 59.4765 71.7728 61.3008 69.8294 63.5982L68.9865 64.5978C68.8412 64.7629 68.6521 64.8735 68.4192 64.9294C68.2055 64.991 68.0027 64.9935 67.811 64.9367C67.5809 64.8685 67.4343 64.8043 67.3713 64.744C67.3083 64.6837 67.3015 64.5568 67.3509 64.3633L67.9641 61.9842L69.0137 57.7983C69.4692 56.1428 69.8204 54.6854 70.0675 53.4262C70.1128 53.1273 70.1629 52.9028 70.2177 52.7525C70.3206 52.4706 70.5275 52.2821 70.8385 52.1868C71.1564 52.0728 71.4783 52.064 71.8043 52.1605C71.9961 52.2173 71.9658 52.708 71.7134 53.6325C71.4801 54.5627 71.0446 56.0472 70.4068 58.0859L69.9768 59.6136C69.4377 61.5566 69.0851 62.7845 68.9192 63.2975C69.0179 63.2018 69.1104 63.0939 69.1967 62.9737C69.3091 62.8405 69.4345 62.7006 69.5729 62.5543C71.5684 60.2306 73.3357 58.3285 74.8747 56.8481C76.4397 55.3546 77.6441 54.7328 78.4879 54.9826C79.0824 55.1587 79.3034 55.7758 79.1509 56.834C79.0245 57.8791 78.7089 59.1805 78.2042 60.7381C77.6378 62.4649 76.7546 64.9722 75.5547 68.2601C75.4724 68.4855 75.3079 68.645 75.0613 68.7385C74.8078 68.8508 74.5469 68.8672 74.2784 68.7877ZM93.6536 61.7215C91.7796 61.4997 90.7303 61.3764 90.5056 61.3515L88.5227 61.1079C88.1661 62.0848 87.802 63.1116 87.4304 64.1882C87.0779 65.2705 86.783 66.2241 86.5457 67.049C86.2247 68.1614 86.0538 69.0372 86.033 69.6764C86.0123 70.3156 85.9977 70.6756 85.9895 70.7565C85.9209 70.9443 85.7346 71.0765 85.4304 71.153C85.1386 71.254 84.8872 71.2732 84.6762 71.2107C84.5612 71.1767 84.479 71.1107 84.4297 71.0128C84.3736 70.9338 84.3442 70.8106 84.3415 70.6432C84.3224 70.3461 84.3856 69.8236 84.5311 69.0756C84.6958 68.3332 84.9071 67.5214 85.165 66.6401C85.3886 65.8528 85.6663 64.9462 85.9982 63.9203C86.3562 62.8813 86.71 61.8827 87.0597 60.9245C85.924 60.7756 84.7459 60.6558 83.5254 60.565C82.4336 60.4707 81.7918 60.3952 81.6 60.3384C81.3699 60.2703 81.1733 60.1392 81.0104 59.9452C80.8666 59.7569 80.8359 59.55 80.9182 59.3246C81.0073 59.0804 81.1519 58.9462 81.3519 58.9222C81.5519 58.8981 81.8533 58.9457 82.256 59.065C82.5437 59.1501 82.9827 59.2281 83.5731 59.2988C84.1704 59.3508 84.5526 59.3806 84.7197 59.3885C86.0937 59.5247 87.0245 59.6234 87.5122 59.6845C87.6562 59.2899 87.8256 58.7676 88.0204 58.1175C88.2974 57.2419 88.5182 56.5786 88.6828 56.1277C88.9502 55.395 89.1751 54.837 89.3574 54.4538C89.5658 54.0575 89.7954 53.7195 90.0462 53.4399C90.3368 53.1096 90.693 53.0069 91.1149 53.1318C91.2875 53.1829 91.3922 53.2451 91.4292 53.3185C91.4662 53.3919 91.4572 53.5038 91.4024 53.6541C91.3612 53.7668 91.1933 54.0814 90.8986 54.5979C90.6038 55.1143 90.2919 55.8235 89.9628 56.7253C89.7091 57.4204 89.4437 58.2058 89.1666 59.0814L88.9177 59.8508C89.8287 59.9748 91.6623 60.1326 94.4185 60.3242C94.5856 60.332 94.7583 60.2374 94.9365 60.0404C95.1338 59.849 95.29 59.7703 95.4051 59.8044C95.616 59.8669 95.7824 60.0514 95.9042 60.3581C96.052 60.6517 96.0814 60.9207 95.9923 61.1649C95.8757 61.4843 95.6427 61.686 95.2934 61.7699C94.9632 61.8595 94.4166 61.8433 93.6536 61.7215ZM115.881 76.7343C114.709 77.3243 113.391 77.85 111.927 78.3115C110.968 78.6104 110.046 78.8371 109.161 78.9914C108.295 79.1513 107.67 79.1746 107.287 79.061C107.095 79.0042 106.943 78.8967 106.83 78.7386C106.73 78.6049 106.718 78.4347 106.794 78.2281C106.903 77.9275 107.114 77.6985 107.427 77.5412C107.732 77.4026 108.101 77.3244 108.532 77.3065C108.752 77.2881 109.048 77.2924 109.42 77.3195C109.889 77.3749 110.326 77.3692 110.733 77.3023C111.502 77.176 112.438 76.9118 113.541 76.5098C114.67 76.0946 115.579 75.6978 116.27 75.3194C117.41 74.6993 118.311 74.1229 118.973 73.5903C119.661 73.0445 120.135 72.4146 120.395 71.7007C120.539 71.3062 120.451 70.9676 120.129 70.6849C119.814 70.3835 119.378 70.1504 118.822 69.9857C117.403 69.5655 116.019 69.4265 114.671 69.5686C114.071 69.6408 113.658 69.6954 113.432 69.7326C112.632 69.8288 111.981 69.8961 111.478 69.9346C110.911 69.9748 110.37 70.002 109.854 70.016C109.346 70.0112 109.005 70.0143 108.831 70.0253L108.498 71.1132C108.395 71.395 108.24 71.8488 108.033 72.4744C107.845 73.1058 107.652 73.6939 107.453 74.2388C106.98 75.5351 106.5 76.5589 106.013 77.3099C105.84 77.5503 105.686 77.7126 105.549 77.7969C105.412 77.8813 105.209 77.8837 104.94 77.8042C104.768 77.7531 104.625 77.6485 104.513 77.4903C104.401 77.3322 104.375 77.1685 104.437 76.9994C104.458 76.9431 104.661 76.6492 105.046 76.1179C105.431 75.5866 105.706 75.0955 105.87 74.6446C106.405 73.1791 107.02 71.2898 107.716 68.9768L108.102 67.6548C108.44 66.3808 108.739 65.3868 109 64.6728C109.198 64.128 109.487 63.4536 109.865 62.6496C110.251 61.8269 110.51 61.2897 110.645 61.038C109.848 61.0101 108.794 61.0729 107.484 61.2263C107.11 61.2613 106.603 61.3713 105.961 61.5561C105.372 61.7148 104.992 61.7686 104.819 61.7175C104.665 61.672 104.555 61.5665 104.488 61.4009C104.421 61.2353 104.422 61.0586 104.49 60.8707C104.621 60.5138 105.431 60.2437 106.922 60.0605C108.412 59.8773 109.994 59.7939 111.667 59.8104C113.172 59.819 114.487 59.8855 115.61 60.0099C116.733 60.1344 117.851 60.3613 118.963 60.6906C119.98 60.9915 120.751 61.4387 121.279 62.0319C121.832 62.6121 121.982 63.2498 121.728 63.9449C121.125 65.5983 119.58 67.0354 117.095 68.2564C117.96 68.3878 118.729 68.5529 119.4 68.7516C120.282 69.0128 120.974 69.4156 121.477 69.96C121.98 70.5043 122.077 71.1992 121.768 72.0447C121.439 72.9465 120.771 73.7583 119.764 74.4802C118.763 75.1833 117.469 75.9347 115.881 76.7343ZM118.301 61.8061C117.515 61.5733 116.493 61.3748 115.235 61.2106C113.985 61.0277 112.996 60.943 112.268 60.9566C111.476 62.1376 110.922 63.1603 110.607 64.0245C110.161 65.2457 109.656 66.8034 109.093 68.6974C109.291 68.7354 109.625 68.7511 110.095 68.7446C110.584 68.7436 111.039 68.722 111.458 68.6796C113.554 68.4675 115.425 67.9391 117.072 67.0944C118.719 66.2497 119.776 65.1886 120.242 63.911C120.407 63.4601 120.31 63.0566 119.951 62.7005C119.599 62.3257 119.049 62.0275 118.301 61.8061ZM132.167 85.3351C131.784 85.2215 131.573 84.7219 131.535 83.8363C131.516 82.9564 131.622 82.0823 131.854 81.2141C132.072 80.3836 132.611 78.732 133.471 76.2594C133.596 75.8592 133.73 75.4618 133.874 75.0672C134.025 74.6539 134.143 74.3035 134.226 74.016C133.197 75.1477 131.901 76.3983 130.339 77.7677C128.777 79.1371 127.291 80.2688 125.881 81.1629C124.49 82.0626 123.488 82.4216 122.874 82.2399C122.241 82.0525 121.939 81.5988 121.968 80.8788C122.016 80.1644 122.301 79.0933 122.822 77.6654C123.309 76.3315 124.034 74.8702 124.996 73.2815C125.977 71.6984 126.859 70.5335 127.642 69.7868C127.978 69.449 128.237 69.2343 128.419 69.1425C128.608 69.0319 128.789 69.0022 128.961 69.0533C129.441 69.1953 129.646 69.3602 129.578 69.5481C129.543 69.642 129.369 69.8297 129.053 70.1111C128.193 70.8972 127.331 71.891 126.467 73.0926C125.604 74.2942 124.767 76.0035 123.958 78.2204C123.417 79.7047 123.357 80.5093 123.779 80.6342C124.277 80.7818 125.144 80.4451 126.378 79.624C127.639 78.7898 128.966 77.7462 130.358 76.493C131.75 75.2398 132.869 74.1243 133.715 73.1464C134.005 72.816 134.391 72.2847 134.87 71.5524C135.044 71.25 135.184 71.0416 135.29 70.9271C135.402 70.7939 135.497 70.7386 135.573 70.7613C135.784 70.8238 135.984 70.9765 136.171 71.2194C136.359 71.4623 136.418 71.6777 136.35 71.8655C136.021 72.7674 135.484 74.3259 134.739 76.5411C134.02 78.7432 133.555 80.2812 133.342 81.155C133.151 81.9105 133.076 82.5233 133.117 82.9934C133.177 83.4692 133.259 83.8576 133.361 84.1586C133.471 84.4408 133.515 84.6101 133.495 84.6665C133.385 84.9671 133.213 85.1764 132.979 85.2944C132.744 85.4124 132.474 85.4259 132.167 85.3351ZM148.402 78.9316C147.568 80.5168 147.104 81.4099 147.01 81.6109C145.917 83.848 145.09 85.5601 144.53 86.7472C143.995 87.9213 143.549 88.9968 143.193 89.9737C142.898 90.7816 142.722 91.4374 142.666 91.9412C142.629 92.4506 142.629 92.8568 142.667 93.1595C142.718 93.4868 142.733 93.6786 142.712 93.735C142.651 93.904 142.442 94.0089 142.088 94.0496C141.733 94.0902 141.392 94.0623 141.066 93.9658C140.817 93.892 140.736 93.5036 140.822 92.8006C140.928 92.1032 141.235 91.0594 141.742 89.6691C142.126 88.617 142.749 87.2297 143.611 85.5073L145.462 81.746C144.588 82.5697 143.603 83.3188 142.506 83.9935C141.436 84.6551 140.499 84.8667 139.693 84.6282C138.945 84.4067 138.507 83.5692 138.379 82.1156C138.251 80.662 138.309 79.0762 138.553 77.3582C138.817 75.6459 139.086 74.414 139.36 73.6625C139.532 73.1928 139.761 73.0006 140.049 73.0857C140.471 73.2107 140.599 73.6753 140.433 74.4797C139.255 79.9185 139.318 82.8309 140.622 83.2171C141.14 83.3704 141.663 83.3065 142.19 83.0256C142.744 82.7315 143.443 82.2412 144.289 81.5547C144.682 81.234 145.143 80.7874 145.67 80.215C146.198 79.6426 146.617 79.1631 146.929 78.7764L148.169 75.9896C148.365 75.5689 148.532 75.2853 148.67 75.1389C148.816 74.9738 149.003 74.9253 149.234 74.9934C149.425 75.0502 149.576 75.2197 149.685 75.5019C149.802 75.7654 149.822 76.0004 149.747 76.2071C149.589 76.6392 149.141 77.5474 148.402 78.9316ZM163.189 93.4277L162.49 95.7812C162.366 96.1194 162.203 96.3626 162 96.5107C161.791 96.6776 161.59 96.7327 161.398 96.6759C161.264 96.6362 161.246 96.277 161.345 95.5985C161.463 94.9256 161.68 94.1571 161.995 93.2928C161.584 93.2544 161.149 93.1671 160.689 93.0308C159.787 92.7639 159.112 92.4599 158.663 92.1187C158.22 91.7587 158.064 91.4002 158.195 91.0433C158.256 90.8742 158.574 90.6144 159.148 90.2639C159.749 89.9004 160.125 89.7413 160.279 89.7867C160.509 89.8549 160.607 89.9359 160.573 90.0298C160.552 90.0862 160.416 90.1395 160.164 90.1898C159.938 90.227 159.811 90.2831 159.783 90.3583C159.763 90.4146 159.809 90.5219 159.921 90.68C160.052 90.8439 160.254 91.0182 160.527 91.203C160.819 91.3934 161.195 91.5568 161.655 91.6931C161.827 91.7442 162.093 91.8021 162.452 91.8667L162.761 91.0212C163.46 89.1049 164.035 87.5577 164.487 86.3798C162.769 85.205 161.45 84.19 160.53 83.3346C159.636 82.4661 159.305 81.7124 159.538 81.0736C159.854 80.2094 160.853 79.4226 162.535 78.7134C164.225 77.9853 166.095 77.3733 168.146 76.8772L169.069 74.4339C169.411 73.5565 169.769 72.809 170.143 72.1911C170.543 71.5602 170.954 71.3072 171.376 71.4321C171.645 71.5116 171.734 71.6735 171.645 71.9177C171.611 72.0117 171.563 72.1121 171.503 72.2192C171.443 72.3262 171.386 72.4239 171.332 72.5122C171.039 72.9666 170.827 73.3723 170.697 73.7292L170.084 75.234L169.533 76.5697C170.082 76.4618 170.792 76.3804 171.662 76.3257C172.551 76.2767 173.187 76.309 173.571 76.4226C173.878 76.5134 174.138 76.6737 174.352 76.9035C174.572 77.1146 174.645 77.3234 174.569 77.5301C174.54 77.6673 174.498 77.842 174.442 78.0544C174.411 78.2536 174.378 78.4312 174.343 78.5872C174.302 78.6999 174.225 78.7919 174.115 78.8631C174.03 78.9212 173.949 78.9389 173.872 78.9162C173.795 78.8935 173.752 78.8079 173.743 78.6593C173.74 78.492 173.679 78.3387 173.56 78.1993C173.46 78.0656 173.199 77.9363 172.777 77.8114C172.451 77.7148 171.94 77.6885 171.244 77.7322C170.555 77.7572 169.787 77.8525 168.941 78.0181C167.62 81.2287 166.598 83.7677 165.874 85.6351C167.743 86.9173 169.142 87.9767 170.069 88.8133C171.022 89.6368 171.396 90.3304 171.19 90.894C171.032 91.3262 170.54 91.7426 169.714 92.1433C168.888 92.544 167.877 92.8692 166.681 93.1187C165.491 93.3495 164.328 93.4525 163.189 93.4277ZM161.153 81.3645C161.03 81.7027 161.306 82.1695 161.981 82.7649C162.656 83.3604 163.665 84.1173 165.009 85.0355C166.234 81.7966 167.095 79.5534 167.592 78.306C165.969 78.6788 164.536 79.1394 163.295 79.6879C162.08 80.2232 161.366 80.7821 161.153 81.3645ZM165.362 86.9512C165.171 87.4152 164.917 88.1414 164.598 89.1297C164.335 89.9677 164.128 90.5934 163.977 91.0067L163.625 92.058C164.499 92.1086 165.372 92.0755 166.243 91.9588C167.134 91.8477 167.878 91.6725 168.475 91.433C169.099 91.1804 169.462 90.9132 169.565 90.6314C169.681 90.312 169.385 89.8705 168.677 89.3069C167.989 88.7491 166.883 87.9638 165.362 86.9512ZM188.353 106.906C188.305 107.037 188.191 107.118 188.01 107.147C187.848 107.183 187.681 107.175 187.509 107.124C187.087 106.999 186.777 106.772 186.578 106.442C186.392 106.137 186.381 105.759 186.546 105.309C187.409 102.941 188.135 101.012 188.722 99.5202L189.695 97.029C190.39 95.2988 190.895 94.0015 191.211 93.1373C187.764 96.7592 184.733 99.3591 182.117 100.937C179.494 102.534 177.042 102.994 174.76 102.318C173.072 101.819 172.02 100.945 171.604 99.6979C171.188 98.4506 171.371 96.756 172.153 94.6141C173.202 91.7396 174.889 89.1267 177.213 86.7755C179.544 84.4054 182.061 82.6628 184.763 81.5476C187.484 80.438 189.909 80.1984 192.037 80.8287C192.708 81.0274 193.084 81.3675 193.163 81.849C193.261 82.3361 193.228 82.8052 193.064 83.2561C192.892 83.7258 192.707 84.0873 192.509 84.3408C192.336 84.5811 192.192 84.6842 192.077 84.6501C191.981 84.6218 191.935 84.5145 191.939 84.3284C191.963 84.1479 192.024 83.8331 192.125 83.384C192.218 82.9536 192.232 82.6246 192.166 82.397C192.107 82.1506 191.905 81.9762 191.56 81.874C189.796 81.3516 187.665 81.6577 185.169 82.7921C182.692 83.9322 180.357 85.6141 178.164 87.8377C175.997 90.0483 174.465 92.3842 173.567 94.8454C172.997 96.4048 172.814 97.6932 173.016 98.7108C173.231 99.7528 174.029 100.478 175.41 100.887C176.905 101.33 178.505 101.169 180.208 100.403C181.911 99.6374 183.566 98.5662 185.174 97.1893C186.807 95.7993 188.822 93.9185 191.217 91.5467C190.171 91.445 188.663 91.4147 186.693 91.456L185.437 91.4902L184.249 91.5132C183.451 91.5474 182.807 91.5649 182.318 91.5658C181.835 91.5479 181.45 91.4964 181.163 91.4112C180.971 91.3544 180.848 91.2245 180.795 91.0213C180.768 90.805 180.792 90.5936 180.867 90.3869C180.963 90.1239 181.452 89.9773 182.335 89.947C183.224 89.898 184.516 89.9372 186.212 90.0647C186.874 90.1149 187.838 90.1506 189.105 90.1719C189.318 90.1723 189.948 90.1924 190.996 90.232C192.063 90.2774 192.788 90.3568 193.172 90.4704C193.21 90.4818 193.316 90.513 193.488 90.5641C193.68 90.6209 193.787 90.7358 193.809 90.9088C193.838 91.063 193.797 91.2904 193.687 91.591C193.626 91.7601 193.456 91.8764 193.178 91.9397L192.357 94.1012C191.765 95.5497 191.153 97.1381 190.522 98.8666L189.062 102.868L188.496 104.418C188.301 105.069 188.204 105.539 188.204 105.831C188.197 106.141 188.23 106.369 188.304 106.516C188.371 106.682 188.388 106.812 188.353 106.906ZM205.707 94.4317C205.572 94.3919 205.459 94.2958 205.366 94.1433C205.292 93.9965 205.216 93.7971 205.138 93.545C205.072 93.3174 204.948 93.1037 204.766 92.9041C204.603 92.7101 204.406 92.579 204.176 92.5109C203.62 92.3462 202.608 92.8481 201.141 94.0165C199.68 95.1662 198.101 96.6973 196.404 98.6098C196.266 99.0476 196.096 99.601 195.894 100.27C195.712 100.945 195.572 101.444 195.474 101.769L195.149 102.922C195.053 103.185 194.914 103.394 194.73 103.548C194.539 103.72 194.291 103.761 193.984 103.67C193.658 103.574 193.601 103.088 193.814 102.215C194.033 101.322 194.432 100.055 195.009 98.4153C195.141 97.9963 195.338 97.3988 195.6 96.6228C195.881 95.8525 196.198 94.9262 196.55 93.8439C197.082 92.2111 197.475 91.0472 197.729 90.352C197.887 89.9199 198.234 89.7833 198.771 89.9423C199.097 90.0388 199.237 90.2365 199.192 90.5354C199.173 90.8211 199.022 91.3491 198.741 92.1195L197.106 96.6004C198.209 95.324 199.288 94.2592 200.344 93.4058C201.399 92.5524 202.342 91.947 203.174 91.5895C204.032 91.219 204.71 91.1075 205.208 91.2551C205.63 91.38 205.999 91.5932 206.314 91.8947C206.629 92.1961 206.846 92.5312 206.967 92.9C207.094 93.2499 207.11 93.5564 207.014 93.8194C206.952 93.9885 206.755 94.1489 206.424 94.3005C206.118 94.4391 205.879 94.4828 205.707 94.4317ZM215.57 110.031C215.187 109.917 214.976 109.417 214.938 108.532C214.919 107.652 215.025 106.778 215.257 105.91C215.475 105.079 216.014 103.427 216.874 100.955C216.999 100.555 217.134 100.157 217.278 99.7627C217.428 99.3493 217.546 98.9989 217.629 98.7114C216.6 99.8431 215.304 101.094 213.742 102.463C212.18 103.833 210.694 104.964 209.284 105.858C207.893 106.758 206.891 107.117 206.277 106.935C205.644 106.748 205.342 106.294 205.371 105.574C205.419 104.86 205.704 103.789 206.225 102.361C206.712 101.027 207.437 99.5656 208.399 97.9769C209.38 96.3938 210.262 95.229 211.045 94.4822C211.381 94.1444 211.64 93.9297 211.822 93.8379C212.011 93.7274 212.192 93.6976 212.364 93.7487C212.844 93.8907 213.049 94.0556 212.981 94.2435C212.946 94.3374 212.772 94.5251 212.457 94.8065C211.596 95.5926 210.734 96.5864 209.87 97.788C209.007 98.9896 208.171 100.699 207.361 102.916C206.82 104.4 206.76 105.205 207.182 105.33C207.68 105.477 208.547 105.141 209.782 104.319C211.042 103.485 212.369 102.442 213.761 101.188C215.153 99.9352 216.272 98.8197 217.118 97.8418C217.409 97.5114 217.794 96.9801 218.273 96.2478C218.448 95.9455 218.587 95.737 218.693 95.6226C218.805 95.4893 218.9 95.434 218.977 95.4567C219.187 95.5192 219.387 95.6719 219.574 95.9148C219.762 96.1577 219.821 96.3731 219.753 96.561C219.424 97.4628 218.887 99.0213 218.142 101.237C217.423 103.439 216.958 104.977 216.745 105.85C216.554 106.606 216.479 107.219 216.52 107.689C216.581 108.165 216.662 108.553 216.765 108.854C216.874 109.136 216.918 109.306 216.898 109.362C216.788 109.663 216.616 109.872 216.382 109.99C216.148 110.108 215.877 110.121 215.57 110.031ZM236.204 116.203C235.859 116.1 235.748 115.88 235.871 115.542C237.256 111.747 238.191 108.807 238.675 106.723C239.167 104.62 239.105 103.478 238.492 103.296C237.456 102.989 234.649 106.082 230.069 112.575L230.059 112.603C229.977 112.829 229.828 113.003 229.613 113.127C229.405 113.232 229.176 113.247 228.927 113.173C228.581 113.071 228.47 112.851 228.594 112.513C228.868 111.761 229.332 110.608 229.984 109.052C230.706 107.309 231.251 105.93 231.622 104.915C232.136 103.506 232.451 102.496 232.568 101.886C232.711 101.262 232.638 100.907 232.351 100.822C231.699 100.629 230.445 101.559 228.591 103.612C226.744 105.647 224.694 108.09 222.442 110.941L221.916 111.597C221.771 111.762 221.597 111.888 221.396 111.974C221.214 112.066 221.036 112.086 220.864 112.035C220.633 111.967 220.487 111.903 220.424 111.842C220.361 111.782 220.354 111.655 220.403 111.462C220.644 110.513 221.016 109.259 221.521 107.702C221.626 107.296 221.825 106.636 222.115 105.723C223.082 102.491 223.691 100.298 223.943 99.1443C224.2 97.9716 224.353 97.3195 224.401 97.188C224.456 97.0376 224.598 96.8819 224.827 96.7206C225.056 96.5594 225.237 96.4986 225.372 96.5384C225.678 96.6292 225.849 96.9191 225.883 97.408C225.903 97.6431 225.707 98.501 225.294 99.9817C224.881 101.462 224.322 103.285 223.618 105.45L222.188 109.804C224.408 106.922 226.557 104.353 228.635 102.095C230.719 99.8185 232.231 98.8194 233.171 99.0976C233.804 99.285 234.071 99.8637 233.972 100.834C233.873 101.804 233.511 103.143 232.887 104.853C232.558 105.755 232.066 107.046 231.411 108.725L230.909 110.013C232.675 107.559 234.275 105.535 235.707 103.939C237.158 102.35 238.277 101.671 239.064 101.904C241.039 102.489 240.463 107.065 237.336 115.632C237.254 115.858 237.109 116.023 236.901 116.128C236.685 116.251 236.453 116.276 236.204 116.203ZM244.644 115.61C244.14 116.876 243.74 117.914 243.445 118.721C243.054 119.792 242.746 120.783 242.519 121.695C242.434 122.044 242.368 122.285 242.32 122.416C242.21 122.717 242.05 122.951 241.841 123.118C241.624 123.303 241.391 123.359 241.142 123.286C240.797 123.183 240.65 123.004 240.7 122.749C240.798 122.424 240.951 121.917 241.159 121.23C241.38 120.566 241.614 119.897 241.861 119.22L243.329 115.283C243.233 115.255 243.048 115.21 242.772 115.15C242.516 115.095 242.264 115.03 242.014 114.956C241.554 114.82 241.437 114.442 241.663 113.822C241.828 113.371 242.025 113.18 242.255 113.248C242.332 113.271 242.542 113.395 242.884 113.621C243.226 113.848 243.532 114.001 243.8 114.08L246.682 106.096C246.536 106.032 246.23 105.91 245.764 105.73C245.305 105.532 244.984 105.333 244.802 105.133C244.639 104.939 244.602 104.72 244.692 104.476C244.87 103.988 245.055 103.772 245.247 103.829C245.458 103.891 245.689 104.043 245.941 104.284C245.973 104.314 246.067 104.405 246.225 104.555C246.389 104.687 246.637 104.823 246.968 104.963C247.193 104.696 247.374 104.521 247.511 104.437C247.667 104.358 247.899 104.364 248.206 104.455C248.589 104.568 248.753 104.7 248.699 104.851C248.678 104.907 248.612 105.002 248.499 105.135C248.394 105.25 248.317 105.373 248.269 105.504C249.396 106.025 250.612 106.77 251.915 107.739C253.245 108.695 254.313 109.729 255.118 110.842C255.942 111.961 256.183 112.99 255.84 113.929C255.353 115.263 254.094 116.035 252.062 116.245C250.031 116.456 247.558 116.244 244.644 115.61ZM247.82 106.558C247.461 107.659 246.962 109.114 246.323 110.924C245.691 112.714 245.268 113.901 245.056 114.483C246.206 114.824 247.485 115.046 248.892 115.15C250.306 115.236 251.543 115.165 252.603 114.938C253.69 114.697 254.343 114.277 254.562 113.675C254.85 112.886 254.65 112.036 253.963 111.125C253.276 110.213 252.355 109.358 251.202 108.559C250.068 107.765 248.941 107.098 247.82 106.558ZM268.352 114.448C267.518 116.034 267.054 116.927 266.96 117.128C265.867 119.365 265.04 121.077 264.479 122.264C263.945 123.438 263.499 124.514 263.143 125.491C262.848 126.298 262.672 126.954 262.616 127.458C262.579 127.967 262.579 128.374 262.617 128.676C262.668 129.004 262.683 129.195 262.662 129.252C262.601 129.421 262.392 129.526 262.038 129.566C261.683 129.607 261.342 129.579 261.016 129.483C260.767 129.409 260.686 129.02 260.772 128.317C260.878 127.62 261.184 126.576 261.692 125.186C262.076 124.134 262.699 122.747 263.561 121.024L265.412 117.263C264.538 118.086 263.553 118.836 262.456 119.51C261.386 120.172 260.448 120.383 259.643 120.145C258.895 119.924 258.457 119.086 258.329 117.632C258.201 116.179 258.259 114.593 258.503 112.875C258.767 111.163 259.036 109.931 259.31 109.179C259.482 108.71 259.711 108.517 259.999 108.603C260.421 108.727 260.549 109.192 260.382 109.996C259.205 115.435 259.268 118.348 260.572 118.734C261.09 118.887 261.613 118.823 262.14 118.542C262.694 118.248 263.393 117.758 264.239 117.072C264.632 116.751 265.093 116.304 265.62 115.732C266.148 115.159 266.567 114.68 266.878 114.293L268.119 111.506C268.315 111.086 268.482 110.802 268.62 110.656C268.766 110.491 268.953 110.442 269.183 110.51C269.375 110.567 269.526 110.736 269.635 111.019C269.752 111.282 269.772 111.517 269.697 111.724C269.539 112.156 269.091 113.064 268.352 114.448ZM282.266 126C281.094 126.59 279.776 127.116 278.312 127.578C277.353 127.877 276.431 128.103 275.545 128.257C274.68 128.417 274.055 128.441 273.671 128.327C273.48 128.27 273.328 128.163 273.215 128.005C273.115 127.871 273.103 127.701 273.179 127.494C273.288 127.194 273.499 126.965 273.812 126.807C274.117 126.669 274.486 126.59 274.917 126.573C275.137 126.554 275.432 126.558 275.805 126.586C276.274 126.641 276.711 126.635 277.118 126.568C277.887 126.442 278.822 126.178 279.925 125.776C281.054 125.361 281.964 124.964 282.655 124.585C283.795 123.965 284.696 123.389 285.358 122.856C286.046 122.311 286.52 121.681 286.78 120.967C286.924 120.572 286.835 120.234 286.514 119.951C286.199 119.65 285.763 119.416 285.207 119.252C283.788 118.832 282.404 118.693 281.056 118.835C280.456 118.907 280.043 118.961 279.817 118.999C279.017 119.095 278.365 119.162 277.863 119.201C277.296 119.241 276.754 119.268 276.239 119.282C275.731 119.277 275.39 119.28 275.216 119.291L274.883 120.379C274.78 120.661 274.625 121.115 274.418 121.741C274.23 122.372 274.036 122.96 273.838 123.505C273.364 124.801 272.885 125.825 272.398 126.576C272.225 126.816 272.07 126.979 271.933 127.063C271.796 127.147 271.594 127.15 271.325 127.07C271.153 127.019 271.01 126.915 270.898 126.756C270.786 126.598 270.76 126.435 270.822 126.266C270.843 126.209 271.045 125.915 271.431 125.384C271.816 124.853 272.091 124.362 272.255 123.911C272.79 122.445 273.405 120.556 274.101 118.243L274.487 116.921C274.825 115.647 275.124 114.653 275.384 113.939C275.583 113.394 275.872 112.72 276.25 111.916C276.636 111.093 276.895 110.556 277.03 110.304C276.232 110.276 275.179 110.339 273.869 110.492C273.495 110.527 272.988 110.637 272.346 110.822C271.757 110.981 271.376 111.035 271.204 110.984C271.05 110.938 270.94 110.833 270.873 110.667C270.806 110.501 270.807 110.325 270.875 110.137C271.006 109.78 271.816 109.51 273.307 109.327C274.797 109.143 276.379 109.06 278.051 109.076C279.557 109.085 280.871 109.152 281.995 109.276C283.118 109.4 284.236 109.627 285.348 109.957C286.364 110.258 287.136 110.705 287.663 111.298C288.217 111.878 288.366 112.516 288.113 113.211C287.509 114.864 285.965 116.301 283.479 117.522C284.345 117.654 285.114 117.819 285.785 118.018C286.667 118.279 287.359 118.682 287.862 119.226C288.364 119.77 288.461 120.465 288.153 121.311C287.824 122.213 287.156 123.024 286.148 123.746C285.148 124.449 283.854 125.201 282.266 126ZM284.686 111.072C283.9 110.839 282.878 110.641 281.62 110.477C280.37 110.294 279.381 110.209 278.653 110.223C277.861 111.404 277.307 112.426 276.992 113.291C276.546 114.512 276.041 116.069 275.477 117.964C275.676 118.002 276.01 118.017 276.48 118.011C276.969 118.01 277.423 117.988 277.843 117.946C279.939 117.734 281.81 117.205 283.457 116.36C285.104 115.516 286.161 114.455 286.627 113.177C286.792 112.726 286.695 112.323 286.336 111.967C285.984 111.592 285.434 111.294 284.686 111.072ZM295.97 115.475C294.674 118.152 293.523 120.871 292.515 123.633C292.295 124.234 292.111 124.856 291.961 125.499C291.812 126.141 291.716 126.519 291.675 126.632C291.511 127.083 291.236 127.251 290.853 127.138C290.719 127.098 290.63 126.905 290.586 126.559C290.549 126.194 290.562 125.751 290.626 125.228C290.715 124.692 290.859 124.152 291.058 123.607C291.606 122.104 292.78 119.121 294.579 114.657C294.797 114.118 295.078 113.639 295.422 113.221C295.785 112.808 296.197 112.669 296.657 112.806C296.811 112.851 296.876 112.964 296.852 113.144C296.855 113.312 296.774 113.621 296.61 114.072C296.589 114.128 296.376 114.596 295.97 115.475ZM289.984 132.314C289.619 132.206 289.363 132.005 289.216 131.712C289.061 131.437 288.984 131.154 288.984 130.862C288.991 130.552 289.022 130.322 289.076 130.172C289.152 129.965 289.32 129.796 289.58 129.665C289.86 129.54 290.105 129.508 290.316 129.571C290.45 129.61 290.535 129.698 290.57 129.833C290.606 129.969 290.634 130.154 290.654 130.389C290.684 130.773 290.756 131.044 290.868 131.202C290.98 131.36 291.05 131.547 291.077 131.763C291.111 131.961 291.115 132.097 291.087 132.172C290.985 132.454 290.617 132.501 289.984 132.314Z" fill="white"/>
<defs>
<linearGradient id="paint0_linear_504_7" x1="0" y1="39.6597" x2="329.377" y2="39.6597" gradientUnits="userSpaceOnUse">
<stop stop-color="#1A79C4"/>
<stop offset="1" stop-color="#080838"/>
</linearGradient>
</defs>
</svg>
