<svg width="285" height="209" viewBox="0 0 285 209" fill="none" xmlns="http://www.w3.org/2000/svg">
<rect x="18.5223" y="73.4147" width="246.424" height="64.6128" rx="32.3064" transform="rotate(-0.620891 18.5223 73.4147)" fill="url(#paint0_linear_9_465)"/>
<path d="M56.7394 103.786C56.2735 103.842 55.1685 104.075 53.4242 104.484C51.6964 104.876 50.4258 105.186 49.6124 105.415C49.6178 105.782 49.6291 106.556 49.6464 107.74C49.6801 108.906 49.7196 109.897 49.7648 110.713C49.7861 111.03 49.8246 111.379 49.8801 111.762C49.9524 112.144 49.9981 112.418 50.0172 112.585C50.1259 113.183 50.1812 113.541 50.1829 113.657C50.1855 113.841 50.0978 114.109 49.9196 114.461C49.7583 114.83 49.6193 115.016 49.5027 115.018C49.386 115.019 49.2768 114.962 49.1751 114.847C49.0734 114.732 49.0047 114.591 48.9689 114.425C48.7913 113.678 48.6569 112.463 48.5657 110.781C48.4524 108.732 48.3874 107.133 48.3706 105.983C48.2708 106.001 48.1047 106.037 47.8721 106.09C47.6559 106.127 47.4647 106.155 47.2983 106.174C47.1316 106.176 46.956 106.137 46.7715 106.056C46.587 105.976 46.4938 105.877 46.4921 105.76C46.4902 105.627 46.5304 105.527 46.6127 105.459C46.7118 105.391 46.8194 105.339 46.9355 105.304C47.0514 105.252 47.1343 105.218 47.184 105.2C47.7803 104.942 48.178 104.777 48.377 104.708L48.0956 99.1364C46.8653 99.3544 45.9585 99.4676 45.3752 99.4761C44.7253 99.4856 44.273 99.3339 44.0184 99.0209C43.7805 98.7077 43.6596 98.4177 43.6557 98.1511C43.6535 98.0011 43.7607 97.9245 43.9774 97.9214C44.0107 97.9209 44.2032 97.9764 44.5549 98.088C44.9232 98.1993 45.2407 98.253 45.5073 98.2491C46.0406 98.2413 46.8893 98.1455 48.0534 97.9619C48.0529 97.9285 48.0594 97.8034 48.0729 97.5865C48.0862 97.353 48.1581 97.1436 48.2888 96.9583C48.3699 96.8071 48.4434 96.706 48.5094 96.6551C48.5753 96.6041 48.6499 96.578 48.7333 96.5768C49.0499 96.5722 49.2133 96.9198 49.2235 97.6197C49.4561 97.5663 49.9796 97.4587 50.794 97.2968C51.625 97.1346 52.5729 96.9791 53.6375 96.8302C54.7021 96.6813 55.626 96.6011 56.4093 96.5897C57.0425 96.5804 57.361 96.7008 57.3646 96.9508C57.3676 97.1507 57.2963 97.4101 57.151 97.729C57.0223 98.0475 56.8663 98.2082 56.683 98.2109C56.6163 98.2118 56.5492 98.1795 56.4815 98.1138C56.4137 98.0314 56.3629 97.9822 56.3294 97.966C56.1784 97.9015 55.9613 97.8714 55.678 97.8755C55.1614 97.883 54.1297 98.0065 52.583 98.2457C51.053 98.4848 49.9475 98.6843 49.2664 98.8442L49.5206 104.266C50.4171 104.02 51.7957 103.683 53.6563 103.256C55.5169 102.828 56.6056 102.612 56.9222 102.608C57.0555 102.606 57.1476 102.63 57.1983 102.679C57.2488 102.711 57.275 102.794 57.2769 102.928C57.2845 103.444 57.1053 103.73 56.7394 103.786ZM62.8026 111.798C61.686 111.814 60.8566 111.518 60.3143 110.909C59.772 110.3 59.4942 109.538 59.4808 108.621C59.4691 107.821 59.5963 106.828 59.8623 105.64C60.145 104.453 60.5462 103.388 61.0658 102.447C61.0982 102.38 61.228 102.137 61.4552 101.717C61.6988 101.28 61.9691 100.951 62.2659 100.73C62.5624 100.492 62.8773 100.371 63.2106 100.366C63.3606 100.364 63.4946 100.403 63.6124 100.485C63.7467 100.55 63.8147 100.64 63.8164 100.757C63.8169 100.79 63.7681 100.874 63.6701 101.009C63.5885 101.127 63.5231 101.22 63.4741 101.287C62.9175 101.979 62.4691 102.66 62.1288 103.332C61.6746 104.189 61.3203 105.036 61.0658 105.873C60.828 106.71 60.7163 107.62 60.7307 108.603C60.7499 109.919 61.5594 110.566 63.1593 110.543C63.9092 110.532 64.5976 110.305 65.2246 109.862C65.8682 109.42 66.3771 108.887 66.7514 108.265C67.1254 107.626 67.3087 107.048 67.3011 106.532C67.2926 105.948 67.0935 105.443 66.7039 105.015C66.3143 104.588 65.7827 104.137 65.109 103.663C64.6711 103.353 64.3507 103.099 64.1478 102.902C63.9449 102.705 63.8425 102.54 63.8405 102.407C63.8376 102.207 63.9769 102.046 64.2585 101.926C64.5399 101.788 64.8722 101.717 65.2555 101.711C65.4722 101.708 65.614 101.722 65.6812 101.755C65.7481 101.771 65.782 101.812 65.783 101.878C65.7835 101.912 65.751 101.97 65.6856 102.055C65.6366 102.122 65.6124 102.181 65.6131 102.231C65.6139 102.281 65.783 102.445 66.1204 102.724C66.795 103.264 67.3614 103.814 67.8197 104.374C68.2779 104.934 68.5126 105.597 68.5238 106.364C68.5333 107.014 68.3026 107.767 67.8317 108.624C67.3609 109.481 66.6883 110.224 65.8141 110.854C64.9396 111.467 63.9358 111.781 62.8026 111.798ZM71.9906 111.364C71.7906 111.367 71.5955 111.136 71.4054 110.672C71.2317 110.191 71.1378 109.468 71.1237 108.501C71.1128 106.618 71.1046 104.343 71.099 101.676C71.11 99.0086 71.1224 96.9998 71.136 95.6495C71.1456 95.166 71.2223 94.7148 71.3662 94.296C71.5268 93.8769 71.8071 93.6645 72.207 93.6586C72.3403 93.6567 72.4247 93.7305 72.4603 93.88C72.5122 94.0126 72.5411 94.2788 72.5469 94.6788C72.5472 94.6955 72.5397 94.7539 72.5245 94.8541C72.5257 94.9375 72.528 95.0958 72.5314 95.3291C72.2955 99.7163 72.2079 103.993 72.2688 108.159C72.2766 108.693 72.4015 109.257 72.6436 109.854C72.9023 110.45 73.0319 110.765 73.0324 110.798C73.0348 110.965 72.9285 111.1 72.7133 111.203C72.4981 111.306 72.2572 111.36 71.9906 111.364ZM76.9949 111.291C76.7949 111.294 76.5999 111.063 76.4097 110.599C76.236 110.118 76.1421 109.395 76.128 108.428C76.1172 106.545 76.1089 104.269 76.1033 101.603C76.1144 98.9355 76.1267 96.9268 76.1403 95.5764C76.1499 95.0929 76.2267 94.6417 76.3706 94.2229C76.5311 93.8038 76.8114 93.5914 77.2114 93.5856C77.3447 93.5836 77.4291 93.6574 77.4646 93.8069C77.5166 93.9395 77.5455 94.2057 77.5513 94.6057C77.5515 94.6224 77.5441 94.6808 77.5289 94.781C77.5301 94.8644 77.5324 95.0227 77.5358 95.256C77.2998 99.6432 77.2123 103.92 77.2731 108.086C77.2809 108.619 77.4059 109.184 77.6479 109.781C77.9067 110.377 78.0363 110.692 78.0368 110.725C78.0392 110.892 77.9328 111.027 77.7176 111.13C77.5025 111.233 77.2615 111.287 76.9949 111.291ZM83.5035 111.496C82.3869 111.512 81.5575 111.216 81.0152 110.607C80.4729 109.998 80.1951 109.235 80.1817 108.319C80.17 107.519 80.2972 106.525 80.5632 105.338C80.8459 104.15 81.2471 103.086 81.7667 102.145C81.7991 102.078 81.9289 101.834 82.1561 101.414C82.3997 100.977 82.67 100.648 82.9668 100.427C83.2633 100.19 83.5783 100.068 83.9116 100.063C84.0615 100.061 84.1955 100.101 84.3133 100.183C84.4476 100.247 84.5156 100.338 84.5173 100.455C84.5178 100.488 84.469 100.572 84.371 100.707C84.2894 100.825 84.2241 100.917 84.175 100.985C83.6184 101.676 83.17 102.358 82.8298 103.03C82.3756 103.886 82.0212 104.733 81.7668 105.57C81.529 106.407 81.4172 107.317 81.4316 108.3C81.4508 109.617 82.2604 110.264 83.8602 110.24C84.6101 110.229 85.2985 110.003 85.9255 109.56C86.5691 109.117 87.078 108.585 87.4523 107.963C87.8263 107.324 88.0096 106.746 88.002 106.229C87.9935 105.646 87.7945 105.141 87.4048 104.713C87.0152 104.285 86.4836 103.835 85.8099 103.361C85.372 103.051 85.0516 102.797 84.8487 102.6C84.6458 102.403 84.5434 102.238 84.5414 102.104C84.5385 101.904 84.6779 101.744 84.9595 101.623C85.2408 101.486 85.5731 101.414 85.9564 101.409C86.1731 101.406 86.315 101.42 86.3821 101.452C86.449 101.468 86.483 101.509 86.4839 101.576C86.4844 101.609 86.4519 101.668 86.3865 101.752C86.3375 101.82 86.3133 101.879 86.3141 101.929C86.3148 101.979 86.4839 102.143 86.8213 102.421C87.4959 102.961 88.0624 103.511 88.5206 104.072C88.9788 104.632 89.2135 105.295 89.2247 106.061C89.2342 106.711 89.0035 107.465 88.5327 108.322C88.0618 109.179 87.3892 109.922 86.515 110.551C85.6405 111.164 84.6367 111.479 83.5035 111.496ZM103.144 111.184C102.644 111.191 102.162 110.715 101.698 109.755C101.234 108.795 100.842 107.634 100.522 106.271C100.219 104.909 100.026 103.67 99.943 102.555C99.5057 103.428 99.0368 104.418 98.5362 105.525C98.0355 106.616 97.6407 107.547 97.3519 108.318C96.9192 109.508 96.5361 110.663 96.2024 111.785C96.1862 111.819 96.1623 111.894 96.1307 112.011C96.0993 112.145 96.0507 112.237 95.9847 112.288C95.9355 112.339 95.8525 112.365 95.7359 112.367C95.4859 112.371 95.2934 112.315 95.1584 112.2C95.0403 112.102 94.9295 111.937 94.8261 111.705L94.6112 110.683C94.2873 109.054 93.9481 107.509 93.5933 106.048C93.2046 104.536 92.8114 103.292 92.4137 102.314C92.016 101.337 91.7172 100.849 91.5173 100.852C91.4506 100.853 91.3515 100.913 91.2198 101.032C91.088 101.134 90.9642 101.219 90.8485 101.287C90.7329 101.356 90.6331 101.374 90.5493 101.342C90.3479 101.245 90.2462 101.129 90.2442 100.996C90.2423 100.863 90.3392 100.653 90.5351 100.367C90.7309 100.08 90.9522 99.8272 91.199 99.6069C91.4623 99.3697 91.6939 99.2497 91.8938 99.2467C92.0438 99.2445 92.1694 99.2844 92.2706 99.3662C92.3883 99.4312 92.5065 99.5378 92.6253 99.6861C92.8461 99.9662 93.1558 100.628 93.5545 101.673C93.9528 102.7 94.3212 103.953 94.6595 105.432L95.7483 109.792C96.4837 107.647 97.1578 105.871 97.7706 104.461C98.3999 103.035 99.1117 101.558 99.9061 100.03C100.214 99.4586 100.544 99.1704 100.894 99.1653C101.127 99.1619 101.32 99.2424 101.472 99.4069C101.625 99.5713 101.702 99.7035 101.703 99.8035C101.704 99.8702 101.663 99.9458 101.581 100.03C101.499 100.115 101.434 100.199 101.385 100.283C101.254 100.468 101.149 100.678 101.069 100.913C101.006 101.147 100.978 101.506 100.985 101.989C100.993 102.573 101.107 103.488 101.325 104.735C101.56 105.965 101.859 107.069 102.223 108.047C102.604 109.025 103.003 109.511 103.42 109.504C103.67 109.501 103.972 109.08 104.327 108.241C104.681 107.403 104.983 106.373 105.232 105.153C105.497 103.915 105.621 102.73 105.605 101.597C105.601 101.363 105.481 101.099 105.243 100.802C105.056 100.555 104.962 100.373 104.96 100.256C104.959 100.156 105.031 100.013 105.179 99.8278C105.342 99.6254 105.508 99.5229 105.674 99.5205C105.891 99.5173 106.093 99.6894 106.282 100.037C106.487 100.384 106.592 100.732 106.597 101.082C106.622 102.782 106.421 104.41 105.993 105.967C105.583 107.506 105.093 108.763 104.523 109.738C103.954 110.697 103.494 111.179 103.144 111.184ZM123.188 110.591C122.905 110.595 122.302 109.862 121.381 108.392C120.475 106.905 119.798 105.623 119.349 104.546C118.911 105.386 118.483 106.292 118.064 107.265C117.645 108.238 117.437 108.858 117.441 109.125C117.442 109.175 117.468 109.241 117.519 109.324C117.57 109.406 117.629 109.464 117.696 109.496C117.713 109.512 117.764 109.545 117.848 109.594C117.932 109.626 117.974 109.675 117.975 109.742C117.976 109.825 117.911 109.951 117.78 110.12C117.666 110.272 117.592 110.373 117.56 110.423C117.511 110.49 117.454 110.566 117.388 110.651C117.323 110.735 117.249 110.844 117.168 110.979C117.103 111.08 116.956 111.315 116.728 111.685C116.5 112.072 116.337 112.266 116.237 112.268C116.037 112.271 115.877 112.198 115.758 112.05C115.64 111.901 115.578 111.702 115.575 111.452C115.566 110.886 115.9 109.731 116.574 107.987C117.249 106.244 117.934 104.634 118.629 103.157C117.337 100.325 116.469 98.4794 116.023 97.6192L115.457 96.5523C115.252 96.1886 115.072 95.8579 114.917 95.5601C114.763 95.2623 114.685 95.0718 114.684 94.9884C114.681 94.7551 114.762 94.6373 114.929 94.6348C115.079 94.6326 115.323 94.8124 115.662 95.1742C116.017 95.519 116.349 95.9726 116.657 96.5348C116.999 97.1465 117.454 98.0233 118.02 99.1652C118.587 100.29 119.017 101.201 119.31 101.897C121.012 98.5881 121.969 96.7739 122.181 96.4541C122.426 96.1005 122.631 95.8641 122.796 95.745C122.961 95.626 123.26 95.5633 123.693 95.5569C123.893 95.554 124.06 95.5766 124.194 95.6246C124.345 95.6724 124.421 95.7296 124.422 95.7963C124.423 95.8796 124.276 96.0568 123.98 96.3278C123.601 96.6834 123.347 96.9621 123.217 97.1641C123.021 97.4336 122.639 98.0893 122.07 99.131C121.502 100.173 120.983 101.155 120.513 102.079L119.978 103.087C120.649 104.511 121.317 105.776 121.984 106.883C122.666 107.99 123.125 108.542 123.358 108.538C123.458 108.537 123.54 108.477 123.605 108.36C123.67 108.225 123.758 107.991 123.87 107.656C123.902 107.572 123.942 107.43 123.989 107.229C124.052 107.011 124.126 106.902 124.209 106.901C124.326 106.899 124.401 106.923 124.435 106.972C124.486 107.005 124.512 107.105 124.515 107.271C124.517 107.454 124.439 107.831 124.281 108.4C124.139 108.952 123.963 109.454 123.753 109.908C123.56 110.36 123.371 110.588 123.188 110.591ZM140.215 114.393C139.699 114.4 139.029 114.21 138.207 113.822C137.401 113.45 136.648 112.695 135.948 111.555C135.248 110.415 134.883 108.803 134.853 106.72C134.821 104.57 135.08 102.325 135.629 99.9831C136.179 97.6415 136.875 95.6894 137.719 94.1269C138.579 92.5475 139.41 91.752 140.209 91.7403C140.576 91.735 140.762 91.9239 140.768 92.3072C140.77 92.4239 140.663 92.5254 140.447 92.6119C140.232 92.6818 140.033 92.768 139.851 92.8707C139.669 92.9733 139.497 93.1592 139.334 93.4283C138.472 94.8744 137.69 96.7026 136.989 98.9131C136.304 101.107 135.983 103.678 136.026 106.628C136.048 108.111 136.199 109.284 136.478 110.147C136.757 111.009 137.208 111.661 137.832 112.102C138.455 112.543 139.326 112.847 140.445 113.014C140.662 113.044 140.838 113.108 140.973 113.206C141.108 113.304 141.176 113.42 141.178 113.553C141.182 113.787 141.084 113.98 140.887 114.133C140.706 114.302 140.482 114.389 140.215 114.393ZM158.324 95.5762C158.274 95.5769 158.099 95.5378 157.798 95.4588C157.513 95.363 157.245 95.3169 156.995 95.3205C156.195 95.3322 155.288 95.3872 154.273 95.4853C153.257 95.5835 152.417 95.7124 151.753 95.8722C151.815 96.6713 151.875 97.9373 151.933 99.6699C152.008 101.386 152.06 103.193 152.088 105.093C152.099 105.893 152.096 106.785 152.077 107.769C152.074 108.752 152.05 109.361 152.003 109.595C151.973 109.779 151.858 109.93 151.66 110.05C151.478 110.169 151.288 110.23 151.088 110.233C150.971 110.235 150.87 110.187 150.785 110.088C150.701 109.989 150.657 109.873 150.655 109.74L150.668 108.864C150.749 107.563 150.775 105.963 150.747 104.063C150.727 102.696 150.688 101.138 150.629 99.3889C150.57 97.623 150.521 96.5319 150.481 96.1158C147.154 96.5311 144.934 96.9052 143.822 97.2381C143.623 97.3077 143.399 97.3443 143.149 97.348C142.849 97.3524 142.555 97.2483 142.269 97.0358C141.982 96.8233 141.837 96.5921 141.834 96.3421C141.831 96.1754 141.88 96.058 141.979 95.9899C142.077 95.9051 142.202 95.8616 142.352 95.8595C143.301 95.7956 144.1 95.7339 144.749 95.6744C146.23 95.5194 148.094 95.2839 150.34 94.9677C150.332 94.4511 150.335 94.0843 150.348 93.8675C150.379 93.6503 150.435 93.5412 150.519 93.5399C150.835 93.5353 151.12 93.6562 151.374 93.9025C151.425 93.9517 151.468 94.0845 151.505 94.3006C151.541 94.5001 151.56 94.6332 151.561 94.6998C151.927 94.6778 152.526 94.5857 153.357 94.4236C155.153 94.114 156.384 93.9543 157.05 93.9446C157.85 93.9329 158.385 94.0251 158.655 94.2212C158.84 94.3518 158.935 94.5921 158.94 94.9421C158.942 95.0754 158.886 95.2179 158.771 95.3696C158.657 95.5046 158.508 95.5735 158.324 95.5762ZM172.766 110.167C172.266 110.174 171.784 109.698 171.32 108.738C170.856 107.778 170.464 106.617 170.144 105.255C169.841 103.892 169.647 102.653 169.564 101.538C169.127 102.411 168.658 103.401 168.158 104.508C167.657 105.599 167.262 106.53 166.973 107.301C166.541 108.491 166.158 109.647 165.824 110.768C165.808 110.802 165.784 110.877 165.752 110.994C165.721 111.128 165.672 111.221 165.606 111.271C165.557 111.322 165.474 111.348 165.357 111.35C165.107 111.354 164.915 111.298 164.78 111.184C164.662 111.085 164.551 110.92 164.448 110.688L164.233 109.666C163.909 108.038 163.57 106.492 163.215 105.031C162.826 103.52 162.433 102.275 162.035 101.298C161.638 100.32 161.339 99.8326 161.139 99.8355C161.072 99.8365 160.973 99.8963 160.841 100.015C160.709 100.117 160.586 100.202 160.47 100.27C160.354 100.339 160.255 100.357 160.171 100.325C159.969 100.228 159.868 100.112 159.866 99.9791C159.864 99.8458 159.961 99.636 160.157 99.3498C160.352 99.0636 160.574 98.8103 160.821 98.59C161.084 98.3528 161.315 98.2328 161.515 98.2298C161.665 98.2276 161.791 98.2675 161.892 98.3493C162.01 98.4143 162.128 98.5209 162.247 98.6692C162.468 98.9493 162.777 99.6116 163.176 100.656C163.574 101.683 163.943 102.937 164.281 104.415L165.37 108.775C166.105 106.63 166.779 104.854 167.392 103.445C168.021 102.019 168.733 100.541 169.528 99.0129C169.836 98.4417 170.165 98.1535 170.515 98.1484C170.748 98.145 170.941 98.2255 171.094 98.39C171.246 98.5544 171.323 98.6867 171.324 98.7866C171.325 98.8533 171.285 98.9289 171.203 99.0134C171.121 99.098 171.055 99.1823 171.006 99.2663C170.876 99.4516 170.771 99.6615 170.691 99.896C170.627 100.13 170.599 100.489 170.606 100.972C170.615 101.556 170.728 102.471 170.946 103.718C171.181 104.948 171.481 106.052 171.845 107.03C172.226 108.008 172.625 108.494 173.041 108.488C173.291 108.484 173.594 108.063 173.948 107.224C174.302 106.386 174.604 105.356 174.853 104.136C175.118 102.898 175.243 101.713 175.226 100.58C175.223 100.347 175.102 100.082 174.864 99.785C174.677 99.5378 174.583 99.3558 174.581 99.2391C174.58 99.1391 174.653 98.9964 174.8 98.8109C174.964 98.6085 175.129 98.506 175.296 98.5036C175.512 98.5004 175.715 98.6725 175.903 99.0198C176.108 99.3668 176.214 99.7153 176.219 100.065C176.244 101.765 176.042 103.393 175.615 104.95C175.204 106.489 174.714 107.746 174.145 108.722C173.575 109.68 173.116 110.162 172.766 110.167ZM179.362 94.6438C179.079 94.648 178.785 94.5356 178.482 94.3066C178.195 94.0775 178.051 93.8879 178.049 93.7379C178.046 93.5546 178.127 93.3784 178.291 93.2093C178.472 93.04 178.654 92.954 178.837 92.9513C179.089 93.031 179.299 93.1612 179.468 93.3421C179.603 93.4735 179.756 93.6463 179.926 93.8605C180.096 94.0747 180.181 94.2068 180.182 94.2568C180.185 94.5068 179.912 94.6358 179.362 94.6438ZM180.344 110.481C180.11 110.468 179.93 110.096 179.802 109.364C179.691 108.632 179.563 107.242 179.416 105.194C179.33 103.845 179.252 102.53 179.184 101.247C179.115 99.948 179.067 98.9486 179.04 98.2489C179.037 98.0656 179.06 97.9319 179.109 97.8479C179.174 97.7469 179.29 97.6952 179.457 97.6928C179.84 97.6872 180.084 97.8419 180.189 98.1571C180.293 98.4723 180.352 99.0798 180.365 99.9797L180.383 102.93C180.408 104.613 180.478 105.962 180.592 106.977C180.593 107.027 180.676 107.559 180.841 108.574C180.968 109.272 181.033 109.738 181.036 109.971C181.039 110.138 180.965 110.264 180.817 110.349C180.685 110.451 180.527 110.495 180.344 110.481ZM193.466 100.363C191.937 100.652 191.081 100.815 190.898 100.851L189.278 101.15C189.29 102.016 189.312 102.924 189.342 103.874C189.39 104.823 189.443 105.656 189.504 106.372C189.585 107.338 189.712 108.077 189.886 108.592C190.06 109.106 190.156 109.396 190.174 109.462C190.176 109.629 190.07 109.781 189.856 109.917C189.658 110.07 189.467 110.148 189.284 110.151C189.184 110.152 189.1 110.12 189.033 110.054C188.965 110.005 188.905 109.914 188.854 109.782C188.75 109.55 188.644 109.118 188.535 108.486C188.442 107.854 188.365 107.155 188.304 106.389C188.244 105.707 188.191 104.916 188.144 104.017C188.114 103.1 188.093 102.217 188.081 101.367C187.15 101.531 186.194 101.728 185.214 101.959C184.333 102.155 183.81 102.255 183.643 102.257C183.443 102.26 183.251 102.204 183.066 102.091C182.897 101.976 182.812 101.819 182.809 101.619C182.806 101.403 182.878 101.26 183.027 101.191C183.176 101.122 183.426 101.085 183.776 101.08C184.026 101.076 184.392 101.029 184.874 100.939C185.356 100.832 185.663 100.761 185.796 100.725C186.909 100.493 187.666 100.34 188.065 100.267C188.059 99.9174 188.036 99.4593 187.994 98.8932C187.95 98.1271 187.925 97.5441 187.919 97.1441C187.909 96.4942 187.919 95.994 187.947 95.6435C187.992 95.2762 188.07 94.95 188.183 94.665C188.311 94.3298 188.559 94.1595 188.925 94.1541C189.075 94.1519 189.176 94.1754 189.226 94.2247C189.277 94.274 189.303 94.3653 189.305 94.4986C189.307 94.5986 189.269 94.8908 189.193 95.3753C189.117 95.8598 189.085 96.502 189.096 97.3019C189.105 97.9185 189.132 98.6099 189.177 99.376L189.211 100.051C189.96 99.9229 191.438 99.593 193.647 99.0607C193.78 99.0254 193.887 98.9071 193.967 98.7059C194.064 98.5045 194.163 98.4031 194.263 98.4016C194.446 98.3989 194.631 98.5046 194.818 98.7185C195.021 98.9156 195.124 99.1224 195.127 99.3391C195.131 99.6224 195.009 99.8409 194.761 99.9945C194.53 100.148 194.099 100.271 193.466 100.363ZM205.819 100.183C204.289 100.472 203.433 100.635 203.251 100.671L201.63 100.969C201.642 101.836 201.664 102.744 201.695 103.694C201.742 104.643 201.796 105.476 201.856 106.192C201.937 107.157 202.064 107.897 202.238 108.411C202.413 108.925 202.509 109.216 202.526 109.282C202.529 109.449 202.423 109.6 202.208 109.737C202.01 109.89 201.819 109.967 201.636 109.97C201.536 109.972 201.452 109.939 201.385 109.874C201.317 109.825 201.258 109.734 201.206 109.601C201.102 109.37 200.996 108.938 200.887 108.306C200.794 107.674 200.717 106.975 200.656 106.209C200.596 105.527 200.543 104.736 200.496 103.836C200.466 102.92 200.445 102.037 200.433 101.187C199.502 101.35 198.546 101.548 197.566 101.779C196.686 101.975 196.162 102.074 195.995 102.077C195.795 102.08 195.603 102.024 195.418 101.91C195.249 101.796 195.164 101.639 195.161 101.439C195.158 101.222 195.231 101.079 195.38 101.011C195.529 100.942 195.778 100.905 196.128 100.9C196.378 100.896 196.744 100.849 197.226 100.759C197.708 100.652 198.015 100.58 198.148 100.545C199.262 100.312 200.018 100.159 200.417 100.087C200.412 99.7369 200.388 99.2789 200.347 98.7128C200.302 97.9467 200.277 97.3637 200.271 96.9637C200.262 96.3138 200.271 95.8136 200.299 95.4631C200.344 95.0958 200.422 94.7696 200.535 94.4846C200.663 94.1493 200.911 93.979 201.278 93.9737C201.427 93.9715 201.528 93.995 201.579 94.0443C201.629 94.0936 201.656 94.1848 201.658 94.3182C201.659 94.4182 201.622 94.7104 201.545 95.1949C201.469 95.6794 201.437 96.3216 201.449 97.1215C201.458 97.7381 201.484 98.4295 201.529 99.1956L201.564 99.8701C202.312 99.7425 203.791 99.4126 206 98.8802C206.133 98.845 206.239 98.7267 206.32 98.5255C206.417 98.3241 206.515 98.2226 206.615 98.2212C206.798 98.2185 206.983 98.3241 207.17 98.5381C207.373 98.7352 207.476 98.942 207.479 99.1587C207.483 99.442 207.361 99.6604 207.113 99.8141C206.882 99.9675 206.451 100.09 205.819 100.183ZM218.445 103.349C218.449 103.649 218.234 104.31 217.799 105.334C217.38 106.356 216.727 107.308 215.84 108.188C214.97 109.067 213.884 109.516 212.584 109.535C211.518 109.551 210.622 109.231 209.895 108.574C209.169 107.918 208.796 106.899 208.775 105.515C208.756 104.216 209.038 102.928 209.619 101.653C210.2 100.361 210.968 99.3077 211.923 98.4937C212.878 97.663 213.872 97.2401 214.905 97.225C215.522 97.216 216.04 97.3501 216.461 97.6273C216.898 97.8876 217.121 98.2761 217.128 98.7927C217.137 99.376 216.812 99.9474 216.153 100.507C215.511 101.067 214.668 101.562 213.624 101.994C212.581 102.426 211.502 102.742 210.388 102.942C210.199 103.711 210.11 104.462 210.121 105.196C210.135 106.162 210.371 106.909 210.829 107.436C211.303 107.962 211.965 108.219 212.815 108.207C214.098 108.188 215.133 107.714 215.92 106.786C216.706 105.858 217.358 104.815 217.874 103.657C217.907 103.59 217.963 103.464 218.044 103.28C218.124 103.079 218.198 102.978 218.264 102.977C218.381 102.975 218.441 103.099 218.445 103.349ZM214.62 98.2543C213.987 98.2635 213.381 98.4807 212.804 98.9059C212.227 99.331 211.743 99.8381 211.351 100.427C210.977 101.016 210.734 101.536 210.624 101.988C211.389 101.894 212.195 101.665 213.039 101.303C213.884 100.94 214.587 100.547 215.147 100.122C215.724 99.6966 216.011 99.3507 216.007 99.0841C216.003 98.8175 215.859 98.6112 215.573 98.4654C215.304 98.3193 214.987 98.2489 214.62 98.2543ZM228.086 99.4827C227.969 99.4844 227.852 99.4362 227.734 99.3379C227.632 99.2393 227.514 99.0994 227.378 98.918C227.259 98.7531 227.098 98.6137 226.897 98.5C226.712 98.386 226.519 98.3305 226.319 98.3334C225.836 98.3405 225.195 98.9916 224.397 100.287C223.599 101.565 222.823 103.177 222.068 105.121C222.09 105.504 222.122 105.987 222.164 106.57C222.222 107.153 222.262 107.585 222.283 107.868L222.372 108.867C222.376 109.1 222.329 109.301 222.231 109.469C222.134 109.654 221.952 109.748 221.685 109.752C221.402 109.756 221.213 109.384 221.119 108.635C221.024 107.87 220.958 106.763 220.92 105.313C220.898 104.947 220.874 104.422 220.847 103.739C220.837 103.056 220.809 102.239 220.762 101.29C220.691 99.8575 220.651 98.8329 220.642 98.2163C220.636 97.833 220.867 97.638 221.333 97.6312C221.617 97.627 221.785 97.7496 221.839 97.9988C221.909 98.2312 221.949 98.689 221.959 99.3722L222.017 103.347C222.498 102.056 223.023 100.94 223.593 99.9984C224.163 99.0567 224.719 98.3401 225.262 97.8488C225.821 97.3406 226.317 97.0833 226.751 97.077C227.117 97.0716 227.469 97.1498 227.804 97.3116C228.14 97.4734 228.41 97.6862 228.614 97.9499C228.817 98.1969 228.921 98.4371 228.924 98.6704C228.926 98.8204 228.821 98.997 228.607 99.2001C228.41 99.3863 228.236 99.4806 228.086 99.4827ZM231.664 113.282C231.398 113.286 231.163 113.206 230.961 113.042C230.775 112.895 230.681 112.705 230.678 112.471C230.676 112.338 230.741 112.22 230.872 112.118C231.004 112.016 231.178 111.947 231.394 111.911C234.553 111.331 236.099 108.792 236.034 104.292C235.948 98.4595 235.19 94.4285 233.757 92.1991C233.62 91.9678 233.468 91.8033 233.3 91.7058C233.148 91.5913 232.954 91.4691 232.719 91.3392C232.602 91.2909 232.501 91.2424 232.417 91.1936C232.349 91.1279 232.315 91.0534 232.314 90.9701C232.308 90.5868 232.489 90.3925 232.855 90.3871C233.639 90.3757 234.357 91.0569 235.01 92.4309C235.664 93.8048 236.181 95.5724 236.563 97.7338C236.961 99.8948 237.177 102.1 237.21 104.35C237.24 106.433 236.89 108.138 236.159 109.466C235.429 110.793 234.609 111.755 233.701 112.352C232.793 112.965 232.114 113.275 231.664 113.282Z" fill="white"/>
<defs>
<linearGradient id="paint0_linear_9_465" x1="18.5223" y1="105.721" x2="264.947" y2="105.721" gradientUnits="userSpaceOnUse">
<stop stop-color="#72159E"/>
<stop offset="1" stop-color="#080838"/>
</linearGradient>
</defs>
</svg>
