<svg width="365" height="284" viewBox="0 0 365 284" fill="none" xmlns="http://www.w3.org/2000/svg">
<rect width="308.859" height="88.2875" rx="44.1438" transform="matrix(1 0 0.00574067 0.999984 27.7505 97.7441)" fill="url(#paint0_linear_504_10)"/>
<path d="M87.6241 147.228C87.067 147.308 85.749 147.617 83.6699 148.154C81.6101 148.67 80.096 149.076 79.1277 149.372C79.1464 149.811 79.1859 150.741 79.2463 152.159C79.3257 153.557 79.4063 154.745 79.4879 155.723C79.524 156.102 79.5819 156.52 79.6614 156.977C79.7609 157.434 79.8249 157.762 79.8533 157.961C80.0039 158.676 80.0821 159.103 80.088 159.243C80.0974 159.463 80.0011 159.787 79.7991 160.214C79.6179 160.661 79.4574 160.887 79.3175 160.893C79.1776 160.898 79.0447 160.833 78.9188 160.697C78.7929 160.562 78.7058 160.395 78.6573 160.196C78.4192 159.305 78.2172 157.851 78.0514 155.836C77.847 153.382 77.7154 151.465 77.6567 150.087C77.5377 150.111 77.3395 150.158 77.0623 150.229C76.8041 150.278 76.5756 150.316 76.3765 150.344C76.1767 150.351 75.9647 150.309 75.7406 150.217C75.5165 150.125 75.4015 150.01 75.3955 149.87C75.3887 149.71 75.4336 149.588 75.5301 149.504C75.6466 149.42 75.774 149.355 75.9122 149.31C76.0496 149.245 76.1478 149.202 76.2069 149.179C76.9137 148.853 77.3853 148.646 77.6217 148.557L77.0976 141.882C75.6288 142.176 74.5446 142.336 73.8451 142.362C73.0656 142.391 72.5179 142.221 72.2019 141.852C71.906 141.483 71.7512 141.138 71.7376 140.818C71.73 140.639 71.856 140.544 72.1159 140.534C72.1558 140.533 72.3887 140.594 72.8143 140.719C73.26 140.842 73.6427 140.898 73.9625 140.886C74.602 140.863 75.6171 140.725 77.0077 140.474C77.006 140.434 77.0096 140.284 77.0185 140.023C77.0266 139.743 77.1059 139.49 77.2564 139.264C77.3487 139.081 77.4336 138.957 77.511 138.894C77.5884 138.832 77.677 138.798 77.777 138.795C78.1567 138.781 78.3644 139.193 78.4001 140.033C78.6774 139.962 79.3019 139.819 80.2735 139.603C81.2652 139.387 82.3972 139.175 83.6695 138.968C84.9419 138.761 86.0477 138.64 86.9871 138.605C87.7466 138.577 88.1327 138.713 88.1454 139.013C88.1556 139.253 88.0789 139.566 87.9151 139.952C87.7714 140.338 87.5896 140.534 87.3698 140.543C87.2898 140.545 87.2082 140.508 87.1248 140.431C87.0406 140.335 86.9781 140.277 86.9373 140.258C86.754 140.185 86.4925 140.155 86.1527 140.167C85.5331 140.19 84.2995 140.365 82.4518 140.694C80.6241 141.021 79.3044 141.29 78.4926 141.5L78.9791 147.996C80.0465 147.677 81.6892 147.236 83.9073 146.674C86.1254 146.112 87.4243 145.824 87.804 145.81C87.9639 145.804 88.0751 145.83 88.1376 145.888C88.1993 145.926 88.2335 146.024 88.2403 146.184C88.2666 146.804 88.0612 147.151 87.6241 147.228ZM95.1669 156.676C93.8279 156.725 92.8228 156.392 92.1518 155.676C91.4808 154.961 91.1219 154.053 91.0751 152.954C91.0343 151.995 91.1537 150.8 91.4331 149.369C91.7325 147.937 92.1782 146.65 92.7701 145.507C92.8067 145.426 92.9543 145.13 93.2128 144.62C93.4905 144.089 93.8037 143.688 94.1524 143.415C94.5003 143.122 94.8741 142.968 95.2738 142.953C95.4537 142.946 95.6157 142.991 95.7599 143.085C95.9232 143.159 96.0078 143.266 96.0137 143.406C96.0154 143.446 95.9597 143.548 95.8466 143.712C95.7526 143.856 95.6774 143.969 95.6208 144.051C94.9761 144.895 94.4609 145.725 94.0752 146.54C93.5589 147.579 93.1621 148.605 92.8848 149.615C92.6275 150.626 92.524 151.72 92.5741 152.899C92.6413 154.478 93.6342 155.232 95.5529 155.161C96.4523 155.128 97.2707 154.837 98.0081 154.29C98.7654 153.742 99.3582 153.089 99.7865 152.333C100.214 151.557 100.414 150.859 100.388 150.24C100.358 149.54 100.103 148.939 99.6207 148.437C99.1389 147.934 98.486 147.408 97.6619 146.858C97.1261 146.497 96.7332 146.201 96.4831 145.971C96.2331 145.74 96.1047 145.544 96.0979 145.384C96.0877 145.145 96.2495 144.948 96.5833 144.796C96.9163 144.624 97.3126 144.529 97.7723 144.512C98.0321 144.503 98.2029 144.516 98.2845 144.553C98.3653 144.57 98.4074 144.619 98.4108 144.699C98.4125 144.739 98.3755 144.81 98.2998 144.913C98.2432 144.995 98.2162 145.066 98.2188 145.126C98.2213 145.186 98.4297 145.378 98.8439 145.703C99.6714 146.333 100.369 146.978 100.938 147.638C101.506 148.297 101.81 149.086 101.849 150.006C101.883 150.785 101.631 151.695 101.095 152.735C100.558 153.776 99.7764 154.685 98.7486 155.463C97.7199 156.222 96.526 156.626 95.1669 156.676ZM106.176 155.91C105.936 155.919 105.695 155.648 105.451 155.096C105.226 154.524 105.09 153.659 105.04 152.5C104.964 150.241 104.878 147.512 104.782 144.314C104.706 141.115 104.654 138.705 104.625 137.085C104.62 136.505 104.697 135.961 104.856 135.455C105.034 134.948 105.363 134.686 105.843 134.668C106.003 134.662 106.107 134.749 106.154 134.927C106.221 135.085 106.265 135.403 106.285 135.883C106.286 135.903 106.279 135.973 106.264 136.094C106.268 136.194 106.276 136.384 106.288 136.663C106.152 141.932 106.19 147.064 106.403 152.059C106.43 152.699 106.599 153.373 106.909 154.082C107.24 154.79 107.406 155.164 107.407 155.204C107.416 155.404 107.293 155.569 107.038 155.698C106.783 155.828 106.496 155.898 106.176 155.91ZM112.178 155.689C111.938 155.698 111.696 155.427 111.453 154.875C111.228 154.303 111.091 153.438 111.042 152.279C110.966 150.02 110.88 147.291 110.784 144.093C110.708 140.893 110.655 138.484 110.627 136.864C110.622 136.283 110.699 135.74 110.857 135.234C111.036 134.727 111.365 134.465 111.845 134.447C112.005 134.441 112.109 134.528 112.156 134.706C112.223 134.864 112.267 135.182 112.287 135.662C112.288 135.682 112.281 135.752 112.266 135.873C112.27 135.973 112.278 136.162 112.29 136.442C112.154 141.711 112.192 146.843 112.405 151.838C112.432 152.478 112.601 153.152 112.911 153.861C113.241 154.569 113.407 154.943 113.409 154.983C113.418 155.183 113.294 155.348 113.04 155.477C112.785 155.607 112.498 155.677 112.178 155.689ZM119.994 155.761C118.655 155.811 117.65 155.477 116.979 154.762C116.308 154.046 115.949 153.138 115.902 152.039C115.861 151.08 115.981 149.885 116.26 148.454C116.559 147.022 117.005 145.735 117.597 144.592C117.634 144.511 117.781 144.215 118.04 143.705C118.317 143.175 118.631 142.773 118.979 142.5C119.327 142.207 119.701 142.053 120.101 142.038C120.281 142.032 120.443 142.076 120.587 142.17C120.75 142.244 120.835 142.351 120.841 142.491C120.842 142.531 120.787 142.633 120.674 142.798C120.58 142.941 120.504 143.054 120.448 143.136C119.803 143.98 119.288 144.81 118.902 145.625C118.386 146.664 117.989 147.69 117.712 148.701C117.454 149.711 117.351 150.805 117.401 151.984C117.468 153.563 118.461 154.317 120.38 154.246C121.279 154.213 122.098 153.923 122.835 153.375C123.592 152.827 124.185 152.175 124.613 151.418C125.041 150.642 125.241 149.944 125.215 149.325C125.185 148.625 124.929 148.024 124.448 147.522C123.966 147.019 123.313 146.493 122.489 145.943C121.953 145.582 121.56 145.287 121.31 145.056C121.06 144.825 120.932 144.629 120.925 144.469C120.915 144.23 121.076 144.034 121.41 143.881C121.743 143.709 122.14 143.614 122.599 143.597C122.859 143.588 123.03 143.601 123.111 143.638C123.192 143.655 123.234 143.704 123.238 143.784C123.239 143.824 123.202 143.895 123.127 143.998C123.07 144.08 123.043 144.151 123.046 144.211C123.048 144.271 123.257 144.464 123.671 144.789C124.498 145.419 125.196 146.063 125.765 146.723C126.333 147.382 126.637 148.172 126.676 149.091C126.709 149.87 126.458 150.78 125.922 151.82C125.385 152.861 124.603 153.77 123.575 154.549C122.547 155.307 121.353 155.711 119.994 155.761ZM143.549 154.863C142.949 154.885 142.355 154.327 141.766 153.188C141.177 152.049 140.668 150.667 140.238 149.041C139.829 147.415 139.556 145.934 139.419 144.599C138.923 145.658 138.394 146.858 137.83 148.199C137.266 149.521 136.824 150.648 136.503 151.581C136.024 153.019 135.603 154.416 135.24 155.77C135.221 155.811 135.195 155.902 135.161 156.043C135.128 156.204 135.073 156.316 134.995 156.379C134.938 156.441 134.839 156.475 134.699 156.48C134.4 156.491 134.167 156.43 134.001 156.296C133.856 156.181 133.718 155.986 133.586 155.711L133.294 154.491C132.851 152.546 132.392 150.701 131.917 148.958C131.4 147.156 130.887 145.673 130.377 144.511C129.867 143.349 129.492 142.773 129.252 142.782C129.173 142.785 129.056 142.859 128.902 143.005C128.747 143.131 128.601 143.236 128.465 143.321C128.328 143.406 128.209 143.431 128.107 143.394C127.863 143.283 127.737 143.148 127.73 142.988C127.723 142.828 127.832 142.574 128.058 142.225C128.283 141.877 128.54 141.567 128.829 141.296C129.137 141.005 129.411 140.855 129.651 140.846C129.83 140.839 129.982 140.884 130.107 140.979C130.25 141.054 130.395 141.179 130.543 141.353C130.817 141.683 131.211 142.469 131.724 143.711C132.237 144.933 132.72 146.426 133.176 148.191L134.628 153.391C135.439 150.799 136.188 148.65 136.876 146.944C137.583 145.217 138.388 143.426 139.29 141.571C139.641 140.878 140.026 140.523 140.446 140.508C140.726 140.498 140.96 140.589 141.148 140.782C141.336 140.976 141.433 141.132 141.438 141.252C141.442 141.332 141.396 141.424 141.3 141.527C141.204 141.631 141.128 141.734 141.073 141.836C140.922 142.062 140.803 142.316 140.715 142.6C140.647 142.882 140.625 143.313 140.65 143.893C140.68 144.592 140.846 145.687 141.15 147.177C141.473 148.646 141.869 149.962 142.339 151.125C142.829 152.288 143.323 152.86 143.823 152.842C144.123 152.831 144.471 152.318 144.868 151.302C145.266 150.287 145.593 149.044 145.851 147.574C146.128 146.082 146.237 144.658 146.179 143.299C146.168 143.019 146.014 142.704 145.719 142.355C145.486 142.063 145.367 141.848 145.361 141.708C145.356 141.588 145.439 141.415 145.609 141.188C145.799 140.941 145.994 140.814 146.194 140.807C146.453 140.797 146.702 140.998 146.94 141.409C147.198 141.82 147.335 142.235 147.353 142.655C147.44 144.693 147.253 146.651 146.792 148.53C146.351 150.387 145.805 151.908 145.155 153.093C144.504 154.258 143.968 154.848 143.549 154.863ZM167.577 153.618C167.237 153.63 166.49 152.767 165.335 151.028C164.199 149.269 163.344 147.75 162.769 146.47C162.272 147.489 161.788 148.587 161.318 149.766C160.847 150.944 160.619 151.693 160.633 152.012C160.635 152.072 160.669 152.151 160.733 152.249C160.797 152.346 160.87 152.414 160.952 152.451C160.972 152.47 161.034 152.508 161.137 152.564C161.238 152.6 161.291 152.658 161.294 152.738C161.298 152.838 161.225 152.991 161.073 153.197C160.941 153.382 160.856 153.505 160.819 153.566C160.762 153.649 160.696 153.741 160.62 153.844C160.545 153.947 160.46 154.08 160.367 154.244C160.292 154.366 160.124 154.653 159.863 155.103C159.603 155.573 159.413 155.81 159.293 155.814C159.053 155.823 158.859 155.74 158.712 155.565C158.564 155.391 158.484 155.153 158.471 154.854C158.443 154.174 158.804 152.78 159.555 150.671C160.306 148.562 161.074 146.612 161.858 144.822C160.214 141.461 159.11 139.27 158.546 138.25L157.831 136.985C157.573 136.555 157.346 136.163 157.151 135.81C156.956 135.457 156.856 135.23 156.852 135.13C156.84 134.851 156.934 134.707 157.134 134.7C157.314 134.693 157.613 134.902 158.031 135.327C158.469 135.731 158.882 136.266 159.271 136.932C159.702 137.657 160.276 138.697 160.995 140.051C161.712 141.385 162.258 142.466 162.634 143.293C164.565 139.279 165.652 137.078 165.896 136.688C166.178 136.258 166.416 135.969 166.61 135.821C166.804 135.674 167.161 135.591 167.68 135.572C167.92 135.563 168.121 135.586 168.284 135.64C168.466 135.693 168.559 135.76 168.562 135.84C168.567 135.939 168.396 136.156 168.049 136.489C167.608 136.925 167.312 137.267 167.162 137.512C166.936 137.841 166.499 138.637 165.853 139.902C165.206 141.167 164.616 142.359 164.083 143.48L163.474 144.703C164.327 146.393 165.172 147.892 166.008 149.202C166.864 150.512 167.432 151.161 167.712 151.151C167.832 151.147 167.929 151.073 168.003 150.93C168.076 150.767 168.174 150.484 168.297 150.079C168.333 149.977 168.376 149.806 168.425 149.564C168.494 149.301 168.579 149.168 168.679 149.164C168.819 149.159 168.91 149.186 168.952 149.244C169.014 149.282 169.049 149.401 169.058 149.6C169.067 149.82 168.986 150.274 168.815 150.96C168.663 151.626 168.469 152.234 168.232 152.783C168.015 153.331 167.797 153.61 167.577 153.618ZM179.526 158.041C178.907 158.063 178.097 157.853 177.097 157.41C176.119 156.985 175.19 156.099 174.312 154.75C173.434 153.402 172.942 151.479 172.835 148.981C172.726 146.403 172.961 143.703 173.542 140.88C174.122 138.056 174.893 135.696 175.853 133.8C176.832 131.882 177.802 130.906 178.761 130.871C179.201 130.855 179.43 131.076 179.45 131.536C179.456 131.676 179.331 131.8 179.075 131.91C178.819 131.999 178.583 132.108 178.369 132.236C178.154 132.364 177.953 132.592 177.767 132.919C176.781 134.676 175.904 136.89 175.137 139.56C174.389 142.209 174.09 145.302 174.241 148.839C174.316 150.617 174.536 152.02 174.9 153.048C175.264 154.075 175.827 154.845 176.59 155.357C177.352 155.869 178.408 156.211 179.756 156.381C180.018 156.411 180.231 156.484 180.396 156.598C180.561 156.712 180.647 156.848 180.654 157.008C180.665 157.288 180.555 157.522 180.323 157.711C180.112 157.919 179.846 158.029 179.526 158.041ZM200.624 134.988C200.564 134.991 200.352 134.948 199.988 134.862C199.643 134.754 199.321 134.706 199.021 134.717C198.061 134.753 196.974 134.843 195.759 134.987C194.544 135.132 193.541 135.309 192.749 135.519C192.85 136.476 192.965 137.992 193.093 140.069C193.24 142.125 193.363 144.292 193.46 146.57C193.5 147.529 193.526 148.599 193.536 149.779C193.566 150.959 193.557 151.69 193.509 151.972C193.478 152.193 193.346 152.378 193.112 152.527C192.898 152.675 192.672 152.753 192.432 152.762C192.292 152.767 192.169 152.711 192.064 152.595C191.959 152.479 191.903 152.341 191.897 152.181L191.882 151.131C191.936 149.568 191.914 147.647 191.817 145.37C191.747 143.731 191.648 141.863 191.519 139.767C191.389 137.65 191.293 136.343 191.232 135.845C187.253 136.432 184.602 136.94 183.279 137.369C183.043 137.457 182.775 137.507 182.475 137.518C182.115 137.532 181.76 137.415 181.409 137.167C181.058 136.92 180.877 136.647 180.864 136.347C180.855 136.147 180.909 136.005 181.026 135.921C181.142 135.816 181.289 135.761 181.469 135.754C182.606 135.652 183.563 135.557 184.34 135.468C186.112 135.243 188.339 134.911 191.023 134.472C190.997 133.852 190.988 133.412 190.997 133.152C191.026 132.89 191.09 132.758 191.19 132.754C191.57 132.74 191.916 132.878 192.229 133.166C192.291 133.224 192.348 133.382 192.399 133.64C192.449 133.879 192.476 134.038 192.479 134.118C192.918 134.082 193.634 133.955 194.625 133.738C196.769 133.319 198.241 133.095 199.041 133.065C200 133.03 200.645 133.126 200.975 133.354C201.201 133.506 201.323 133.792 201.341 134.211C201.348 134.371 201.285 134.544 201.153 134.729C201.02 134.894 200.844 134.98 200.624 134.988ZM218.439 152.104C217.84 152.126 217.245 151.567 216.656 150.428C216.067 149.289 215.558 147.907 215.129 146.282C214.719 144.656 214.446 143.175 214.309 141.839C213.814 142.898 213.284 144.098 212.721 145.44C212.157 146.761 211.714 147.889 211.393 148.821C210.914 150.26 210.493 151.656 210.13 153.01C210.112 153.051 210.086 153.142 210.052 153.283C210.019 153.445 209.963 153.557 209.886 153.62C209.829 153.682 209.73 153.715 209.59 153.721C209.29 153.732 209.057 153.67 208.892 153.536C208.747 153.421 208.608 153.226 208.476 152.951L208.184 151.731C207.741 149.786 207.282 147.942 206.808 146.198C206.291 144.396 205.777 142.914 205.268 141.752C204.758 140.59 204.383 140.013 204.143 140.022C204.063 140.025 203.946 140.099 203.792 140.245C203.637 140.371 203.492 140.476 203.355 140.561C203.219 140.647 203.1 140.671 202.998 140.635C202.753 140.524 202.627 140.388 202.62 140.228C202.614 140.068 202.723 139.814 202.948 139.466C203.174 139.117 203.431 138.808 203.72 138.537C204.027 138.245 204.301 138.095 204.541 138.086C204.721 138.08 204.873 138.124 204.997 138.219C205.14 138.294 205.286 138.419 205.433 138.594C205.708 138.924 206.102 139.71 206.615 140.952C207.127 142.174 207.611 143.667 208.066 145.431L209.519 150.631C210.329 148.04 211.079 145.891 211.767 144.184C212.474 142.457 213.279 140.666 214.181 138.812C214.531 138.118 214.917 137.764 215.336 137.748C215.616 137.738 215.85 137.83 216.039 138.023C216.227 138.216 216.324 138.372 216.329 138.492C216.332 138.572 216.286 138.664 216.19 138.768C216.095 138.871 216.019 138.974 215.963 139.076C215.813 139.302 215.694 139.556 215.605 139.84C215.537 140.123 215.516 140.554 215.54 141.133C215.57 141.833 215.737 142.927 216.04 144.417C216.363 145.886 216.759 147.202 217.229 148.366C217.719 149.528 218.214 150.101 218.714 150.082C219.013 150.071 219.362 149.558 219.759 148.543C220.156 147.527 220.484 146.285 220.741 144.814C221.018 143.323 221.128 141.898 221.07 140.539C221.058 140.259 220.905 139.945 220.61 139.595C220.377 139.304 220.258 139.088 220.252 138.948C220.247 138.828 220.329 138.655 220.5 138.429C220.69 138.182 220.884 138.054 221.084 138.047C221.344 138.037 221.593 138.238 221.83 138.65C222.088 139.061 222.226 139.476 222.244 139.895C222.33 141.934 222.143 143.892 221.683 145.77C221.241 147.627 220.696 149.149 220.045 150.333C219.394 151.498 218.859 152.088 218.439 152.104ZM225.834 133.309C225.494 133.321 225.138 133.194 224.767 132.928C224.415 132.661 224.235 132.437 224.228 132.257C224.218 132.038 224.309 131.824 224.501 131.617C224.712 131.409 224.928 131.301 225.147 131.293C225.451 131.382 225.708 131.532 225.917 131.745C226.084 131.899 226.273 132.102 226.484 132.354C226.695 132.607 226.801 132.763 226.804 132.823C226.817 133.123 226.493 133.285 225.834 133.309ZM227.541 152.279C227.261 152.269 227.032 151.827 226.854 150.953C226.697 150.078 226.496 148.415 226.252 145.962C226.103 144.346 225.966 142.77 225.841 141.234C225.714 139.678 225.623 138.48 225.568 137.642C225.558 137.422 225.581 137.261 225.637 137.159C225.712 137.036 225.849 136.971 226.049 136.963C226.509 136.946 226.807 137.126 226.943 137.501C227.079 137.876 227.17 138.603 227.216 139.682L227.336 143.22C227.422 145.238 227.551 146.855 227.723 148.069C227.725 148.129 227.842 148.765 228.074 149.977C228.25 150.812 228.343 151.368 228.355 151.648C228.364 151.848 228.28 152.001 228.105 152.108C227.95 152.234 227.762 152.29 227.541 152.279ZM242.948 139.793C241.123 140.18 240.101 140.398 239.883 140.446L237.948 140.848C237.992 141.887 238.049 142.976 238.117 144.114C238.205 145.251 238.298 146.248 238.394 147.106C238.524 148.262 238.701 149.146 238.928 149.758C239.154 150.37 239.279 150.715 239.302 150.795C239.31 150.994 239.188 151.179 238.935 151.348C238.703 151.537 238.477 151.635 238.257 151.644C238.137 151.648 238.036 151.612 237.952 151.535C237.87 151.478 237.795 151.37 237.728 151.213C237.597 150.937 237.455 150.422 237.302 149.667C237.17 148.912 237.054 148.075 236.955 147.159C236.861 146.341 236.77 145.394 236.684 144.317C236.618 143.218 236.563 142.16 236.519 141.141C235.408 141.362 234.268 141.624 233.1 141.927C232.05 142.186 231.425 142.319 231.225 142.326C230.985 142.335 230.752 142.274 230.526 142.142C230.321 142.009 230.213 141.823 230.202 141.584C230.191 141.324 230.274 141.151 230.451 141.064C230.627 140.977 230.925 140.926 231.345 140.911C231.645 140.9 232.082 140.834 232.658 140.713C233.232 140.571 233.598 140.478 233.757 140.432C235.085 140.123 235.987 139.919 236.463 139.822C236.445 139.402 236.402 138.853 236.333 138.176C236.254 137.258 236.204 136.559 236.184 136.08C236.151 135.3 236.145 134.7 236.167 134.279C236.209 133.837 236.292 133.444 236.417 133.099C236.56 132.694 236.852 132.483 237.291 132.466C237.471 132.46 237.592 132.485 237.655 132.543C237.717 132.601 237.752 132.71 237.759 132.869C237.764 132.989 237.729 133.341 237.654 133.924C237.578 134.507 237.561 135.278 237.602 136.237C237.633 136.977 237.689 137.805 237.768 138.723L237.832 139.531C238.725 139.358 240.489 138.923 243.121 138.226C243.279 138.18 243.403 138.035 243.493 137.792C243.603 137.547 243.718 137.423 243.838 137.419C244.057 137.411 244.283 137.532 244.514 137.784C244.764 138.015 244.894 138.26 244.905 138.52C244.92 138.86 244.781 139.125 244.489 139.316C244.217 139.506 243.703 139.665 242.948 139.793ZM257.762 139.247C255.937 139.635 254.915 139.852 254.697 139.9L252.762 140.302C252.806 141.341 252.863 142.43 252.931 143.568C253.02 144.705 253.112 145.703 253.209 146.56C253.338 147.716 253.516 148.6 253.742 149.212C253.968 149.824 254.093 150.169 254.116 150.249C254.125 150.448 254.002 150.633 253.749 150.803C253.517 150.991 253.291 151.09 253.071 151.098C252.951 151.102 252.85 151.066 252.766 150.989C252.684 150.932 252.609 150.825 252.543 150.667C252.411 150.392 252.269 149.876 252.116 149.122C251.984 148.366 251.869 147.53 251.77 146.613C251.675 145.796 251.584 144.848 251.499 143.771C251.432 142.672 251.377 141.614 251.333 140.595C250.222 140.816 249.082 141.078 247.914 141.381C246.864 141.64 246.239 141.773 246.039 141.78C245.799 141.789 245.566 141.728 245.341 141.596C245.135 141.464 245.027 141.277 245.017 141.038C245.006 140.778 245.088 140.605 245.265 140.518C245.441 140.432 245.739 140.381 246.159 140.365C246.459 140.354 246.896 140.288 247.472 140.167C248.046 140.025 248.413 139.932 248.571 139.886C249.899 139.577 250.801 139.374 251.277 139.276C251.259 138.856 251.216 138.308 251.147 137.63C251.068 136.712 251.018 136.013 250.998 135.534C250.965 134.754 250.959 134.154 250.981 133.733C251.023 133.291 251.106 132.898 251.232 132.553C251.374 132.148 251.666 131.937 252.105 131.921C252.285 131.914 252.407 131.939 252.469 131.997C252.532 132.055 252.566 132.164 252.573 132.324C252.578 132.443 252.543 132.795 252.468 133.378C252.392 133.961 252.375 134.732 252.416 135.692C252.447 136.431 252.503 137.259 252.582 138.177L252.646 138.985C253.54 138.812 255.303 138.377 257.935 137.68C258.094 137.634 258.218 137.489 258.307 137.246C258.417 137.001 258.532 136.877 258.652 136.873C258.872 136.865 259.097 136.986 259.328 137.238C259.578 137.469 259.708 137.714 259.719 137.974C259.734 138.314 259.595 138.579 259.303 138.77C259.031 138.96 258.517 139.119 257.762 139.247ZM273.017 142.708C273.032 143.067 272.796 143.867 272.308 145.105C271.84 146.343 271.089 147.502 270.054 148.581C269.039 149.659 267.752 150.227 266.193 150.284C264.913 150.331 263.827 149.971 262.934 149.203C262.04 148.436 261.558 147.223 261.488 145.564C261.422 144.005 261.716 142.454 262.371 140.908C263.025 139.343 263.911 138.06 265.029 137.058C266.147 136.036 267.325 135.502 268.565 135.457C269.304 135.43 269.931 135.577 270.445 135.898C270.978 136.198 271.258 136.658 271.284 137.278C271.314 137.977 270.943 138.671 270.172 139.36C269.42 140.048 268.426 140.665 267.188 141.211C265.95 141.757 264.666 142.165 263.336 142.434C263.136 143.362 263.054 144.266 263.091 145.145C263.141 146.304 263.449 147.193 264.016 147.812C264.602 148.431 265.405 148.722 266.425 148.684C267.964 148.628 269.19 148.032 270.102 146.898C271.015 145.763 271.761 144.495 272.342 143.093C272.379 143.011 272.443 142.859 272.533 142.635C272.623 142.392 272.708 142.269 272.788 142.266C272.928 142.261 273.004 142.408 273.017 142.708ZM268.257 136.699C267.498 136.727 266.779 137.004 266.1 137.529C265.422 138.054 264.858 138.675 264.408 139.392C263.978 140.109 263.705 140.739 263.588 141.284C264.503 141.15 265.461 140.855 266.463 140.397C267.464 139.94 268.294 139.449 268.952 138.925C269.631 138.399 269.963 137.977 269.949 137.657C269.936 137.338 269.755 137.094 269.408 136.927C269.08 136.759 268.697 136.683 268.257 136.699ZM284.455 137.813C284.315 137.818 284.172 137.764 284.027 137.649C283.902 137.533 283.755 137.369 283.586 137.155C283.438 136.96 283.241 136.797 282.995 136.666C282.769 136.534 282.536 136.473 282.296 136.482C281.717 136.503 280.97 137.301 280.056 138.876C279.141 140.431 278.264 142.384 277.423 144.737C277.462 145.196 277.517 145.774 277.587 146.472C277.676 147.169 277.738 147.687 277.773 148.026L277.914 149.222C277.926 149.501 277.876 149.743 277.765 149.948C277.654 150.172 277.439 150.29 277.119 150.302C276.779 150.314 276.54 149.873 276.402 148.977C276.263 148.062 276.147 146.735 276.053 144.997C276.014 144.559 275.967 143.93 275.912 143.111C275.878 142.292 275.816 141.314 275.727 140.176C275.594 138.46 275.512 137.232 275.481 136.493C275.461 136.033 275.731 135.793 276.291 135.772C276.631 135.76 276.837 135.902 276.91 136.2C277.001 136.477 277.065 137.025 277.1 137.844L277.302 142.61C277.836 141.049 278.429 139.696 279.081 138.552C279.733 137.407 280.377 136.533 281.012 135.929C281.666 135.304 282.253 134.982 282.772 134.963C283.212 134.947 283.636 135.032 284.044 135.217C284.452 135.402 284.783 135.65 285.037 135.961C285.289 136.251 285.421 136.537 285.433 136.817C285.441 136.996 285.32 137.211 285.07 137.46C284.84 137.689 284.635 137.807 284.455 137.813ZM289.21 154.269C288.89 154.281 288.606 154.191 288.358 154C288.131 153.828 288.011 153.603 287.999 153.323C287.992 153.163 288.066 153.02 288.221 152.895C288.376 152.769 288.582 152.681 288.84 152.632C292.611 151.852 294.381 148.765 294.151 143.37C293.854 136.376 292.808 131.561 291.015 128.926C290.843 128.652 290.655 128.459 290.45 128.346C290.264 128.213 290.028 128.072 289.741 127.922C289.599 127.867 289.476 127.812 289.374 127.755C289.29 127.678 289.246 127.59 289.242 127.49C289.223 127.03 289.433 126.793 289.872 126.776C290.812 126.742 291.696 127.54 292.527 129.17C293.357 130.801 294.037 132.907 294.567 135.489C295.117 138.071 295.45 140.71 295.564 143.408C295.671 145.906 295.308 147.96 294.475 149.572C293.643 151.184 292.692 152.36 291.623 153.099C290.554 153.859 289.75 154.249 289.21 154.269Z" fill="white"/>
<defs>
<linearGradient id="paint0_linear_504_10" x1="0" y1="44.1438" x2="308.859" y2="44.1438" gradientUnits="userSpaceOnUse">
<stop stop-color="#1A79C4"/>
<stop offset="1" stop-color="#080838"/>
</linearGradient>
</defs>
</svg>
