<svg width="253" height="156" viewBox="0 0 253 156" fill="none" xmlns="http://www.w3.org/2000/svg">
<g filter="url(#filter0_dd_493_23)">
<path d="M198.136 12.6554L30.5824 83.232C14.1392 90.1582 6.42415 109.103 13.3503 125.546C20.2765 141.989 39.221 149.704 55.6642 142.778L223.218 72.2013C239.661 65.2752 247.376 46.3306 240.45 29.8875C233.524 13.4443 214.579 5.72925 198.136 12.6554Z" fill="url(#paint0_linear_493_23)"/>
</g>
<g filter="url(#filter1_dd_493_23)">
<path d="M55.4209 101.418C54.5468 102.093 53.4967 102.723 52.2706 103.309L52.7317 104.157C53.8371 106.156 54.8559 108.07 55.7882 109.898C56.7383 111.717 57.5597 113.505 58.2522 115.26C59.0742 117.345 59.286 118.979 58.8879 120.164C58.4973 121.369 57.4884 122.346 55.8614 123.093C54.8244 123.57 53.5237 123.859 51.9594 123.962C50.3951 124.065 48.969 123.957 47.6812 123.636C46.4113 123.308 45.6469 122.816 45.3882 122.161C45.2741 121.871 45.2977 121.53 45.4594 121.137C45.621 120.743 45.8337 120.372 46.0973 120.023C46.3609 119.675 46.5641 119.467 46.7072 119.402C46.9397 119.295 47.1183 119.292 47.243 119.394C47.3933 119.507 47.4837 119.603 47.5141 119.68C47.5523 119.777 47.5239 119.892 47.4291 120.027C47.204 120.313 47.0567 120.528 46.9876 120.674C46.9183 120.82 46.9217 120.989 46.9979 121.182C47.1806 121.645 47.7436 122.002 48.6872 122.252C49.6485 122.494 50.7403 122.585 51.9627 122.526C53.1773 122.445 54.2406 122.196 55.1525 121.778C55.9393 121.416 56.5359 121.028 56.9425 120.613C57.3492 120.199 57.5648 119.622 57.5895 118.881C57.6065 118.121 57.3677 117.114 56.8731 115.86C56.0435 113.757 54.381 110.453 51.8856 105.948C51.657 105.529 51.4473 105.157 51.2567 104.834C51.0764 104.484 50.9277 104.187 50.8109 103.946C49.5951 104.505 48.6169 104.942 47.8762 105.259C46.5021 105.844 45.3236 106.283 44.3406 106.575C44.0572 106.66 43.7918 106.657 43.5445 106.565C43.3075 106.446 43.1356 106.252 43.0292 105.982C42.9835 105.866 42.9914 105.725 43.0531 105.56C43.1147 105.395 43.217 105.28 43.3601 105.214C43.7177 105.051 44.1403 104.89 44.628 104.735C45.9686 104.278 47.3898 103.706 48.8917 103.015L49.9645 102.523C49.6951 102.054 49.5274 101.709 49.4617 101.489C49.4111 101.306 49.4447 101.098 49.5625 100.861C49.6984 100.617 49.8646 100.45 50.0613 100.359C50.2758 100.26 50.5141 100.355 50.7764 100.646C50.8909 100.776 51.1477 101.159 51.5468 101.796C52.3872 101.41 53.0373 101.077 53.4973 100.797C53.9674 100.49 54.2345 100.31 54.2984 100.258C54.7686 99.9515 55.0841 99.7603 55.245 99.6873C55.4238 99.6042 55.5782 99.5678 55.7083 99.5766C55.8564 99.5766 55.9531 99.6357 55.9988 99.7514C56.1054 100.021 56.097 100.321 55.9738 100.651C55.8505 100.981 55.6663 101.237 55.4209 101.418ZM66.9396 115.919C65.7416 116.469 64.7158 116.519 63.862 116.068C63.0083 115.617 62.3721 114.861 61.9535 113.799C61.5882 112.873 61.2874 111.656 61.051 110.147C60.8325 108.629 60.7961 107.198 60.9421 105.856C60.9475 105.761 60.9801 105.417 61.0401 104.819C61.1105 104.194 61.2571 103.683 61.4799 103.284C61.6953 102.865 61.9817 102.575 62.3393 102.411C62.5002 102.337 62.6623 102.319 62.8255 102.358C62.999 102.37 63.1123 102.443 63.1656 102.578C63.1809 102.616 63.1653 102.738 63.1189 102.941C63.0827 103.117 63.0531 103.257 63.0299 103.358C62.734 104.428 62.5506 105.436 62.4795 106.379C62.3671 107.593 62.358 108.748 62.4524 109.845C62.5648 110.932 62.8455 112.046 63.2946 113.184C63.8957 114.708 65.0546 115.076 66.7711 114.287C67.5756 113.918 68.2187 113.326 68.7002 112.512C69.1997 111.691 69.5141 110.829 69.6438 109.926C69.7659 109.003 69.7088 108.244 69.473 107.646C69.2066 106.97 68.7689 106.476 68.1597 106.164C67.5506 105.851 66.7781 105.579 65.8422 105.347C65.2328 105.195 64.775 105.052 64.4692 104.918C64.1633 104.786 63.98 104.642 63.919 104.488C63.8277 104.257 63.9074 104.004 64.158 103.728C64.4011 103.435 64.7283 103.194 65.1395 103.005C65.372 102.898 65.5316 102.848 65.6184 102.853C65.6974 102.839 65.7522 102.872 65.7826 102.948C65.7979 102.987 65.7888 103.07 65.7553 103.2C65.7321 103.302 65.7319 103.382 65.7548 103.44C65.7776 103.498 66.0325 103.609 66.5195 103.772C67.4858 104.081 68.3397 104.452 69.0812 104.886C69.8228 105.32 70.3685 105.98 70.7186 106.868C71.0154 107.621 71.0986 108.608 70.9683 109.83C70.8379 111.052 70.4398 112.238 69.7737 113.387C69.1001 114.516 68.1554 115.361 66.9396 115.919ZM69.1568 93.7755C68.8528 93.9151 68.4867 93.9239 68.0584 93.8019C67.6479 93.6711 67.4084 93.5188 67.3398 93.3452C67.2561 93.1326 67.2656 92.8898 67.3683 92.6143C67.4888 92.3312 67.6475 92.145 67.8442 92.0544C68.1504 92.0267 68.4347 92.0796 68.6973 92.2092C68.9012 92.2972 69.1421 92.4268 69.4198 92.5954C69.6975 92.764 69.8478 92.8772 69.8707 92.9351C69.9848 93.2244 69.7469 93.505 69.1568 93.7755ZM77.1992 111.754C76.9413 111.849 76.5823 111.502 76.1222 110.711C75.6801 109.911 74.9284 108.353 73.8671 106.037C73.1791 104.507 72.5153 103.012 71.8756 101.552C71.2284 100.071 70.736 98.9299 70.3985 98.1272C70.3148 97.9159 70.2806 97.7485 70.2962 97.6278C70.3221 97.4793 70.4244 97.3636 70.6032 97.2818C71.0144 97.0931 71.346 97.1572 71.5979 97.4743C71.8498 97.7913 72.1812 98.4707 72.5922 99.5124L73.9124 102.939C74.6811 104.888 75.3512 106.427 75.9227 107.554C75.9456 107.612 76.2696 108.193 76.8947 109.295C77.3395 110.049 77.6152 110.56 77.7217 110.83C77.7979 111.023 77.7745 111.205 77.6516 111.375C77.5543 111.556 77.4034 111.683 77.1992 111.754ZM89.7851 106.417C89.6067 106.499 89.4353 106.521 89.2721 106.482C89.117 106.462 89.0086 106.375 88.948 106.221C88.6355 105.429 88.2064 104.18 87.6585 102.471C87.0662 100.647 86.538 99.1463 86.0728 97.97C85.6239 96.8314 85.2229 95.9218 84.8696 95.2412C84.5268 94.5328 84.24 94.2309 84.0068 94.3379C83.3994 94.6172 83.0519 95.7457 82.9657 97.7221C82.8899 99.6709 82.912 102.191 83.0333 105.28L83.0869 106.622C83.0916 106.848 83.0274 107.06 82.8945 107.257C82.7791 107.447 82.6322 107.583 82.4538 107.665C82.2393 107.764 82.0877 107.811 82.0014 107.805C81.9152 107.799 81.8242 107.704 81.7309 107.519L80.5802 105.244L78.534 101.262C77.7539 99.6596 77.0311 98.2833 76.3653 97.1308C76.1975 96.8654 76.0831 96.6565 76.0223 96.5018C75.908 96.2124 75.933 95.9268 76.0969 95.6475C76.2532 95.3469 76.4834 95.1279 76.7874 94.9883C76.9661 94.9065 77.2739 95.3116 77.7108 96.2049C78.1656 97.0893 78.8441 98.5437 79.7489 100.567L80.4613 102.051C81.373 103.935 81.9397 105.132 82.1635 105.646C82.1717 105.505 82.167 105.359 82.1495 105.208C82.1414 105.028 82.1402 104.835 82.1425 104.629C82.0423 101.485 82.0586 98.8217 82.1915 96.6414C82.3349 94.4347 82.7989 93.1502 83.5859 92.7879C84.1397 92.5337 84.7169 92.8722 85.3173 93.8044C85.9271 94.709 86.5718 95.9407 87.2492 97.4982C87.9954 99.2293 89.0342 101.782 90.3669 105.159C90.4578 105.39 90.445 105.624 90.3261 105.861C90.2165 106.116 90.0358 106.302 89.7851 106.417ZM110.767 75.518C110.713 75.5432 110.506 75.5809 110.147 75.6325C109.797 75.6564 109.488 75.7293 109.22 75.8526C108.362 76.2464 107.406 76.7421 106.354 77.3397C105.301 77.9373 104.451 78.4871 103.804 78.9891C104.224 79.8911 104.846 81.3367 105.674 83.327C106.511 85.2896 107.364 87.3705 108.231 89.5697C108.597 90.4956 108.987 91.5361 109.399 92.691C109.831 93.8371 110.072 94.558 110.126 94.8524C110.173 95.0814 110.116 95.3129 109.955 95.5456C109.812 95.7708 109.634 95.9331 109.418 96.0325C109.293 96.0891 109.164 96.0803 109.029 96.0061C108.893 95.9319 108.795 95.8174 108.735 95.6626L108.362 94.6373C107.875 93.0835 107.198 91.2065 106.331 89.0073C105.707 87.4246 104.977 85.6293 104.142 83.6201C103.299 81.5908 102.765 80.344 102.539 79.8785C99.1311 81.9456 96.8995 83.4364 95.8467 84.3536C95.6625 84.5297 95.4363 84.6794 95.1681 84.8015C94.8463 84.9499 94.4837 84.9675 94.0815 84.8568C93.6781 84.7461 93.4193 84.5461 93.3062 84.2555C93.2292 84.063 93.2304 83.9032 93.3062 83.7774C93.3761 83.6314 93.4915 83.522 93.6524 83.4478C94.6481 82.9219 95.4841 82.469 96.158 82.0915C97.6888 81.2058 99.5963 80.0446 101.88 78.6079C101.645 78.0103 101.486 77.5813 101.405 77.3234C101.342 77.0554 101.354 76.9019 101.444 76.8604C101.784 76.7044 102.145 76.7094 102.527 76.8755C102.603 76.9094 102.709 77.0428 102.843 77.2768C102.97 77.4919 103.05 77.6379 103.08 77.7159C103.466 77.5158 104.071 77.1233 104.897 76.5396C106.699 75.3242 107.957 74.553 108.672 74.2234C109.53 73.8296 110.148 73.6824 110.526 73.7831C110.783 73.8472 110.992 74.0812 111.152 74.4863C111.212 74.6411 111.215 74.8336 111.157 75.0651C111.093 75.2764 110.963 75.4274 110.767 75.518ZM127.619 79.6055C127.755 79.9528 127.815 80.8259 127.796 82.2237C127.796 83.6138 127.511 85.033 126.94 86.4798C126.389 87.9178 125.415 88.957 124.021 89.5986C122.877 90.1232 121.768 90.1773 120.695 89.7584C119.622 89.3394 118.77 88.3304 118.138 86.7289C117.544 85.2242 117.28 83.5899 117.345 81.8286C117.402 80.0471 117.767 78.4557 118.439 77.0529C119.103 75.6312 119.989 74.6663 121.098 74.1567C121.759 73.8535 122.378 73.7629 122.954 73.885C123.542 73.9806 123.952 74.3266 124.189 74.9254C124.455 75.5998 124.356 76.42 123.892 77.3863C123.446 78.3424 122.755 79.3212 121.819 80.3201C120.882 81.3203 119.858 82.201 118.743 82.9634C118.878 83.9498 119.114 84.8669 119.448 85.7161C119.89 86.8358 120.474 87.5932 121.201 87.9882C121.945 88.3757 122.772 88.3594 123.684 87.9417C125.061 87.3089 125.969 86.2647 126.409 84.8103C126.848 83.3547 127.092 81.8299 127.139 80.2359C127.145 80.1415 127.149 79.9691 127.155 79.715C127.154 79.4433 127.188 79.2898 127.26 79.2571C127.385 79.1992 127.505 79.3162 127.619 79.6055ZM121.244 75.4916C120.564 75.8036 120.007 76.3446 119.572 77.1145C119.136 77.8832 118.837 78.7047 118.674 79.5766C118.53 80.4409 118.497 81.1631 118.577 81.7405C119.362 81.2662 120.13 80.617 120.882 79.7942C121.634 78.9702 122.219 78.1763 122.637 77.4152C123.072 76.6452 123.229 76.1068 123.107 75.7973C122.986 75.4891 122.739 75.318 122.365 75.284C122.011 75.2412 121.638 75.3104 121.244 75.4916ZM133.892 84.7574C133.677 84.8556 133.365 84.6794 132.955 84.2303C132.556 83.7522 132.135 82.9546 131.694 81.8349C130.852 79.6471 129.84 77.0013 128.658 73.8976C127.493 70.7863 126.621 68.4412 126.04 66.8623C125.838 66.2936 125.722 65.7325 125.692 65.1752C125.681 64.6115 125.89 64.2303 126.319 64.0341C126.461 63.9674 126.585 64.014 126.69 64.1712C126.804 64.3008 126.953 64.5965 127.135 65.0594C127.143 65.0796 127.161 65.1513 127.189 65.2746C127.226 65.3714 127.298 65.5539 127.406 65.8243C129.086 71.0467 130.877 76.069 132.779 80.8926C133.023 81.5103 133.407 82.1079 133.931 82.6879C134.473 83.259 134.752 83.5648 134.767 83.6025C134.843 83.7963 134.788 84.0039 134.601 84.2265C134.414 84.448 134.177 84.6253 133.892 84.7574ZM145.428 71.4241C145.565 71.7726 145.624 72.6445 145.606 74.0435C145.606 75.4337 145.32 76.8528 144.751 78.2996C144.198 79.7376 143.226 80.7768 141.83 81.4184C140.687 81.9431 139.578 81.9972 138.504 81.5782C137.431 81.1593 136.579 80.1503 135.947 78.5487C135.354 77.0441 135.089 75.4098 135.154 73.6485C135.213 71.867 135.576 70.2755 136.249 68.8727C136.913 67.4511 137.799 66.4861 138.907 65.9766C139.57 65.6721 140.188 65.5815 140.765 65.7048C141.351 65.8005 141.763 66.1464 141.998 66.7453C142.264 67.4196 142.166 68.2399 141.702 69.2049C141.256 70.1623 140.564 71.1411 139.628 72.14C138.692 73.1402 137.667 74.0209 136.552 74.7833C136.689 75.7696 136.923 76.6868 137.259 77.536C137.7 78.6544 138.284 79.4118 139.01 79.8081C139.754 80.1956 140.582 80.1792 141.493 79.7603C142.87 79.1287 143.779 78.0845 144.218 76.6289C144.658 75.1745 144.901 73.6497 144.948 72.0557C144.954 71.9614 144.96 71.7877 144.966 71.5349C144.963 71.2619 144.998 71.1096 145.069 71.0769C145.194 71.019 145.314 71.1348 145.428 71.4241ZM139.054 67.3114C138.375 67.6234 137.817 68.1644 137.381 68.9331C136.946 69.7031 136.647 70.5246 136.484 71.3965C136.339 72.2608 136.307 72.9829 136.387 73.5604C137.171 73.0861 137.94 72.4369 138.692 71.6129C139.444 70.7888 140.029 69.9962 140.446 69.2351C140.881 68.4651 141.039 67.9266 140.917 67.6171C140.795 67.3089 140.548 67.1378 140.176 67.1038C139.822 67.0611 139.447 67.1303 139.054 67.3114ZM162.123 80.0283C161.666 81.1719 161.112 82.1783 160.463 83.0464C159.838 83.9258 159.222 84.5058 158.614 84.7851C158.274 84.9411 157.995 84.955 157.775 84.8279C157.564 84.7197 157.409 84.5398 157.31 84.2894C157.218 84.058 157.514 83.6038 158.198 82.9244C159.246 81.9418 160.09 80.7114 160.731 79.2319C161.231 78.0895 161.476 76.9409 161.463 75.7847C161.45 74.6285 161.242 73.539 160.838 72.5162C160.382 71.3587 159.892 70.3309 159.368 69.4313C158.863 68.5242 158.189 67.4322 157.348 66.1552C156.439 64.8179 155.718 63.6567 155.181 62.6716C155.228 63.6994 155.177 64.9877 155.027 66.5377C154.896 68.0789 154.62 69.6301 154.202 71.1901C153.813 72.6671 153.386 73.8321 152.919 74.6839C152.471 75.528 151.933 76.0942 151.308 76.381C150.771 76.6276 150.281 76.5911 149.838 76.2703C149.405 75.9218 149.032 75.3519 148.721 74.5618C148.203 73.2496 147.97 71.5336 148.02 69.4137C148.072 67.2938 148.408 65.3387 149.032 63.5485C149.657 61.7569 150.514 60.6108 151.605 60.1101C151.981 59.9377 152.324 59.9516 152.635 60.1503C152.963 60.3416 153.207 60.6385 153.367 61.0448C153.572 61.5657 153.577 61.8702 153.38 61.9607C153.326 61.9859 153.228 61.9507 153.086 61.8576C152.953 61.7355 152.811 61.6412 152.658 61.5745C152.506 61.5091 152.366 61.5041 152.241 61.5619C151.329 61.9809 150.616 62.9571 150.103 64.492C149.606 66.0194 149.339 67.6687 149.299 69.4414C149.269 71.1876 149.441 72.5325 149.813 73.4786C150.02 73.9995 150.231 74.3467 150.447 74.5203C150.681 74.6864 150.941 74.704 151.228 74.5719C151.657 74.3756 152.068 73.8674 152.464 73.0471C152.858 72.2281 153.247 71.0467 153.631 69.503C153.979 68.1355 154.19 66.6371 154.265 65.0066C154.351 63.3497 154.31 61.8299 154.146 60.4473C154.135 60.3152 154.151 60.1944 154.193 60.0837C154.251 59.9654 154.335 59.8824 154.442 59.8333C154.603 59.7591 154.786 59.7427 154.992 59.7842C155.209 59.7993 155.341 59.8647 155.386 59.9805C155.417 60.0572 155.433 60.1516 155.435 60.2648C155.448 60.3504 155.449 60.407 155.439 60.4347C155.983 61.4374 156.929 62.9521 158.277 64.9764C159.24 66.4031 160.015 67.6184 160.603 68.6249C161.2 69.6037 161.7 70.6051 162.103 71.6279C162.698 73.1326 162.96 74.6298 162.894 76.1194C162.826 77.6077 162.57 78.9111 162.123 80.0283ZM168.665 55.6577C168.54 55.7156 168.392 55.7156 168.222 55.6564C168.068 55.591 167.879 55.4841 167.652 55.3381C167.451 55.2022 167.216 55.1167 166.949 55.0802C166.698 55.0349 166.466 55.0613 166.252 55.1607C165.733 55.3985 165.329 56.4616 165.039 58.35C164.741 60.2183 164.614 62.464 164.656 65.0884C164.849 65.5237 165.096 66.0709 165.398 66.7302C165.719 67.3806 165.952 67.8662 166.099 68.1858L166.636 69.3068C166.744 69.576 166.781 69.8327 166.75 70.0742C166.726 70.3359 166.571 70.5321 166.285 70.6642C165.981 70.8039 165.614 70.4604 165.181 69.6326C164.742 68.7859 164.182 67.5278 163.502 65.8583C163.317 65.4419 163.059 64.8418 162.729 64.0592C162.417 63.2679 162.026 62.3306 161.557 61.2474C160.849 59.6131 160.354 58.4393 160.072 57.7247C159.897 57.2819 160.061 56.9447 160.561 56.7145C160.865 56.5748 161.101 56.6377 161.269 56.9019C161.447 57.1397 161.692 57.6543 162.003 58.4444L163.818 63.0465C163.769 61.3141 163.844 59.7641 164.043 58.3965C164.243 57.029 164.527 55.9294 164.897 55.0991C165.277 54.2411 165.699 53.7051 166.163 53.4912C166.557 53.3113 166.971 53.2346 167.405 53.2635C167.838 53.2925 168.223 53.412 168.559 53.6221C168.888 53.8133 169.106 54.0435 169.212 54.3128C169.281 54.4864 169.245 54.743 169.103 55.0815C168.973 55.3922 168.826 55.5847 168.665 55.6577ZM187.007 59.2659C187.098 59.4974 187.116 59.8094 187.059 60.1994C186.994 60.5705 186.872 60.7983 186.694 60.88C186.389 61.0197 186.077 60.9241 185.756 60.5932C185.436 60.261 185.169 59.8257 184.955 59.286C184.773 58.823 184.252 57.4215 183.392 55.0815L182.985 53.9693C182.81 53.5252 182.577 53.256 182.286 53.1616C182.06 54.9972 181.812 56.6163 181.54 58.0166C181.27 59.4169 180.788 60.8461 180.096 62.3042C179.396 63.7422 178.456 64.7323 177.275 65.2746C176.704 65.5375 176.181 65.5488 175.706 65.311C175.25 65.0645 174.9 64.6329 174.657 64.0152C174.352 63.244 174.259 62.045 174.378 60.4183C174.489 58.7715 174.775 57.034 175.236 55.2035C175.69 53.3554 176.241 51.7563 176.893 50.4089C177.326 49.527 177.701 48.8992 178.018 48.5255C178.328 48.1317 178.635 47.8663 178.939 47.7266C179.225 47.5945 179.558 47.5555 179.938 47.6096C180.318 47.6625 180.683 47.8134 181.035 48.0625C181.386 48.3117 181.65 48.6576 181.825 49.1005C182.061 49.6993 182.134 50.3384 182.043 51.0178L182.442 50.6643C182.639 50.5737 182.858 50.78 183.098 51.2845C183.238 51.5852 183.504 52.2042 183.894 53.1415C184.302 54.07 184.638 54.8399 184.899 55.4488C185.169 56.0766 185.43 56.6868 185.684 57.2756C185.937 57.8656 186.142 58.3299 186.296 58.6696C186.368 58.7966 186.497 58.9086 186.682 59.0055C186.86 59.0822 186.969 59.1703 187.007 59.2659ZM181.466 52.2055C181.452 51.5286 181.312 50.8517 181.046 50.1774C180.886 49.7723 180.633 49.4779 180.286 49.2955C179.95 49.0854 179.594 49.0665 179.219 49.2389C178.771 49.4439 178.328 50.0352 177.89 51.0115C177.375 52.1136 176.914 53.4875 176.507 55.1331C176.092 56.7598 175.826 58.306 175.707 59.7729C175.589 61.2398 175.668 62.3206 175.942 63.015C176.17 63.595 176.534 63.7686 177.035 63.5384C178.001 63.0955 178.778 62.2828 179.367 61.1002C179.957 59.9176 180.391 58.6356 180.669 57.2542C180.959 55.8451 181.224 54.1631 181.466 52.2055ZM206.482 52.2357C206.16 52.3829 205.93 52.2835 205.794 51.9362C204.256 48.0386 202.964 45.1111 201.917 43.1535C200.863 41.177 200.049 40.3202 199.478 40.5832C198.511 41.026 198.534 45.3124 199.543 53.4397L199.555 53.4686C199.647 53.7001 199.655 53.9353 199.581 54.1744C199.498 54.3946 199.34 54.5581 199.108 54.665C198.787 54.8122 198.557 54.7128 198.42 54.3656C198.116 53.5944 197.68 52.3816 197.112 50.7285C196.468 48.8816 195.941 47.4373 195.53 46.3956C194.959 44.9488 194.511 43.9461 194.186 43.39C193.87 42.805 193.578 42.5747 193.31 42.698C192.703 42.9773 192.409 44.5361 192.431 47.3744C192.445 50.1938 192.586 53.4673 192.853 57.1963L192.908 58.0594C192.913 58.2858 192.871 58.4985 192.781 58.6998C192.709 58.8922 192.592 59.0256 192.431 59.0998C192.217 59.198 192.066 59.2445 191.979 59.2382C191.892 59.2332 191.803 59.1376 191.708 58.9526C191.245 58.0481 190.675 56.8176 189.998 55.2601C189.802 54.8714 189.505 54.2222 189.104 53.3126C187.638 50.1346 186.61 48.0085 186.017 46.9366C185.418 45.8445 185.092 45.2306 185.038 45.096C184.977 44.9412 184.976 44.7248 185.036 44.4468C185.095 44.17 185.187 44.0014 185.312 43.9448C185.599 43.8127 185.918 43.9284 186.273 44.2895C186.445 44.4606 186.879 45.2645 187.572 46.7013C188.265 48.1368 189.081 49.9384 190.02 52.1048L191.902 56.4717C191.59 52.7401 191.438 49.3005 191.442 46.154C191.44 42.9874 191.876 41.2034 192.752 40.8008C193.343 40.5291 193.927 40.8071 194.508 41.6349C195.087 42.4628 195.724 43.7548 196.416 45.5099C196.781 46.4358 197.288 47.7757 197.938 49.5282L198.436 50.8719C198.081 47.7757 197.891 45.1287 197.869 42.9283C197.863 40.7203 198.227 39.4484 198.96 39.1112C200.801 38.2658 203.458 42.2413 206.928 51.0392C207.019 51.2707 207.024 51.4959 206.942 51.7161C206.867 51.9551 206.714 52.1287 206.482 52.2357Z" fill="white"/>
</g>
<defs>
<filter id="filter0_dd_493_23" x="6.80849" y="10.1136" width="240.183" height="143.206" filterUnits="userSpaceOnUse" color-interpolation-filters="sRGB">
<feFlood flood-opacity="0" result="BackgroundImageFix"/>
<feColorMatrix in="SourceAlpha" type="matrix" values="0 0 0 0 0 0 0 0 0 0 0 0 0 0 0 0 0 0 127 0" result="hardAlpha"/>
<feOffset dy="4"/>
<feGaussianBlur stdDeviation="2"/>
<feComposite in2="hardAlpha" operator="out"/>
<feColorMatrix type="matrix" values="0 0 0 0 0 0 0 0 0 0 0 0 0 0 0 0 0 0 0.25 0"/>
<feBlend mode="normal" in2="BackgroundImageFix" result="effect1_dropShadow_493_23"/>
<feColorMatrix in="SourceAlpha" type="matrix" values="0 0 0 0 0 0 0 0 0 0 0 0 0 0 0 0 0 0 127 0" result="hardAlpha"/>
<feOffset dy="4"/>
<feGaussianBlur stdDeviation="2"/>
<feComposite in2="hardAlpha" operator="out"/>
<feColorMatrix type="matrix" values="0 0 0 0 0 0 0 0 0 0 0 0 0 0 0 0 0 0 0.25 0"/>
<feBlend mode="normal" in2="effect1_dropShadow_493_23" result="effect2_dropShadow_493_23"/>
<feBlend mode="normal" in="SourceGraphic" in2="effect2_dropShadow_493_23" result="shape"/>
</filter>
<filter id="filter1_dd_493_23" x="39" y="39" width="172" height="93" filterUnits="userSpaceOnUse" color-interpolation-filters="sRGB">
<feFlood flood-opacity="0" result="BackgroundImageFix"/>
<feColorMatrix in="SourceAlpha" type="matrix" values="0 0 0 0 0 0 0 0 0 0 0 0 0 0 0 0 0 0 127 0" result="hardAlpha"/>
<feOffset dy="4"/>
<feGaussianBlur stdDeviation="2"/>
<feComposite in2="hardAlpha" operator="out"/>
<feColorMatrix type="matrix" values="0 0 0 0 0 0 0 0 0 0 0 0 0 0 0 0 0 0 0.25 0"/>
<feBlend mode="normal" in2="BackgroundImageFix" result="effect1_dropShadow_493_23"/>
<feColorMatrix in="SourceAlpha" type="matrix" values="0 0 0 0 0 0 0 0 0 0 0 0 0 0 0 0 0 0 127 0" result="hardAlpha"/>
<feOffset dy="4"/>
<feGaussianBlur stdDeviation="2"/>
<feComposite in2="hardAlpha" operator="out"/>
<feColorMatrix type="matrix" values="0 0 0 0 0 0 0 0 0 0 0 0 0 0 0 0 0 0 0.25 0"/>
<feBlend mode="normal" in2="effect1_dropShadow_493_23" result="effect2_dropShadow_493_23"/>
<feBlend mode="normal" in="SourceGraphic" in2="effect2_dropShadow_493_23" result="shape"/>
</filter>
<linearGradient id="paint0_linear_493_23" x1="13.3501" y1="125.546" x2="240.45" y2="29.8869" gradientUnits="userSpaceOnUse">
<stop offset="0.729" stop-color="#D11E1E"/>
<stop offset="1" stop-color="white"/>
</linearGradient>
</defs>
</svg>
