<svg width="323" height="207" viewBox="0 0 323 207" fill="none" xmlns="http://www.w3.org/2000/svg">
<rect width="315.712" height="75.7727" rx="37.8864" transform="matrix(0.900869 -0.434091 0.427063 0.904222 3.04639 137.572)" fill="url(#paint0_linear_504_2)"/>
<path d="M92.7683 132.092C91.9029 132.784 90.8551 133.442 89.6247 134.068L90.1368 134.853C91.3625 136.702 92.4955 138.474 93.5358 140.169C94.5941 141.855 95.5188 143.518 96.31 145.157C97.249 147.102 97.5416 148.652 97.1879 149.805C96.8429 150.977 95.8534 151.963 94.2193 152.764C93.1778 153.275 91.8573 153.622 90.2578 153.805C88.6583 153.988 87.1908 153.961 85.8554 153.725C84.538 153.48 83.7314 153.052 83.4358 152.439C83.3054 152.169 83.314 151.842 83.4617 151.458C83.6093 151.073 83.8102 150.707 84.0645 150.36C84.3187 150.013 84.5177 149.804 84.6613 149.733C84.8948 149.619 85.0778 149.607 85.2105 149.698C85.3699 149.798 85.4669 149.884 85.5017 149.956C85.5452 150.046 85.5214 150.158 85.4305 150.292C85.2128 150.577 85.0717 150.79 85.0075 150.933C84.9432 151.076 84.9545 151.238 85.0415 151.418C85.2501 151.85 85.844 152.16 86.8231 152.348C87.8202 152.528 88.9441 152.556 90.1949 152.432C91.4369 152.291 92.5159 151.996 93.4317 151.547C94.2218 151.159 94.8158 150.757 95.2137 150.339C95.6116 149.921 95.8061 149.358 95.7972 148.649C95.7797 147.923 95.4883 146.974 94.9232 145.804C93.9755 143.84 92.1183 140.775 89.3516 136.608C89.0978 136.22 88.8657 135.877 88.6553 135.579C88.4542 135.255 88.2881 134.98 88.1572 134.754C86.9361 135.353 85.9531 135.824 85.2081 136.167C83.826 136.8 82.6376 137.283 81.643 137.615C81.3562 137.711 81.084 137.722 80.8261 137.648C80.5776 137.547 80.3925 137.37 80.2707 137.118C80.2186 137.01 80.2203 136.875 80.2758 136.715C80.3314 136.554 80.431 136.438 80.5747 136.368C80.9338 136.191 81.3599 136.016 81.8529 135.841C83.2066 135.333 84.6377 134.709 86.1461 133.97L87.2235 133.441C86.9257 133.008 86.7379 132.688 86.6602 132.481C86.5999 132.31 86.6248 132.109 86.7348 131.877C86.8628 131.636 87.0255 131.467 87.223 131.37C87.4385 131.264 87.6874 131.343 87.9696 131.605C88.093 131.723 88.3741 132.075 88.8127 132.662C89.6567 132.248 90.3081 131.895 90.7669 131.603C91.2349 131.285 91.5005 131.099 91.5636 131.046C92.0316 130.727 92.3464 130.528 92.508 130.449C92.6876 130.361 92.8443 130.317 92.9781 130.319C93.1299 130.311 93.2319 130.361 93.2841 130.469C93.4058 130.721 93.4111 131.008 93.2999 131.33C93.1888 131.652 93.0115 131.906 92.7683 132.092ZM105.249 145.317C104.046 145.907 102.996 146.01 102.1 145.625C101.204 145.241 100.517 144.553 100.038 143.563C99.6211 142.698 99.2564 141.551 98.9444 140.123C98.6503 138.686 98.5472 137.322 98.6349 136.031C98.6361 135.942 98.6536 135.61 98.6877 135.036C98.731 134.436 98.8577 133.94 99.0679 133.547C99.2695 133.136 99.5498 132.843 99.9089 132.667C100.071 132.588 100.236 132.562 100.405 132.591C100.584 132.592 100.703 132.656 100.764 132.782C100.781 132.818 100.771 132.935 100.733 133.131C100.704 133.302 100.68 133.436 100.661 133.534C100.407 134.572 100.265 135.544 100.236 136.449C100.176 137.614 100.22 138.718 100.368 139.759C100.533 140.792 100.872 141.839 101.385 142.902C102.072 144.325 103.277 144.614 105.001 143.768C105.809 143.372 106.442 142.773 106.898 141.97C107.372 141.158 107.655 140.318 107.746 139.449C107.829 138.562 107.735 137.839 107.466 137.281C107.162 136.65 106.69 136.202 106.051 135.936C105.412 135.671 104.607 135.453 103.637 135.283C103.005 135.169 102.529 135.057 102.209 134.947C101.889 134.837 101.694 134.709 101.625 134.565C101.52 134.349 101.59 134.103 101.835 133.827C102.071 133.534 102.395 133.285 102.808 133.083C103.041 132.968 103.203 132.911 103.292 132.912C103.372 132.895 103.43 132.923 103.465 132.995C103.482 133.031 103.477 133.111 103.448 133.237C103.429 133.335 103.433 133.411 103.459 133.465C103.485 133.519 103.752 133.611 104.258 133.741C105.264 133.984 106.157 134.292 106.937 134.667C107.717 135.041 108.308 135.643 108.708 136.471C109.047 137.174 109.177 138.112 109.1 139.286C109.023 140.46 108.669 141.613 108.039 142.747C107.4 143.862 106.47 144.719 105.249 145.317ZM106.502 124.054C106.197 124.204 105.822 124.232 105.377 124.138C104.95 124.036 104.697 123.903 104.619 123.741C104.523 123.543 104.522 123.31 104.615 123.042C104.725 122.765 104.879 122.578 105.077 122.481C105.39 122.439 105.684 122.473 105.959 122.583C106.172 122.657 106.425 122.767 106.718 122.913C107.01 123.059 107.169 123.159 107.196 123.213C107.326 123.483 107.095 123.764 106.502 124.054ZM115.579 140.787C115.319 140.892 114.934 140.579 114.426 139.848C113.936 139.109 113.093 137.662 111.898 135.508C111.122 134.084 110.372 132.692 109.649 131.332C108.917 129.953 108.359 128.89 107.976 128.143C107.881 127.945 107.838 127.787 107.848 127.671C107.868 127.528 107.968 127.412 108.147 127.324C108.56 127.121 108.903 127.165 109.176 127.454C109.449 127.743 109.82 128.374 110.29 129.347L111.802 132.548C112.68 134.367 113.438 135.8 114.076 136.846C114.102 136.9 114.461 137.437 115.153 138.456C115.644 139.151 115.95 139.624 116.072 139.876C116.159 140.057 116.143 140.231 116.025 140.401C115.934 140.579 115.785 140.708 115.579 140.787ZM128.24 135.012C128.061 135.1 127.886 135.13 127.717 135.102C127.557 135.091 127.442 135.014 127.372 134.87C127.016 134.131 126.517 132.961 125.877 131.359C125.185 129.649 124.574 128.245 124.044 127.146C123.531 126.084 123.077 125.237 122.684 124.606C122.3 123.948 121.991 123.676 121.757 123.79C121.147 124.09 120.843 125.185 120.846 127.077C120.858 128.943 120.997 131.347 121.263 134.29L121.381 135.569C121.396 135.785 121.339 135.99 121.212 136.186C121.103 136.374 120.958 136.511 120.779 136.6C120.563 136.705 120.411 136.758 120.322 136.757C120.232 136.756 120.135 136.67 120.03 136.499L118.745 134.389L116.463 130.697C115.59 129.209 114.785 127.933 114.049 126.869C113.865 126.625 113.738 126.431 113.669 126.287C113.538 126.017 113.551 125.743 113.706 125.467C113.852 125.172 114.078 124.95 114.383 124.8C114.563 124.712 114.897 125.083 115.386 125.912C115.894 126.733 116.657 128.085 117.677 129.968L118.476 131.347C119.498 133.096 120.135 134.209 120.388 134.686C120.39 134.552 120.378 134.413 120.353 134.269C120.337 134.098 120.326 133.914 120.32 133.717C120.072 130.72 119.966 128.177 120.002 126.088C120.046 123.972 120.464 122.721 121.254 122.333C121.811 122.06 122.418 122.353 123.076 123.21C123.744 124.041 124.461 125.182 125.228 126.633C126.073 128.245 127.256 130.627 128.778 133.779C128.882 133.996 128.879 134.22 128.769 134.452C128.668 134.702 128.492 134.889 128.24 135.012ZM148.332 104.377C148.278 104.403 148.068 104.451 147.701 104.519C147.344 104.561 147.03 104.648 146.761 104.78C145.899 105.203 144.942 105.727 143.89 106.355C142.838 106.982 141.992 107.553 141.352 108.067C141.823 108.905 142.529 110.252 143.469 112.108C144.419 113.936 145.389 115.877 146.38 117.931C146.797 118.795 147.245 119.768 147.722 120.848C148.217 121.919 148.498 122.594 148.566 122.873C148.626 123.089 148.578 123.312 148.424 123.544C148.287 123.767 148.111 123.931 147.895 124.037C147.77 124.099 147.636 124.098 147.494 124.034C147.352 123.969 147.246 123.865 147.177 123.721L146.747 122.763C146.177 121.305 145.396 119.549 144.405 117.496C143.692 116.019 142.861 114.344 141.912 112.47C140.955 110.579 140.349 109.416 140.096 108.984C136.696 111.141 134.477 112.686 133.439 113.618C133.258 113.796 133.033 113.951 132.764 114.083C132.44 114.241 132.07 114.278 131.651 114.194C131.233 114.11 130.959 113.932 130.828 113.662C130.741 113.482 130.734 113.329 130.807 113.205C130.872 113.062 130.985 112.951 131.146 112.871C132.144 112.315 132.98 111.839 133.654 111.441C135.182 110.513 137.085 109.302 139.361 107.807C139.092 107.249 138.909 106.848 138.814 106.605C138.737 106.353 138.744 106.205 138.833 106.161C139.175 105.994 139.545 105.98 139.945 106.118C140.025 106.145 140.139 106.267 140.288 106.484C140.428 106.682 140.516 106.818 140.551 106.89C140.937 106.678 141.54 106.271 142.36 105.668C144.151 104.411 145.406 103.607 146.124 103.254C146.986 102.832 147.613 102.658 148.005 102.733C148.272 102.78 148.497 102.993 148.679 103.371C148.749 103.515 148.76 103.699 148.713 103.923C148.656 104.129 148.53 104.28 148.332 104.377ZM165.802 107.37C165.959 107.695 166.06 108.525 166.106 109.861C166.169 111.189 165.942 112.559 165.424 113.971C164.925 115.374 163.975 116.419 162.574 117.106C161.425 117.67 160.29 117.781 159.17 117.439C158.05 117.097 157.129 116.179 156.408 114.684C155.73 113.279 155.383 111.734 155.369 110.048C155.346 108.344 155.647 106.804 156.271 105.429C156.886 104.036 157.751 103.066 158.864 102.52C159.529 102.194 160.159 102.074 160.756 102.16C161.362 102.22 161.8 102.528 162.069 103.087C162.373 103.717 162.31 104.506 161.879 105.452C161.465 106.39 160.801 107.362 159.887 108.367C158.974 109.372 157.963 110.268 156.855 111.056C157.04 111.991 157.323 112.854 157.706 113.646C158.21 114.691 158.844 115.383 159.607 115.721C160.388 116.051 161.236 115.991 162.152 115.542C163.535 114.864 164.418 113.819 164.802 112.405C165.186 110.992 165.365 109.523 165.339 107.998C165.341 107.909 165.338 107.743 165.332 107.501C165.318 107.241 165.346 107.093 165.418 107.058C165.544 106.996 165.672 107.1 165.802 107.37ZM159.076 103.786C158.393 104.121 157.846 104.667 157.435 105.426C157.024 106.184 156.755 106.985 156.629 107.826C156.52 108.659 156.52 109.35 156.629 109.898C157.412 109.402 158.17 108.741 158.903 107.914C159.636 107.087 160.199 106.298 160.592 105.548C161.004 104.79 161.14 104.267 161 103.978C160.861 103.69 160.6 103.54 160.217 103.527C159.851 103.506 159.471 103.593 159.076 103.786ZM172.473 111.951C172.258 112.057 171.929 111.906 171.488 111.499C171.057 111.064 170.589 110.325 170.084 109.28C169.12 107.236 167.96 104.764 166.605 101.865C165.268 98.9567 164.265 96.7643 163.597 95.2878C163.362 94.7566 163.217 94.2263 163.162 93.6967C163.124 93.1584 163.32 92.7836 163.751 92.5722C163.895 92.5018 164.024 92.5388 164.138 92.6833C164.262 92.801 164.428 93.0759 164.636 93.5082C164.645 93.5262 164.666 93.5937 164.701 93.7105C164.744 93.8006 164.827 93.9717 164.948 94.2239C166.912 99.1194 168.98 103.819 171.154 108.321C171.432 108.898 171.853 109.448 172.418 109.974C173 110.49 173.3 110.766 173.317 110.802C173.404 110.982 173.357 111.184 173.176 111.406C172.995 111.629 172.76 111.81 172.473 111.951ZM183.689 98.5991C183.846 98.9233 183.947 99.7536 183.992 101.09C184.056 102.418 183.829 103.788 183.311 105.2C182.812 106.603 181.862 107.648 180.461 108.335C179.312 108.898 178.177 109.009 177.057 108.668C175.937 108.326 175.016 107.407 174.295 105.912C173.617 104.508 173.27 102.962 173.256 101.276C173.233 99.5724 173.534 98.0328 174.158 96.6575C174.773 95.2642 175.638 94.2946 176.751 93.7486C177.416 93.4228 178.046 93.3029 178.643 93.389C179.249 93.4482 179.687 93.757 179.956 94.3154C180.26 94.9458 180.197 95.7343 179.765 96.6809C179.352 97.6187 178.688 98.5901 177.774 99.5952C176.861 100.6 175.85 101.497 174.742 102.285C174.927 103.219 175.21 104.082 175.593 104.875C176.097 105.92 176.731 106.611 177.494 106.95C178.275 107.28 179.123 107.22 180.039 106.771C181.422 106.093 182.305 105.047 182.689 103.634C183.072 102.221 183.252 100.752 183.226 99.2271C183.228 99.1374 183.225 98.9715 183.219 98.7293C183.205 98.4692 183.233 98.3215 183.305 98.2863C183.431 98.2246 183.559 98.3289 183.689 98.5991ZM176.963 95.0149C176.28 95.3495 175.733 95.896 175.322 96.6545C174.911 97.413 174.642 98.2131 174.516 99.0548C174.407 99.8878 174.407 100.578 174.516 101.126C175.299 100.631 176.057 99.9698 176.79 99.1425C177.523 98.3151 178.086 97.5266 178.479 96.777C178.891 96.0185 179.027 95.4951 178.887 95.207C178.748 94.9188 178.487 94.7685 178.103 94.7561C177.738 94.7349 177.358 94.8211 176.963 95.0149ZM201.207 105.913C200.791 107.03 200.27 108.021 199.643 108.885C199.043 109.759 198.438 110.345 197.827 110.644C197.486 110.812 197.2 110.84 196.97 110.731C196.748 110.639 196.58 110.476 196.467 110.242C196.363 110.026 196.645 109.576 197.314 108.891C198.344 107.896 199.154 106.675 199.743 105.228C200.203 104.111 200.4 103.001 200.334 101.897C200.268 100.794 200.004 99.7648 199.543 98.8102C199.022 97.7295 198.472 96.7741 197.893 95.944C197.333 95.105 196.592 94.0986 195.67 92.9247C194.677 91.6963 193.883 90.6266 193.288 89.7156C193.383 90.6939 193.389 91.9269 193.308 93.4146C193.245 94.8935 193.034 96.3891 192.675 97.9013C192.345 99.333 191.96 100.468 191.521 101.307C191.1 102.137 190.576 102.707 189.947 103.015C189.408 103.279 188.904 103.27 188.435 102.988C187.975 102.679 187.567 102.155 187.21 101.417C186.619 100.192 186.301 98.566 186.255 96.5391C186.209 94.5122 186.465 92.627 187.023 90.8835C187.58 89.1399 188.407 87.9996 189.502 87.4625C189.879 87.2775 190.232 87.2717 190.56 87.445C190.905 87.6095 191.17 87.8809 191.352 88.2591C191.587 88.7454 191.606 89.037 191.408 89.1339C191.354 89.1603 191.252 89.1325 191.101 89.0504C190.96 88.9416 190.809 88.8595 190.649 88.8043C190.489 88.7491 190.347 88.7523 190.221 88.8139C189.305 89.263 188.619 90.2342 188.163 91.7276C187.725 93.2121 187.526 94.8019 187.567 96.497C187.617 98.1653 187.856 99.4407 188.282 100.323C188.516 100.81 188.749 101.13 188.979 101.284C189.227 101.43 189.494 101.433 189.782 101.292C190.213 101.08 190.612 100.573 190.979 99.7691C191.346 98.9654 191.691 97.8162 192.013 96.3217C192.306 94.9972 192.454 93.5549 192.456 91.9947C192.467 90.4077 192.356 88.9586 192.123 87.6473C192.107 87.5217 192.117 87.4052 192.154 87.2979C192.209 87.1818 192.29 87.0974 192.398 87.0446C192.56 86.9653 192.748 86.9401 192.961 86.9689C193.184 86.9709 193.322 87.0259 193.374 87.134C193.409 87.206 193.43 87.2959 193.438 87.4036C193.454 87.4844 193.458 87.5383 193.449 87.5651C194.053 88.4941 195.093 89.8887 196.568 91.7491C197.622 93.0587 198.473 94.1782 199.122 95.1076C199.78 96.0102 200.339 96.9388 200.8 97.8934C201.478 99.2983 201.817 100.714 201.817 102.139C201.816 103.565 201.613 104.823 201.207 105.913ZM206.793 82.2913C206.667 82.3529 206.515 82.3605 206.337 82.3141C206.177 82.2589 205.978 82.1674 205.739 82.0397C205.526 81.9212 205.281 81.8518 205.005 81.8314C204.747 81.8022 204.51 81.8404 204.294 81.9461C203.773 82.2014 203.408 83.2383 203.197 85.0567C202.978 86.857 202.951 89.0088 203.116 91.512C203.333 91.9174 203.613 92.4266 203.953 93.0393C204.311 93.6433 204.573 94.094 204.739 94.3914L205.341 95.4325C205.463 95.6846 205.513 95.9272 205.493 96.1601C205.48 96.4111 205.331 96.607 205.043 96.7479C204.738 96.8976 204.345 96.5892 203.864 95.8227C203.374 95.0382 202.742 93.8669 201.968 92.3087C201.759 91.9213 201.467 91.3627 201.092 90.633C200.736 89.8946 200.292 89.0208 199.76 88.0118C198.959 86.4892 198.397 85.3947 198.075 84.7283C197.876 84.3141 198.027 83.9836 198.53 83.7371C198.835 83.5874 199.08 83.6344 199.264 83.8782C199.458 84.0951 199.733 84.5728 200.089 85.3113L202.163 89.607C202.032 87.9559 202.037 86.472 202.179 85.1551C202.321 83.8383 202.562 82.7734 202.902 81.9605C203.252 81.1208 203.66 80.5864 204.127 80.3575C204.522 80.1637 204.943 80.0689 205.389 80.0729C205.835 80.0769 206.235 80.1701 206.59 80.3526C206.936 80.5171 207.169 80.7255 207.291 80.9776C207.369 81.1397 207.344 81.3861 207.215 81.7167C207.095 82.0205 206.954 82.212 206.793 82.2913ZM225.769 84.747C225.873 84.9631 225.905 85.2593 225.864 85.6356C225.815 85.9938 225.701 86.2169 225.521 86.305C225.216 86.4547 224.891 86.38 224.547 86.0811C224.203 85.7821 223.909 85.3804 223.666 84.8761C223.457 84.4438 222.858 83.1338 221.868 80.946L221.4 79.9062C221.2 79.4919 220.949 79.2475 220.646 79.1731C220.499 80.9382 220.319 82.4968 220.105 83.8489C219.892 85.2009 219.464 86.5914 218.821 88.0204C218.169 89.4313 217.251 90.4273 216.066 91.0085C215.491 91.2903 214.956 91.3303 214.458 91.1286C213.979 90.9181 213.601 90.5246 213.322 89.9482C212.975 89.2278 212.824 88.0877 212.871 86.5279C212.908 84.9501 213.121 83.2752 213.51 81.5033C213.889 79.7133 214.382 78.1575 214.988 76.8359C215.391 75.9697 215.747 75.3497 216.055 74.9759C216.355 74.584 216.657 74.3133 216.962 74.1636C217.25 74.0227 217.589 73.9674 217.982 73.9978C218.374 74.0283 218.756 74.1527 219.128 74.3713C219.5 74.5898 219.786 74.9062 219.986 75.3205C220.255 75.8788 220.359 76.485 220.297 77.139L220.69 76.7794C220.888 76.6825 221.122 76.8684 221.392 77.3371C221.549 77.6165 221.85 78.1931 222.294 79.0668C222.756 79.9318 223.135 80.648 223.431 81.2156C223.736 81.8011 224.032 82.3687 224.32 82.9182C224.607 83.4678 224.838 83.9003 225.012 84.2157C225.091 84.3329 225.228 84.4328 225.424 84.5152C225.61 84.5797 225.725 84.6569 225.769 84.747ZM219.761 78.3044C219.715 77.6584 219.54 77.0201 219.236 76.3897C219.053 76.0115 218.78 75.7445 218.416 75.5888C218.062 75.4063 217.696 75.4075 217.319 75.5925C216.87 75.8126 216.443 76.4006 216.038 77.3564C215.561 78.4371 215.151 79.7739 214.81 81.367C214.46 82.942 214.258 84.4331 214.204 85.8404C214.151 87.2477 214.28 88.2756 214.593 88.924C214.854 89.4643 215.236 89.6112 215.739 89.3646C216.709 88.8891 217.468 88.071 218.019 86.9103C218.569 85.7495 218.955 84.5021 219.177 83.1681C219.408 81.8072 219.603 80.186 219.761 78.3044ZM245.416 76.9835C245.092 77.142 244.853 77.0592 244.696 76.735C242.94 73.0967 241.48 70.3711 240.316 68.5584C239.144 66.7277 238.27 65.9532 237.696 66.235C236.726 66.7105 236.946 70.8013 238.356 78.5074L238.369 78.5344C238.474 78.7505 238.493 78.9749 238.428 79.2074C238.354 79.4219 238.2 79.5864 237.966 79.7009C237.643 79.8594 237.403 79.7766 237.247 79.4524C236.899 78.7319 236.396 77.5976 235.737 76.0494C234.992 74.3211 234.385 72.9707 233.915 71.9981C233.263 70.6472 232.757 69.7146 232.398 69.2003C232.048 68.6592 231.738 68.4546 231.469 68.5867C230.858 68.8861 230.63 70.3905 230.783 73.0998C230.927 75.7911 231.222 78.9097 231.668 82.4555L231.764 83.2769C231.78 83.4922 231.746 83.6981 231.663 83.8947C231.598 84.0824 231.485 84.2159 231.323 84.2951C231.108 84.4008 230.955 84.4532 230.866 84.4524C230.777 84.4516 230.68 84.3656 230.575 84.1943C230.059 83.3557 229.418 82.2112 228.651 80.7607C228.433 80.4001 228.097 79.7963 227.644 78.9494C225.995 75.9935 224.842 74.0195 224.185 73.0272C223.52 72.017 223.157 71.4488 223.096 71.3228C223.026 71.1787 223.016 70.9723 223.064 70.7038C223.112 70.4352 223.199 70.2701 223.324 70.2084C223.612 70.0676 223.945 70.1602 224.325 70.4864C224.51 70.6405 224.991 71.3846 225.768 72.7186C226.546 74.0527 227.466 75.7287 228.529 77.7468L230.659 81.8144C230.168 78.2681 229.853 74.9924 229.713 71.9873C229.564 68.9642 229.929 67.2369 230.809 66.8054C231.402 66.5148 232.014 66.7489 232.647 67.5078C233.28 68.2667 233.992 69.4657 234.783 71.1047C235.2 71.9692 235.782 73.2208 236.529 74.8595L237.102 76.1155C236.595 73.1788 236.279 70.6608 236.154 68.5615C236.047 66.4533 236.361 65.2187 237.097 64.8577C238.947 63.9507 241.854 67.6038 245.819 75.817C245.923 76.0331 245.938 76.2484 245.864 76.463C245.799 76.6955 245.649 76.869 245.416 76.9835ZM243.917 58.0051C244.926 60.7849 246.069 63.4986 247.347 66.1463C247.625 66.7226 247.944 67.2904 248.303 67.8496C248.661 68.4087 248.867 68.7423 248.919 68.8504C249.128 69.2827 249.052 69.5869 248.693 69.763C248.568 69.8246 248.363 69.7466 248.081 69.5288C247.789 69.2931 247.477 68.9675 247.143 68.552C246.818 68.1097 246.53 67.6274 246.278 67.1051C245.582 65.6642 244.263 62.7472 242.32 58.354C242.086 57.8228 241.941 57.2925 241.885 56.763C241.847 56.2246 242.044 55.8498 242.475 55.6384C242.619 55.568 242.747 55.605 242.862 55.7495C242.985 55.8672 243.151 56.1422 243.36 56.5744C243.386 56.6285 243.572 57.1054 243.917 58.0051ZM251.824 74.0413C251.483 74.2086 251.153 74.237 250.833 74.1265C250.522 74.0341 250.261 73.8838 250.049 73.6756C249.829 73.4495 249.684 73.2644 249.614 73.1203C249.519 72.9222 249.517 72.689 249.61 72.4208C249.72 72.1439 249.875 71.957 250.072 71.8601C250.198 71.7984 250.323 71.804 250.447 71.8769C250.571 71.9497 250.725 72.0632 250.911 72.2173C251.211 72.4711 251.459 72.6168 251.655 72.6544C251.851 72.692 252.037 72.7789 252.214 72.9149C252.382 73.033 252.483 73.1281 252.518 73.2001C252.648 73.4703 252.417 73.7507 251.824 74.0413Z" fill="white"/>
<defs>
<linearGradient id="paint0_linear_504_2" x1="0" y1="37.8864" x2="315.712" y2="37.8864" gradientUnits="userSpaceOnUse">
<stop stop-color="#1A79C4"/>
<stop offset="1" stop-color="#080838"/>
</linearGradient>
</defs>
</svg>
