<svg width="457" height="461" viewBox="0 0 457 461" fill="none" xmlns="http://www.w3.org/2000/svg">
<rect x="23.0557" y="277.844" width="407.428" height="109.34" rx="50" transform="rotate(-28.1047 23.0557 277.844)" fill="url(#paint0_linear_106_274)"/>
<path d="M171.538 242.195L168.197 244.335L165.897 245.836L164.696 246.613C164.588 246.672 164.451 246.659 164.284 246.575C164.13 246.483 164.02 246.377 163.955 246.255C163.904 246.161 163.895 246.079 163.927 246.009C163.965 245.919 164.014 245.849 164.075 245.799C164.141 245.728 164.184 245.679 164.204 245.651C163.825 244.915 162.915 243.21 161.474 240.538C160.412 238.567 159.509 237.085 158.766 236.093C158.028 235.079 157.637 234.532 157.594 234.451C157.492 234.262 157.479 234.077 157.556 233.897C157.646 233.709 157.766 233.575 157.914 233.495C158.009 233.444 158.105 233.444 158.202 233.496C158.293 233.535 158.395 233.628 158.509 233.775C158.892 234.161 159.447 234.95 160.177 236.142C160.92 237.327 161.651 238.587 162.372 239.924C162.983 241.057 163.543 242.114 164.053 243.093C164.564 244.072 164.91 244.73 165.092 245.068C165.26 244.96 165.586 244.758 166.071 244.462C166.549 244.152 167.04 243.835 167.545 243.511C168.276 242.995 169.084 242.376 169.968 241.656C170.684 241.079 171.123 240.746 171.285 240.659C171.434 240.579 171.565 240.595 171.678 240.709C171.791 240.822 171.899 240.973 172 241.162C172.095 241.337 172.09 241.523 171.987 241.718C171.896 241.906 171.747 242.065 171.538 242.195ZM177.19 232.408C176.874 232.822 176.543 233.227 176.198 233.622C175.854 234.017 175.625 234.271 175.512 234.384C176.467 235.994 177.257 237.38 177.882 238.541C178.086 238.919 178.294 239.207 178.506 239.407C178.724 239.585 178.851 239.708 178.888 239.776C178.968 239.924 178.959 240.086 178.861 240.26C178.771 240.448 178.645 240.586 178.483 240.673C178.28 240.782 178.076 240.709 177.869 240.455C177.855 240.428 177.769 240.318 177.612 240.123C177.469 239.922 177.291 239.626 177.08 239.234C176.513 238.181 175.541 236.475 174.166 234.116C173.47 232.923 172.985 232.07 172.708 231.557C172.476 231.125 172.268 230.724 172.085 230.352C171.895 229.967 171.763 229.707 171.69 229.572C170.964 230.259 170.355 230.892 169.865 231.47C169.714 231.673 169.514 231.981 169.266 232.394C169.155 232.575 169.04 232.75 168.922 232.919C168.817 233.08 168.724 233.182 168.643 233.226C168.535 233.284 168.415 233.288 168.283 233.237C168.151 233.186 168.049 233.093 167.976 232.958C167.882 232.782 168.022 232.428 168.397 231.895C168.764 231.349 169.247 230.758 169.845 230.122C170.456 229.479 171.04 228.93 171.595 228.473C172.251 227.946 173.025 227.442 173.916 226.962C175.144 226.3 176.196 225.942 177.073 225.887C177.942 225.819 178.547 226.103 178.889 226.737C179.319 227.534 179.366 228.397 179.03 229.326C178.688 230.242 178.075 231.269 177.19 232.408ZM174.352 227.772C173.731 228.106 173.118 228.488 172.514 228.919C172.559 229.034 172.673 229.295 172.857 229.701C173.055 230.099 173.248 230.474 173.437 230.825L174.254 232.292C174.442 232.609 174.671 233.017 174.94 233.516C175.209 233.337 175.7 232.81 176.414 231.938C177.094 231.066 177.611 230.231 177.963 229.431C178.309 228.618 178.336 227.941 178.045 227.401C177.798 226.942 177.333 226.775 176.651 226.898C175.969 227.022 175.202 227.313 174.352 227.772ZM199.877 225.355C199.597 226.29 199.201 227.269 198.691 228.294C198.354 228.963 197.996 229.574 197.615 230.127C197.247 230.674 196.929 231.02 196.659 231.165C196.524 231.238 196.38 231.263 196.229 231.24C196.098 231.224 195.993 231.141 195.913 230.993C195.796 230.777 195.775 230.544 195.85 230.295C195.932 230.059 196.082 229.821 196.301 229.581C196.407 229.454 196.567 229.299 196.781 229.114C197.062 228.892 197.292 228.655 197.469 228.403C197.805 227.926 198.149 227.288 198.502 226.488C198.861 225.668 199.114 224.974 199.261 224.407C199.507 223.473 199.651 222.69 199.693 222.058C199.742 221.404 199.628 220.821 199.351 220.308C199.199 220.025 198.955 219.895 198.619 219.919C198.276 219.93 197.909 220.04 197.518 220.251C196.519 220.79 195.703 221.456 195.068 222.251C194.791 222.609 194.603 222.858 194.505 222.999C194.135 223.477 193.828 223.86 193.583 224.149C193.305 224.473 193.033 224.776 192.767 225.059C192.494 225.328 192.314 225.512 192.228 225.61L192.683 226.358C192.792 226.56 192.974 226.881 193.227 227.319C193.494 227.75 193.733 228.161 193.944 228.552C194.446 229.484 194.786 230.276 194.964 230.929C195.012 231.147 195.024 231.315 195 231.432C194.976 231.55 194.87 231.659 194.681 231.761C194.559 231.826 194.423 231.848 194.271 231.825C194.119 231.802 194.011 231.73 193.945 231.609C193.923 231.568 193.861 231.306 193.757 230.822C193.653 230.338 193.513 229.934 193.339 229.61C192.771 228.557 192 227.24 191.026 225.657L190.463 224.759C189.902 223.912 189.483 223.231 189.207 222.719C188.996 222.327 188.757 221.82 188.491 221.197C188.218 220.56 188.044 220.14 187.969 219.937C187.529 220.348 187.005 220.944 186.398 221.724C186.219 221.942 186.013 222.271 185.78 222.71C185.558 223.108 185.387 223.34 185.266 223.405C185.158 223.464 185.038 223.467 184.906 223.416C184.774 223.366 184.672 223.273 184.599 223.138C184.461 222.881 184.735 222.307 185.421 221.414C186.107 220.522 186.9 219.633 187.799 218.748C188.604 217.948 189.342 217.281 190.011 216.746C190.681 216.211 191.407 215.732 192.19 215.31C192.906 214.925 193.576 214.747 194.201 214.775C194.833 214.783 195.283 215.037 195.552 215.537C196.192 216.725 196.206 218.302 195.594 220.269C196.131 219.875 196.635 219.551 197.108 219.297C197.729 218.962 198.331 218.803 198.915 218.819C199.498 218.836 199.954 219.148 200.281 219.755C200.63 220.403 200.747 221.185 200.631 222.101C200.508 223.003 200.256 224.088 199.877 225.355ZM192.487 216.248C191.933 216.546 191.274 216.988 190.51 217.574C189.739 218.147 189.164 218.631 188.785 219.027C189.05 220.068 189.35 220.9 189.684 221.52C190.157 222.398 190.794 223.483 191.595 224.776C191.723 224.689 191.91 224.519 192.156 224.264C192.416 224.003 192.644 223.749 192.843 223.502C193.834 222.271 194.522 220.995 194.907 219.673C195.292 218.351 195.237 217.231 194.742 216.313C194.568 215.989 194.281 215.829 193.884 215.835C193.479 215.827 193.013 215.964 192.487 216.248ZM216.776 219.41C216.506 219.555 216.103 219.406 215.568 218.963C215.047 218.512 214.595 217.998 214.214 217.42C213.884 216.936 213.186 215.77 212.121 213.923C211.672 213.155 211.39 212.68 211.274 212.498C211.565 215.268 211.572 217.833 211.294 220.195C211.03 222.55 210.372 224.01 209.319 224.578C208.792 224.861 208.163 224.792 207.429 224.368C206.709 223.937 205.961 223.243 205.184 222.286C204.399 221.315 203.662 220.189 202.971 218.907C202.41 217.867 201.838 216.66 201.254 215.285C200.663 213.897 200.298 212.866 200.161 212.191C200.128 211.999 200.133 211.831 200.177 211.686C200.226 211.52 200.319 211.4 200.454 211.327C200.791 211.146 201.029 211.183 201.167 211.439C201.189 211.48 201.323 212.035 201.568 213.104C201.814 214.174 202.624 215.984 203.999 218.536C204.908 220.223 205.812 221.529 206.712 222.455C207.618 223.361 208.361 223.657 208.941 223.344C209.508 223.039 209.936 222.216 210.224 220.876C210.505 219.523 210.651 218.016 210.662 216.355C210.686 214.688 210.598 213.28 210.399 212.134C210.229 211.302 209.793 210.153 209.089 208.686C208.831 208.11 208.709 207.802 208.721 207.76C208.756 207.567 208.882 207.412 209.098 207.296C209.341 207.165 209.641 207.43 209.997 208.092C210.426 208.888 211.261 210.389 212.502 212.594C213.756 214.792 214.577 216.17 214.965 216.728C215.288 217.198 215.593 217.539 215.881 217.749C216.182 217.953 216.465 218.105 216.728 218.207C216.992 218.309 217.139 218.387 217.168 218.441C217.255 218.603 217.26 218.774 217.184 218.955C217.114 219.149 216.978 219.301 216.776 219.41ZM229.596 211.325C229.461 211.398 229.322 211.447 229.178 211.472C229.028 211.483 228.795 211.487 228.479 211.483C227.359 211.442 225.984 211.556 224.352 211.825C223.636 211.95 222.801 212.13 221.848 212.365C220.901 212.579 220.162 212.76 219.631 212.907L221.181 215.442C221.39 215.799 221.601 216.077 221.813 216.277C222.033 216.49 222.16 216.63 222.197 216.697C222.277 216.846 222.268 217.007 222.17 217.182C222.08 217.37 221.954 217.507 221.792 217.595C221.59 217.704 221.385 217.631 221.178 217.377C221.164 217.35 221.078 217.239 220.921 217.045C220.778 216.844 220.6 216.547 220.389 216.156C220.251 215.899 219.93 215.367 219.425 214.559C219.258 214.283 219.099 214.02 218.948 213.771C218.789 213.509 218.655 213.276 218.546 213.074C218.483 213.055 218.404 213.037 218.307 213.019C218.224 212.994 218.137 212.945 218.045 212.873C217.94 212.773 217.837 212.663 217.737 212.543C217.637 212.422 217.569 212.328 217.533 212.261C217.482 212.166 217.469 212.077 217.494 211.994C217.519 211.911 217.567 211.807 217.639 211.681C215.739 208.35 214.658 206.442 214.396 205.956C214.164 205.524 213.956 205.122 213.773 204.751C213.59 204.379 213.466 204.132 213.4 204.011C213.327 204.068 213.102 204.233 212.726 204.505C212.35 204.777 212.055 205.006 211.841 205.191C211.087 205.859 210.537 206.407 210.194 206.836C209.829 207.259 209.5 207.698 209.205 208.153C209.127 208.299 209.049 208.429 208.97 208.541C208.87 208.647 208.767 208.729 208.659 208.787C208.551 208.845 208.431 208.849 208.299 208.798C208.16 208.734 208.05 208.627 207.97 208.479C207.832 208.222 208.104 207.693 208.786 206.89C209.468 206.087 210.257 205.304 211.153 204.543C211.654 204.116 212.322 203.625 213.155 203.072C213.982 202.504 214.773 202.017 215.529 201.61C216.825 200.911 218.001 200.46 219.058 200.256C220.129 200.045 221.032 200.072 221.767 200.338C222.516 200.596 223.069 201.056 223.425 201.717C223.884 202.568 224.033 203.428 223.875 204.297C223.716 205.166 223.352 206.042 222.782 206.924C222.226 207.798 221.412 208.89 220.341 210.199C220.077 210.55 219.806 210.888 219.528 211.212C219.263 211.529 219.085 211.747 218.992 211.866C219.036 211.947 219.075 212.004 219.111 212.037C220.743 211.576 222.381 211.172 224.023 210.827L224.514 210.719C226.225 210.372 227.501 210.137 228.341 210.015C229.174 209.88 229.634 209.893 229.721 210.055C229.809 210.217 229.847 210.45 229.835 210.752C229.824 211.054 229.744 211.245 229.596 211.325ZM215.836 202.567C214.999 203.018 214.48 203.316 214.279 203.459C214.316 203.561 214.416 203.794 214.578 204.16C214.754 204.518 214.936 204.873 215.125 205.224L216.952 208.42L218.386 210.887C218.5 210.808 218.704 210.62 218.996 210.322C219.295 210.005 219.537 209.726 219.722 209.487C221.065 207.875 221.97 206.499 222.436 205.36C222.908 204.2 222.9 203.167 222.413 202.263C222.173 201.818 221.755 201.511 221.16 201.344C220.565 201.177 219.807 201.194 218.887 201.393C217.974 201.572 216.956 201.964 215.836 202.567ZM241.436 205.806C241.341 205.857 240.318 205.477 238.365 204.666C236.419 203.834 234.791 203.108 233.482 202.49C233.294 202.399 232.685 202.092 231.653 201.568C230.134 200.785 229.204 200.319 228.863 200.172L229.663 201.753L230.461 203.282C230.977 204.24 231.524 205.287 232.1 206.422C232.691 207.55 233.151 208.451 233.48 209.127C233.554 209.297 233.56 209.485 233.497 209.693C233.449 209.893 233.357 210.03 233.222 210.103C233.073 210.183 232.943 210.2 232.832 210.156C232.727 210.09 232.606 209.929 232.468 209.673C232.38 209.511 232.138 208.997 231.741 208.131C231.026 206.513 230.385 205.178 229.818 204.125C229.367 203.288 228.954 202.491 228.581 201.734C228.201 200.964 227.964 200.491 227.869 200.315L227.573 199.717L227.54 199.657C227.46 199.508 227.419 199.382 227.415 199.28C227.418 199.156 227.494 199.054 227.643 198.974L227.744 198.92C227.892 198.84 228.328 198.953 229.051 199.26C229.78 199.547 230.729 199.967 231.899 200.521C232.149 200.63 232.393 200.743 232.63 200.859C232.859 200.962 233.078 201.061 233.287 201.158C234.588 201.729 235.273 202.03 235.342 202.062C238.576 203.472 240.371 204.299 240.728 204.542C240.643 204.448 240.461 204.224 240.183 203.869C239.904 203.514 239.56 203.037 239.151 202.439C238.755 201.834 238.375 201.194 238.012 200.519C237.364 199.318 236.395 197.794 235.103 195.947C234.687 195.335 234.438 194.955 234.358 194.807C234.082 194.294 234.234 193.881 234.814 193.568C234.949 193.495 235.127 193.582 235.347 193.829C235.56 194.063 235.92 194.618 236.427 195.494C236.934 196.371 237.715 197.787 238.77 199.745C239.105 200.366 239.452 200.962 239.813 201.534C240.187 202.099 240.518 202.6 240.806 203.037C241.215 203.635 241.507 204.096 241.682 204.42L242.095 205.138C242.182 205.3 241.962 205.523 241.436 205.806ZM248.77 185.603C248.515 186.002 248.057 186.527 247.398 187.178C246.752 187.822 246.205 188.326 245.757 188.69C245.054 189.26 244.33 189.807 243.584 190.331C242.845 190.834 242.364 191.154 242.142 191.291C242.577 192.067 243.034 192.866 243.512 193.688C243.983 194.497 244.309 195.053 244.489 195.356C244.98 195.005 245.7 194.451 246.651 193.695L247.355 193.159C248.125 192.552 248.635 191.929 248.883 191.29C249.024 190.97 249.148 190.781 249.256 190.723C249.351 190.672 249.454 190.686 249.566 190.765C249.685 190.823 249.773 190.906 249.831 191.014C249.962 191.257 249.831 191.676 249.437 192.271C249.05 192.846 248.562 193.379 247.974 193.87C247.486 194.29 246.927 194.739 246.296 195.218C245.666 195.697 245.25 196.008 245.049 196.152C246.374 198.416 247.534 200.003 248.529 200.913C248.993 200.837 249.433 200.731 249.847 200.594C250.254 200.445 250.754 200.21 251.348 199.89C251.942 199.57 252.469 199.19 252.929 198.751C253.382 198.298 253.708 197.869 253.908 197.465C254.122 197.054 254.175 196.747 254.065 196.544C254.007 196.436 253.932 196.346 253.841 196.273C253.742 196.187 253.63 196.108 253.504 196.037C253.456 196.011 253.376 195.975 253.265 195.931C253.16 195.865 253.093 195.806 253.064 195.752C252.991 195.617 253.103 195.469 253.4 195.309C253.616 195.193 253.849 195.189 254.099 195.298C254.356 195.386 254.542 195.538 254.659 195.754C254.891 196.186 254.925 196.717 254.759 197.346C254.606 197.968 254.262 198.59 253.725 199.21C253.209 199.836 252.546 200.368 251.736 200.804C250.913 201.248 250.213 201.564 249.635 201.753C249.065 201.956 248.576 202.002 248.168 201.891C247.648 201.701 247.076 201.19 246.454 200.359C245.845 199.52 245.086 198.37 244.177 196.909C243.957 197.115 243.699 197.332 243.404 197.561C243.116 197.768 242.891 197.916 242.729 198.003C242.567 198.091 242.406 198.116 242.247 198.08C242.095 198.023 241.978 197.92 241.898 197.771C241.847 197.677 241.817 197.589 241.808 197.507C241.812 197.417 241.844 197.348 241.904 197.298C242.321 197.004 242.626 196.795 242.822 196.673L243.638 196.102C242.645 194.39 241.827 193.002 241.184 191.938C240.982 192.047 240.823 192.141 240.709 192.22L239.789 192.742C239.667 192.808 239.555 192.825 239.451 192.794C239.347 192.763 239.273 192.706 239.23 192.625C239.055 192.302 239.155 191.969 239.528 191.628C239.676 191.514 239.864 191.378 240.092 191.22C240.327 191.041 240.485 190.93 240.566 190.887C240.669 190.465 240.876 190.17 241.187 190.003C241.241 189.974 241.307 189.999 241.385 190.079C241.469 190.139 241.522 190.188 241.544 190.229C242.413 189.708 243.418 189.036 244.559 188.212C245.31 187.668 246.421 186.738 247.89 185.424L248.552 184.858C248.687 184.786 248.798 184.83 248.885 184.992C248.972 185.154 248.934 185.358 248.77 185.603ZM263.452 189.683C263.022 190.856 262.542 192.002 262.014 193.123C261.499 194.236 261.024 195.085 260.59 195.667C260.629 195.838 260.627 195.978 260.582 196.089C260.545 196.214 260.445 196.32 260.283 196.407C260.161 196.473 260.059 196.493 259.976 196.468C259.9 196.457 259.83 196.39 259.764 196.269C259.721 196.188 259.566 195.836 259.3 195.213C259.047 194.583 258.706 193.869 258.277 193.073C257.55 191.723 256.871 190.512 256.241 189.441C255.53 188.187 255.037 187.303 254.76 186.79C254.331 185.994 254.059 185.295 253.945 184.695C253.892 184.306 254.021 184.027 254.331 183.86C254.439 183.802 254.544 183.771 254.647 183.768C254.764 183.758 254.844 183.793 254.887 183.874C254.91 183.949 254.963 184.225 255.046 184.703C255.143 185.173 255.29 185.59 255.486 185.955C256.032 186.967 256.648 188.063 257.336 189.243C258.193 190.767 258.781 191.826 259.101 192.42C259.646 193.432 259.967 194.043 260.063 194.253C260.447 193.802 260.89 193.058 261.394 192.02C261.91 190.975 262.321 190.057 262.626 189.266C263.233 187.58 263.581 186.173 263.67 185.045C263.759 183.918 263.56 182.901 263.073 181.997C262.483 180.904 261.391 180.526 259.796 180.863C258.215 181.192 256.317 181.954 254.103 183.147C253.428 183.51 252.568 184.079 251.521 184.852C251.313 184.982 251.011 185.231 250.618 185.6C250.452 185.776 250.328 185.887 250.247 185.93C250.139 185.988 249.991 185.955 249.802 185.831C249.599 185.713 249.451 185.567 249.356 185.392C249.32 185.324 249.334 185.238 249.4 185.133C249.458 185.015 249.581 184.887 249.769 184.751C250.52 184.207 251.165 183.755 251.703 183.395C252.254 183.028 252.915 182.638 253.684 182.223C256.141 180.899 258.288 180.099 260.125 179.823C261.975 179.54 263.257 180.06 263.97 181.383C264.537 182.436 264.772 183.598 264.673 184.871C264.575 186.143 264.168 187.747 263.452 189.683Z" fill="white"/>
<path d="M170.264 270.824C170.187 271.025 169.95 271.299 169.554 271.645C169.146 271.971 168.866 272.188 168.712 272.297C169.297 272.989 169.584 273.325 169.573 273.304C169.994 273.74 170.53 274.366 171.181 275.181C172.669 277.056 174.001 278.618 175.177 279.866C175.534 280.283 175.735 280.533 175.779 280.615C175.89 280.82 175.902 281.039 175.815 281.272C175.728 281.504 175.572 281.681 175.346 281.803C175.14 281.913 174.895 281.9 174.609 281.763C174.334 281.646 174.121 281.522 173.971 281.391C173.41 280.792 172.814 280.106 172.185 279.331C171.576 278.546 170.843 277.603 169.984 276.502C169.614 276.012 169.127 275.427 168.521 274.746C167.905 274.044 167.499 273.587 167.305 273.374C166.181 274.191 164.273 275.643 161.581 277.73L159.96 279.001L160.293 281.168L160.759 284.098C161.246 286.724 161.663 288.726 162.008 290.104C162.101 290.425 162.105 290.728 162.02 291.012C161.946 291.317 161.775 291.542 161.508 291.685C161.282 291.807 161.054 291.851 160.823 291.816C160.613 291.77 160.447 291.634 160.325 291.409C160.203 291.183 160.066 290.633 159.914 289.761C159.773 288.909 159.685 288.401 159.648 288.235C159.62 287.985 159.529 287.424 159.377 286.552C159.213 285.607 159.031 284.459 158.833 283.108C158.645 281.725 158.523 280.81 158.467 280.363C157.553 281.174 156.877 281.789 156.441 282.21C155.771 282.836 155.344 283.199 155.159 283.298C154.933 283.42 154.714 283.432 154.503 283.334C154.3 283.205 154.144 283.037 154.033 282.832C153.9 282.585 153.873 282.388 153.952 282.239C154.02 282.07 154.176 281.867 154.419 281.63C155.1 281.024 155.822 280.397 156.585 279.747C157.369 279.086 157.908 278.636 158.204 278.398C158.088 277.691 157.971 277.105 157.852 276.639C157.79 276.327 157.716 275.943 157.629 275.487C157.551 274.999 157.434 274.412 157.277 273.728L156.893 271.908C156.19 268.735 155.795 266.92 155.708 266.463C155.656 266.12 155.626 265.844 155.62 265.636C155.634 265.416 155.723 265.262 155.888 265.173C156.299 264.952 156.702 264.814 157.097 264.76C157.116 264.697 157.133 264.582 157.149 264.414C157.174 264.215 157.227 264.067 157.307 263.971C157.397 263.843 157.535 263.729 157.72 263.63C158.089 263.43 158.737 263.624 159.664 264.212C160.61 264.789 161.62 265.53 162.692 266.437C163.324 266.971 164.211 267.805 165.352 268.939C166.482 270.053 167.225 270.792 167.581 271.157C167.867 270.95 168.096 270.76 168.268 270.588C168.45 270.384 168.566 270.255 168.617 270.202C168.697 270.105 168.772 269.972 168.839 269.803C168.907 269.634 168.982 269.501 169.062 269.405C169.132 269.288 169.245 269.227 169.401 269.222C169.734 269.202 170.006 269.386 170.217 269.777C170.294 269.92 170.336 270.097 170.342 270.305C170.369 270.503 170.343 270.676 170.264 270.824ZM161.919 267.807C161.222 267.202 160.432 266.621 159.548 266.063C158.665 265.506 158.013 265.207 157.595 265.168L157.687 266.152C157.718 267.143 157.802 268.012 157.939 268.759C158.244 270.504 158.78 273.369 159.55 277.354L162.822 274.795L165.531 272.739L166.297 272.167C165.995 271.853 165.364 271.199 164.404 270.205C163.434 269.191 162.605 268.392 161.919 267.807ZM187.114 249.777C187.052 249.81 186.809 249.875 186.383 249.971C185.968 250.036 185.606 250.152 185.298 250.318C184.312 250.849 183.22 251.504 182.023 252.282C180.825 253.06 179.865 253.763 179.143 254.39C179.736 255.343 180.629 256.876 181.821 258.99C183.023 261.073 184.255 263.285 185.517 265.627C186.048 266.612 186.62 267.722 187.232 268.957C187.864 270.179 188.227 270.951 188.32 271.272C188.401 271.52 188.357 271.783 188.188 272.059C188.04 272.325 187.842 272.524 187.596 272.657C187.452 272.734 187.295 272.739 187.126 272.671C186.957 272.603 186.828 272.487 186.74 272.323L186.189 271.228C185.449 269.559 184.448 267.554 183.186 265.213C182.279 263.528 181.223 261.619 180.02 259.484C178.805 257.329 178.039 256.006 177.721 255.514C173.857 258.18 171.341 260.079 170.176 261.211C169.973 261.426 169.718 261.616 169.41 261.782C169.04 261.982 168.609 262.042 168.116 261.963C167.623 261.884 167.293 261.691 167.127 261.383C167.016 261.177 167.001 261 167.08 260.852C167.147 260.683 167.274 260.548 167.459 260.449C168.596 259.756 169.549 259.163 170.317 258.67C172.056 257.52 174.219 256.024 176.803 254.18C176.46 253.543 176.227 253.086 176.104 252.808C176.001 252.519 176.001 252.346 176.103 252.291C176.494 252.081 176.926 252.047 177.4 252.189C177.495 252.217 177.635 252.354 177.82 252.599C177.994 252.823 178.103 252.976 178.147 253.058C178.588 252.794 179.272 252.293 180.199 251.555C182.23 250.01 183.656 249.016 184.477 248.574C185.463 248.042 186.187 247.811 186.648 247.881C186.963 247.923 187.236 248.16 187.469 248.591C187.557 248.756 187.579 248.969 187.535 249.231C187.48 249.473 187.339 249.655 187.114 249.777ZM221.784 252.642L216.701 255.898L213.2 258.182L211.373 259.366C211.209 259.454 210.999 259.435 210.745 259.307C210.511 259.168 210.344 259.006 210.244 258.821C210.167 258.677 210.153 258.552 210.202 258.446C210.26 258.309 210.335 258.202 210.427 258.126C210.528 258.019 210.593 257.944 210.623 257.901C210.046 256.781 208.662 254.187 206.47 250.12C204.854 247.121 203.48 244.867 202.348 243.356C201.225 241.814 200.63 240.982 200.564 240.858C200.409 240.571 200.39 240.289 200.507 240.014C200.644 239.728 200.826 239.524 201.052 239.403C201.196 239.325 201.342 239.326 201.49 239.405C201.628 239.463 201.784 239.605 201.958 239.829C202.539 240.417 203.385 241.618 204.495 243.431C205.626 245.234 206.739 247.152 207.835 249.186C208.765 250.911 209.618 252.519 210.394 254.009C211.171 255.499 211.697 256.501 211.974 257.014C212.23 256.85 212.727 256.542 213.465 256.091C214.192 255.62 214.939 255.138 215.707 254.645C216.821 253.859 218.05 252.918 219.394 251.822C220.485 250.943 221.153 250.438 221.399 250.305C221.625 250.183 221.824 250.208 221.997 250.38C222.169 250.553 222.333 250.782 222.488 251.07C222.632 251.337 222.625 251.619 222.467 251.916C222.329 252.202 222.102 252.444 221.784 252.642ZM237.723 234.47C237.646 234.671 237.409 234.945 237.012 235.291C236.605 235.616 236.324 235.834 236.171 235.943C236.756 236.635 237.043 236.971 237.032 236.95C237.452 237.386 237.988 238.012 238.64 238.827C240.127 240.702 241.459 242.264 242.636 243.512C242.993 243.929 243.194 244.179 243.238 244.261C243.349 244.466 243.361 244.685 243.274 244.918C243.187 245.15 243.03 245.327 242.804 245.449C242.599 245.559 242.353 245.546 242.067 245.409C241.792 245.292 241.58 245.168 241.429 245.037C240.868 244.438 240.273 243.752 239.644 242.977C239.035 242.192 238.301 241.249 237.443 240.148C237.073 239.658 236.585 239.073 235.98 238.392C235.363 237.69 234.958 237.233 234.763 237.02C233.64 237.837 231.732 239.289 229.04 241.376L227.419 242.647L227.752 244.814L228.217 247.744C228.705 250.37 229.121 252.372 229.466 253.75C229.56 254.071 229.564 254.374 229.478 254.658C229.404 254.963 229.234 255.187 228.967 255.331C228.741 255.453 228.512 255.497 228.282 255.462C228.071 255.416 227.905 255.28 227.784 255.054C227.662 254.829 227.525 254.279 227.373 253.407C227.232 252.555 227.143 252.047 227.107 251.881C227.078 251.631 226.988 251.07 226.836 250.198C226.671 249.253 226.49 248.105 226.292 246.753C226.104 245.371 225.982 244.456 225.926 244.009C225.011 244.82 224.336 245.435 223.9 245.856C223.23 246.482 222.803 246.845 222.618 246.944C222.392 247.066 222.173 247.078 221.961 246.98C221.759 246.851 221.602 246.683 221.492 246.478C221.359 246.231 221.332 246.034 221.411 245.885C221.479 245.716 221.634 245.513 221.878 245.276C222.559 244.67 223.281 244.043 224.044 243.393C224.827 242.732 225.367 242.282 225.662 242.044C225.547 241.337 225.429 240.751 225.311 240.285C225.249 239.973 225.175 239.589 225.088 239.133C225.01 238.644 224.893 238.058 224.736 237.374L224.351 235.554C223.649 232.38 223.254 230.566 223.167 230.109C223.114 229.766 223.085 229.49 223.079 229.282C223.093 229.062 223.182 228.908 223.346 228.819C223.757 228.598 224.16 228.46 224.555 228.406C224.574 228.343 224.592 228.228 224.607 228.06C224.632 227.861 224.685 227.713 224.766 227.617C224.856 227.489 224.993 227.375 225.178 227.275C225.548 227.076 226.196 227.27 227.122 227.858C228.069 228.434 229.078 229.176 230.15 230.083C230.783 230.617 231.669 231.451 232.811 232.585C233.941 233.699 234.684 234.438 235.04 234.803C235.326 234.596 235.555 234.406 235.727 234.234C235.909 234.03 236.025 233.901 236.075 233.847C236.156 233.751 236.23 233.618 236.298 233.449C236.366 233.28 236.44 233.147 236.521 233.051C236.59 232.934 236.703 232.873 236.86 232.868C237.193 232.848 237.465 233.032 237.675 233.423C237.753 233.566 237.795 233.743 237.801 233.951C237.828 234.149 237.802 234.322 237.723 234.47ZM229.378 231.453C228.681 230.848 227.89 230.267 227.007 229.709C226.123 229.152 225.472 228.853 225.053 228.814L225.146 229.798C225.176 230.789 225.26 231.658 225.398 232.405C225.702 234.15 226.239 237.015 227.008 241L230.281 238.441L232.99 236.385L233.755 235.813C233.453 235.499 232.823 234.845 231.863 233.851C230.892 232.837 230.064 232.038 229.378 231.453ZM262.551 233.098C262.14 233.319 261.528 233.092 260.714 232.418C259.92 231.732 259.233 230.949 258.653 230.069C258.15 229.333 257.088 227.56 255.467 224.749C254.784 223.579 254.355 222.857 254.179 222.58C254.622 226.795 254.632 230.699 254.21 234.293C253.808 237.876 252.806 240.099 251.204 240.962C250.403 241.394 249.444 241.287 248.328 240.643C247.233 239.988 246.094 238.931 244.911 237.475C243.718 235.998 242.595 234.283 241.543 232.332C240.691 230.75 239.82 228.914 238.932 226.822C238.032 224.709 237.477 223.139 237.268 222.112C237.218 221.821 237.225 221.565 237.292 221.344C237.367 221.091 237.508 220.909 237.713 220.798C238.227 220.522 238.589 220.579 238.799 220.969C238.832 221.03 239.036 221.875 239.409 223.503C239.783 225.13 241.016 227.885 243.108 231.767C244.491 234.335 245.868 236.323 247.237 237.732C248.615 239.11 249.746 239.561 250.629 239.085C251.492 238.62 252.143 237.368 252.581 235.329C253.009 233.27 253.231 230.977 253.248 228.45C253.285 225.912 253.151 223.77 252.847 222.026C252.589 220.76 251.925 219.011 250.854 216.778C250.462 215.903 250.275 215.434 250.294 215.37C250.348 215.076 250.539 214.841 250.868 214.664C251.237 214.465 251.693 214.868 252.236 215.875C252.889 217.087 254.159 219.37 256.048 222.726C257.956 226.071 259.205 228.168 259.795 229.016C260.287 229.732 260.752 230.25 261.189 230.571C261.648 230.881 262.078 231.113 262.479 231.268C262.881 231.422 263.104 231.541 263.148 231.623C263.281 231.869 263.289 232.13 263.172 232.405C263.066 232.701 262.859 232.931 262.551 233.098ZM280.821 222.775C280.677 222.852 279.119 222.273 276.148 221.039C273.186 219.772 270.709 218.668 268.718 217.727C268.432 217.59 267.504 217.122 265.934 216.325C263.622 215.133 262.206 214.424 261.688 214.2L262.905 216.606L264.119 218.933C264.905 220.391 265.737 221.984 266.615 223.711C267.513 225.427 268.213 226.799 268.714 227.828C268.826 228.086 268.835 228.372 268.74 228.688C268.666 228.993 268.527 229.201 268.321 229.312C268.095 229.434 267.898 229.461 267.729 229.393C267.569 229.293 267.384 229.048 267.174 228.658C267.041 228.412 266.672 227.63 266.068 226.312C264.98 223.85 264.004 221.818 263.141 220.216C262.454 218.942 261.827 217.73 261.26 216.578C260.681 215.405 260.32 214.686 260.176 214.419L259.725 213.509L259.675 213.416C259.553 213.19 259.49 212.999 259.485 212.843C259.49 212.654 259.605 212.5 259.831 212.378L259.985 212.295C260.211 212.173 260.874 212.346 261.974 212.813C263.084 213.249 264.529 213.889 266.308 214.732C266.689 214.898 267.06 215.069 267.42 215.246C267.77 215.402 268.103 215.554 268.421 215.701C270.4 216.569 271.442 217.028 271.548 217.077C276.468 219.223 279.2 220.481 279.744 220.85C279.614 220.708 279.338 220.367 278.914 219.826C278.49 219.286 277.967 218.561 277.344 217.651C276.742 216.73 276.164 215.756 275.61 214.729C274.625 212.9 273.15 210.581 271.184 207.77C270.55 206.84 270.172 206.261 270.051 206.036C269.63 205.255 269.861 204.627 270.745 204.151C270.95 204.04 271.22 204.173 271.555 204.549C271.879 204.904 272.427 205.749 273.199 207.082C273.971 208.416 275.159 210.572 276.764 213.55C277.273 214.495 277.802 215.403 278.351 216.273C278.92 217.133 279.424 217.895 279.862 218.56C280.485 219.47 280.929 220.172 281.195 220.665L281.823 221.757C281.956 222.004 281.622 222.343 280.821 222.775ZM300.006 206.551C299.774 208.187 299.228 209.953 298.367 211.848C297.496 213.722 296.187 215.13 294.441 216.071C292.592 217.067 290.8 217.357 289.065 216.94C287.318 216.503 285.886 215.247 284.768 213.173C284.004 211.755 283.387 210.02 282.917 207.968C282.447 205.915 282.187 204.054 282.136 202.385C282.094 200.685 282.277 199.155 282.684 197.796C283.112 196.426 283.778 195.497 284.681 195.01C285.565 194.534 286.414 194.487 287.23 194.869C288.066 195.24 288.738 195.898 289.248 196.843C289.436 197.192 289.558 197.591 289.613 198.038C289.678 198.453 289.695 198.829 289.663 199.164C289.632 199.499 289.575 199.688 289.493 199.733C289.328 199.821 289.196 199.773 289.097 199.588C289.064 199.527 289.022 199.377 288.973 199.138C288.934 198.868 288.875 198.661 288.798 198.517C288.521 198.003 288.199 197.554 287.832 197.168C287.519 196.833 287.142 196.626 286.701 196.545C286.249 196.444 285.839 196.494 285.469 196.693C283.99 197.49 283.373 199.665 283.617 203.217C283.724 204.644 283.99 206.171 284.415 207.797C284.841 209.423 285.414 210.903 286.133 212.238C286.631 213.163 287.27 213.905 288.049 214.466C288.849 215.016 289.72 215.328 290.662 215.404C291.624 215.468 292.578 215.246 293.523 214.737C295.022 213.929 296.184 212.838 297.009 211.466C297.854 210.083 298.568 208.506 299.15 206.734C299.169 206.671 299.191 206.368 299.216 205.824C299.23 205.26 299.299 204.944 299.422 204.878C299.545 204.812 299.644 204.798 299.718 204.838C299.793 204.877 299.874 204.979 299.963 205.143C300.073 205.349 300.088 205.818 300.006 206.551ZM316.574 193.408C316.27 193.731 315.863 194.057 315.351 194.385C314.848 194.683 314.515 194.876 314.351 194.964C314.673 195.612 315.014 196.343 315.373 197.157C315.732 197.97 316.029 198.645 316.265 199.181L316.687 200.186L317.157 201.205L318.251 203.677C318.733 204.769 318.676 205.475 318.081 205.796C317.855 205.918 317.485 205.773 316.971 205.36C316.489 204.958 316.159 204.592 315.982 204.263C315.938 204.181 315.932 203.972 315.963 203.637C315.995 203.302 315.931 202.939 315.773 202.547C315.545 201.928 315.123 200.923 314.506 199.532C313.889 198.142 313.358 196.983 312.912 196.058C312.144 196.551 311.331 197.108 310.473 197.73C310.085 197.992 309.21 198.583 307.85 199.501C306.49 200.42 305.41 201.121 304.61 201.605C305.259 203.005 306.057 204.708 307.006 206.715C307.955 208.722 308.546 209.941 308.778 210.372C308.867 210.536 309.003 210.741 309.188 210.986C309.394 211.22 309.536 211.408 309.613 211.552C309.713 211.737 309.668 211.999 309.481 212.339C309.313 212.668 309.147 212.877 308.983 212.965C308.778 213.076 308.531 213.037 308.243 212.847C307.976 212.646 307.748 212.372 307.56 212.022C307.461 211.837 307.315 211.518 307.124 211.065C306.943 210.632 306.781 210.256 306.635 209.937C306.418 209.338 306.226 208.858 306.059 208.498C305.508 207.231 304.959 206.016 304.412 204.853C303.865 203.69 303.496 202.908 303.307 202.506C302.134 203.43 300.973 204.201 299.823 204.821C299.433 205.031 299.054 205.116 298.687 205.075C298.289 205.025 297.99 204.815 297.791 204.445C297.647 204.178 297.614 203.944 297.691 203.743C297.737 203.533 297.965 203.317 298.376 203.096L300.026 202.247C301.116 201.712 301.99 201.268 302.647 200.913C301.809 199.112 301.108 197.688 300.543 196.64C299.259 194.258 298.087 192.132 297.028 190.265L296.413 189.125C296.247 188.817 296.227 188.509 296.354 188.203C296.49 187.864 296.712 187.612 297.02 187.446C297.246 187.325 297.494 187.416 297.764 187.721C298.034 188.026 298.286 188.394 298.518 188.825C298.762 189.277 299.209 190.229 299.859 191.681C301.019 194.13 301.639 195.427 301.716 195.571L303.936 200.06C305.64 199.089 308.423 197.244 312.286 194.526C312.047 193.886 311.349 192.248 310.193 189.611C309.556 188.231 309.102 187.217 308.832 186.567L307.721 184.065C306.361 180.901 305.476 178.94 305.067 178.18C304.923 177.913 304.909 177.642 305.026 177.366C305.143 177.091 305.335 176.882 305.602 176.738C305.972 176.539 306.35 176.799 306.738 177.518C306.981 177.97 307.526 179.226 308.372 181.289C309.519 183.957 310.159 185.441 310.294 185.74C311.023 187.388 311.713 188.964 312.365 190.468C313.037 191.961 313.485 192.965 313.71 193.481C314.047 193.22 314.325 192.95 314.547 192.672C314.85 192.349 315.104 192.133 315.31 192.022C315.515 191.911 315.818 191.907 316.218 192.01C316.617 192.113 316.845 192.215 316.9 192.318C317.077 192.647 316.969 193.01 316.574 193.408Z" fill="white"/>
<defs>
<linearGradient id="paint0_linear_106_274" x1="23.0557" y1="332.514" x2="430.483" y2="332.514" gradientUnits="userSpaceOnUse">
<stop stop-color="#72159E"/>
<stop offset="1" stop-color="#080838"/>
</linearGradient>
</defs>
</svg>
