<svg width="474" height="358" viewBox="0 0 474 358" fill="none" xmlns="http://www.w3.org/2000/svg">
<rect x="31.0146" y="132.444" width="407.428" height="109.34" rx="50" transform="rotate(-2.37398 31.0146 132.444)" fill="url(#paint0_linear_106_282)"/>
<path d="M169.634 166.217C168.807 166.254 168.018 166.121 167.268 165.817C166.517 165.498 165.896 165.012 165.406 164.359C164.916 163.706 164.65 162.904 164.607 161.955C164.533 160.331 164.879 158.635 165.643 156.866C166.406 155.081 167.504 153.389 168.936 151.79C169.083 151.645 169.224 151.546 169.36 151.494C169.496 151.442 169.655 151.412 169.839 151.403C169.992 151.396 170.14 151.428 170.281 151.499C170.438 151.568 170.518 151.657 170.523 151.764C170.526 151.825 170.5 151.918 170.444 152.044C170.403 152.153 170.375 152.223 170.361 152.255C170.453 152.251 170.56 152.238 170.682 152.217C170.818 152.18 171.078 152.153 171.461 152.136C171.905 152.116 172.506 152.165 173.264 152.285C174.036 152.388 174.601 152.508 174.961 152.645C175.976 153.044 176.761 153.585 177.313 154.266C177.865 154.931 178.159 155.662 178.195 156.459C178.267 158.037 177.891 159.566 177.067 161.046C176.244 162.526 175.156 163.741 173.802 164.693C172.448 165.644 171.059 166.152 169.634 166.217ZM174.609 153.536C174.156 153.357 173.593 153.283 172.919 153.313C172.704 153.323 172.414 153.351 172.048 153.399L171.199 153.46C170.463 153.493 170.089 153.357 170.075 153.05C170.07 152.943 170.073 152.843 170.084 152.751C170.096 152.658 170.108 152.596 170.122 152.565C169.8 152.579 169.544 152.683 169.353 152.876C168.156 154.235 167.246 155.665 166.623 157.167C166.016 158.668 165.744 160.115 165.807 161.509C165.866 162.811 166.23 163.746 166.901 164.314C167.586 164.867 168.495 165.117 169.628 165.066C170.915 165.008 172.154 164.583 173.347 163.793C174.554 163.001 175.514 161.991 176.226 160.761C176.953 159.531 177.287 158.273 177.229 156.986C177.189 156.098 176.95 155.387 176.511 154.854C176.072 154.306 175.438 153.867 174.609 153.536ZM193.929 158.786C193.89 159.617 193.786 160.535 193.616 161.54C193.447 162.546 193.225 163.415 192.952 164.149C192.677 164.868 192.379 165.234 192.057 165.249C191.858 165.258 191.613 164.923 191.321 164.246C191.03 163.568 190.647 162.573 190.173 161.259L189.724 159.99C189.409 159.114 189.062 158.231 188.684 157.343C188.305 156.439 188.015 155.8 187.814 155.425L186.979 158.848C186.215 161.983 185.653 164.134 185.291 165.301C185.277 165.333 185.236 165.442 185.168 165.629C185.115 165.831 185.007 165.982 184.843 166.081C184.679 166.196 184.459 166.26 184.184 166.272C184.122 166.275 183.974 165.883 183.739 165.095C183.519 164.307 183.288 163.435 183.045 162.479C182.441 160.311 182.12 159.167 182.084 159.046C181.648 157.561 181.291 156.449 181.012 155.71C180.748 154.97 180.521 154.527 180.33 154.382C180.061 154.195 179.921 153.986 179.911 153.757C179.906 153.65 179.977 153.531 180.125 153.402C180.287 153.256 180.476 153.179 180.69 153.169C180.874 153.161 181.02 153.169 181.129 153.195C181.237 153.206 181.324 153.263 181.39 153.368C181.62 153.71 182.101 155.177 182.832 157.769C182.902 157.965 182.992 158.26 183.102 158.655C183.484 159.973 183.804 161.109 184.062 162.065C184.207 162.549 184.327 162.989 184.421 163.384C184.531 163.763 184.62 164.05 184.691 164.246C184.7 164.108 184.829 163.565 185.077 162.617C185.512 161.032 185.843 159.689 186.069 158.589C186.311 157.473 186.537 156.55 186.75 155.819C186.962 155.072 187.132 154.604 187.262 154.414C187.349 154.303 187.467 154.205 187.617 154.122C187.781 154.022 187.94 153.969 188.093 153.962C188.201 153.957 188.287 153.992 188.351 154.066C188.415 154.124 188.473 154.206 188.524 154.311C188.574 154.416 188.624 154.506 188.674 154.581C188.841 154.88 189.115 155.512 189.496 156.477C189.893 157.442 190.251 158.393 190.569 159.33L190.939 160.372C191.506 162.05 191.917 163.167 192.173 163.724C192.66 162.627 192.947 160.819 193.032 158.297C193.097 157.343 193.09 156 193.011 154.269L192.883 151.95C192.874 151.751 192.891 151.612 192.934 151.533C192.975 151.439 193.08 151.388 193.249 151.381C193.433 151.372 193.612 151.426 193.786 151.54C193.959 151.64 194.049 151.759 194.055 151.897C194.105 153 194.112 154.181 194.077 155.441C194.042 156.702 193.993 157.817 193.929 158.786ZM208.698 164.634C208.591 164.639 207.834 163.852 206.427 162.273C205.035 160.679 203.884 159.318 202.973 158.193C202.843 158.03 202.427 157.489 201.726 156.569C200.697 155.203 200.061 154.38 199.818 154.1L199.852 155.871L199.907 157.595C199.956 158.683 199.994 159.863 200.021 161.136C200.064 162.408 200.086 163.42 200.09 164.172C200.083 164.356 200.006 164.528 199.86 164.688C199.729 164.848 199.587 164.931 199.434 164.938C199.265 164.946 199.14 164.905 199.06 164.817C198.994 164.712 198.954 164.515 198.941 164.224C198.932 164.04 198.937 163.472 198.956 162.519C199.014 160.751 199.016 159.27 198.962 158.075C198.919 157.126 198.894 156.229 198.886 155.385C198.878 154.526 198.87 153.997 198.861 153.797L198.853 153.13L198.85 153.061C198.843 152.893 198.86 152.761 198.902 152.667C198.958 152.557 199.07 152.499 199.239 152.491L199.354 152.486C199.522 152.478 199.865 152.77 200.383 153.36C200.916 153.935 201.589 154.725 202.402 155.732C202.58 155.939 202.75 156.146 202.913 156.354C203.075 156.546 203.23 156.731 203.376 156.909C204.299 157.987 204.786 158.556 204.834 158.615C207.135 161.29 208.393 162.814 208.61 163.188C208.574 163.066 208.507 162.785 208.411 162.345C208.314 161.904 208.211 161.325 208.102 160.609C208.008 159.892 207.944 159.15 207.909 158.384C207.847 157.021 207.636 155.227 207.274 153.002C207.164 152.271 207.106 151.821 207.098 151.652C207.072 151.07 207.388 150.764 208.047 150.734C208.2 150.727 208.322 150.883 208.413 151.201C208.503 151.504 208.587 152.16 208.663 153.17C208.74 154.179 208.828 155.795 208.928 158.016C208.96 158.72 209.015 159.409 209.091 160.081C209.183 160.752 209.263 161.347 209.333 161.866C209.442 162.582 209.505 163.124 209.522 163.492L209.582 164.318C209.59 164.502 209.296 164.607 208.698 164.634ZM224.076 149.618C223.673 149.866 223.033 150.141 222.157 150.441C221.295 150.741 220.584 150.958 220.022 151.091C219.141 151.299 218.251 151.478 217.352 151.626C216.468 151.758 215.896 151.837 215.636 151.864C215.692 152.752 215.756 153.67 215.83 154.619C215.903 155.552 215.955 156.194 215.986 156.545C216.58 156.442 217.47 156.256 218.655 155.987L219.521 155.81C220.479 155.598 221.208 155.258 221.709 154.79C221.975 154.563 222.169 154.447 222.291 154.441C222.399 154.437 222.486 154.494 222.553 154.614C222.634 154.718 222.677 154.831 222.683 154.953C222.695 155.229 222.395 155.549 221.783 155.915C221.184 156.264 220.513 156.533 219.77 156.72C219.148 156.886 218.449 157.048 217.674 157.206C216.898 157.364 216.388 157.464 216.145 157.505C216.355 160.12 216.711 162.054 217.213 163.305C217.664 163.438 218.106 163.533 218.538 163.59C218.97 163.632 219.523 163.638 220.197 163.607C220.871 163.577 221.51 163.464 222.115 163.267C222.72 163.056 223.2 162.812 223.555 162.535C223.927 162.257 224.107 162.003 224.097 161.773C224.091 161.651 224.063 161.537 224.012 161.432C223.961 161.311 223.894 161.192 223.812 161.072C223.779 161.028 223.722 160.961 223.641 160.873C223.575 160.768 223.541 160.686 223.538 160.624C223.531 160.471 223.696 160.387 224.033 160.372C224.278 160.361 224.49 160.459 224.668 160.665C224.861 160.856 224.963 161.074 224.974 161.319C224.996 161.809 224.796 162.302 224.373 162.797C223.966 163.291 223.386 163.701 222.633 164.027C221.896 164.367 221.068 164.558 220.149 164.6C219.215 164.642 218.447 164.623 217.844 164.543C217.243 164.478 216.782 164.307 216.463 164.03C216.076 163.633 215.783 162.924 215.584 161.905C215.4 160.885 215.215 159.52 215.03 157.809C214.743 157.899 214.416 157.983 214.052 158.06C213.701 158.122 213.434 158.157 213.251 158.166C213.067 158.174 212.911 158.127 212.784 158.026C212.671 157.908 212.611 157.765 212.603 157.596C212.598 157.489 212.609 157.397 212.637 157.319C212.679 157.24 212.738 157.191 212.814 157.172C213.317 157.088 213.683 157.033 213.912 157.008L214.895 156.848C214.744 154.875 214.61 153.269 214.493 152.031C214.263 152.042 214.079 152.058 213.942 152.079L212.886 152.15C212.748 152.156 212.64 152.123 212.559 152.05C212.479 151.977 212.437 151.894 212.433 151.802C212.417 151.435 212.651 151.178 213.135 151.034C213.318 150.995 213.546 150.954 213.82 150.911C214.109 150.851 214.3 150.82 214.392 150.816C214.668 150.481 214.982 150.305 215.335 150.289C215.396 150.287 215.444 150.338 215.48 150.444C215.53 150.534 215.556 150.602 215.558 150.648C216.567 150.556 217.764 150.387 219.15 150.14C220.063 149.976 221.467 149.621 223.361 149.075L224.203 148.852C224.356 148.845 224.437 148.934 224.445 149.118C224.453 149.301 224.331 149.468 224.076 149.618ZM239.458 162.483C239.305 162.49 239.158 162.473 239.018 162.434C238.877 162.379 238.666 162.281 238.383 162.14C237.392 161.617 236.104 161.123 234.517 160.657C233.817 160.459 232.987 160.258 232.026 160.056C231.08 159.838 230.336 159.68 229.795 159.582L230.09 162.538C230.124 162.951 230.193 163.293 230.297 163.565C230.402 163.852 230.457 164.034 230.46 164.11C230.468 164.279 230.39 164.42 230.226 164.535C230.063 164.665 229.89 164.735 229.706 164.743C229.476 164.753 229.323 164.599 229.247 164.28C229.246 164.249 229.217 164.113 229.16 163.87C229.118 163.626 229.087 163.282 229.067 162.838C229.054 162.547 228.995 161.928 228.891 160.981C228.861 160.66 228.832 160.354 228.804 160.064C228.774 159.758 228.755 159.49 228.744 159.261C228.696 159.217 228.632 159.166 228.553 159.108C228.489 159.05 228.432 158.968 228.381 158.863C228.329 158.727 228.284 158.583 228.246 158.431C228.209 158.28 228.188 158.165 228.185 158.089C228.18 157.982 228.207 157.896 228.265 157.832C228.324 157.768 228.412 157.695 228.531 157.613C228.266 153.787 228.121 151.599 228.096 151.048C228.074 150.557 228.061 150.105 228.058 149.691C228.055 149.277 228.05 149.001 228.044 148.863C227.952 148.882 227.678 148.933 227.222 149.015C226.765 149.097 226.4 149.175 226.127 149.249C225.157 149.523 224.424 149.779 223.929 150.016C223.417 150.239 222.929 150.491 222.466 150.773C222.333 150.871 222.206 150.953 222.086 151.02C221.95 151.072 221.821 151.101 221.699 151.107C221.576 151.112 221.466 151.064 221.37 150.96C221.272 150.842 221.22 150.699 221.212 150.53C221.199 150.239 221.674 149.88 222.637 149.453C223.6 149.025 224.65 148.663 225.788 148.366C226.425 148.199 227.239 148.047 228.231 147.91C229.222 147.758 230.146 147.663 231.004 147.624C232.474 147.557 233.73 147.662 234.771 147.937C235.827 148.211 236.628 148.628 237.176 149.186C237.738 149.744 238.036 150.398 238.07 151.149C238.114 152.114 237.876 152.954 237.355 153.668C236.835 154.382 236.127 155.013 235.231 155.56C234.35 156.106 233.143 156.736 231.609 157.45C231.219 157.652 230.829 157.839 230.437 158.01C230.061 158.18 229.806 158.299 229.671 158.367C229.675 158.459 229.686 158.527 229.703 158.573C231.374 158.865 233.024 159.213 234.654 159.615L235.143 159.731C236.835 160.161 238.087 160.504 238.896 160.759C239.705 160.998 240.114 161.21 240.122 161.394C240.13 161.578 240.064 161.803 239.923 162.07C239.781 162.338 239.626 162.475 239.458 162.483ZM230.865 148.62C229.915 148.663 229.318 148.705 229.074 148.747C229.064 148.855 229.052 149.109 229.04 149.508C229.042 149.907 229.053 150.306 229.071 150.704L229.329 154.376L229.55 157.221C229.687 157.2 229.952 157.119 230.345 156.978C230.752 156.822 231.091 156.676 231.361 156.541C233.271 155.672 234.683 154.825 235.597 154.001C236.526 153.16 236.968 152.227 236.921 151.201C236.898 150.696 236.655 150.238 236.192 149.83C235.728 149.421 235.038 149.107 234.123 148.887C233.222 148.652 232.136 148.563 230.865 148.62ZM245.679 163.606C244.683 163.651 243.89 163.602 243.301 163.46C242.712 163.333 242.411 163.124 242.398 162.833C242.391 162.68 242.486 162.423 242.685 162.061C242.898 161.683 243.066 161.491 243.188 161.485C243.372 161.477 243.466 161.511 243.469 161.588C243.471 161.634 243.443 161.689 243.385 161.753C243.342 161.816 243.321 161.878 243.324 161.94C243.326 161.986 243.421 162.05 243.609 162.134C243.812 162.217 244.115 162.288 244.517 162.346C244.918 162.405 245.403 162.421 245.969 162.396C246.873 162.355 247.654 162.143 248.312 161.76C248.985 161.377 249.494 160.908 249.837 160.356C250.181 159.803 250.341 159.274 250.318 158.768C250.288 158.11 249.941 157.558 249.276 157.112C248.627 156.665 247.587 156.26 246.159 155.894C244.775 155.512 243.702 155.192 242.938 154.935C242.189 154.662 241.575 154.321 241.096 153.913C240.617 153.49 240.363 152.964 240.334 152.336C240.296 151.493 240.733 150.645 241.646 149.79C242.559 148.92 243.7 148.201 245.071 147.632C246.442 147.048 247.724 146.729 248.919 146.675C249.532 146.648 249.867 146.755 249.924 146.998C249.981 147.241 250.016 147.516 250.03 147.822C250.04 148.052 249.961 148.171 249.793 148.178C249.716 148.182 249.623 148.163 249.514 148.122C249.419 148.065 249.333 148.023 249.255 147.995C249.162 147.969 249.053 147.943 248.929 147.918C248.805 147.893 248.628 147.886 248.399 147.896C247.602 147.932 246.654 148.182 245.555 148.646C244.455 149.11 243.506 149.668 242.706 150.318C241.922 150.967 241.543 151.575 241.569 152.142C241.589 152.601 241.791 152.991 242.174 153.312C242.572 153.631 243.091 153.9 243.73 154.116C244.368 154.318 245.27 154.569 246.435 154.869C248.142 155.283 249.408 155.778 250.232 156.355C251.071 156.931 251.511 157.663 251.551 158.551C251.586 159.317 251.36 160.087 250.873 160.861C250.401 161.62 249.708 162.249 248.794 162.751C247.897 163.268 246.858 163.553 245.679 163.606ZM266.244 156.183C265.972 156.287 265.638 156.364 265.241 156.413C264.859 156.445 264.607 156.464 264.484 156.47C264.49 156.945 264.484 157.475 264.464 158.059C264.444 158.644 264.428 159.128 264.414 159.512L264.378 160.228L264.365 160.965L264.307 162.74C264.281 163.524 264.046 163.926 263.602 163.946C263.434 163.954 263.256 163.763 263.07 163.372C262.899 162.996 262.808 162.685 262.797 162.44C262.794 162.379 262.85 162.254 262.964 162.064C263.079 161.875 263.145 161.642 263.163 161.365C263.205 160.933 263.241 160.218 263.273 159.218C263.305 158.219 263.32 157.382 263.321 156.707C262.725 156.78 262.085 156.878 261.4 157.001C261.095 157.045 260.409 157.145 259.341 157.301C258.274 157.457 257.435 157.564 256.823 157.622C256.808 158.636 256.795 159.872 256.784 161.331C256.773 162.789 256.775 163.68 256.79 164.001C256.795 164.124 256.818 164.284 256.857 164.482C256.912 164.679 256.942 164.831 256.947 164.938C256.953 165.076 256.852 165.219 256.644 165.366C256.451 165.513 256.293 165.589 256.171 165.595C256.018 165.602 255.883 165.508 255.767 165.314C255.666 165.119 255.61 164.891 255.598 164.631C255.592 164.493 255.596 164.262 255.613 163.939C255.629 163.632 255.64 163.363 255.645 163.132C255.688 162.716 255.711 162.377 255.714 162.116C255.75 161.209 255.772 160.333 255.78 159.488C255.787 158.644 255.792 158.076 255.795 157.784C254.837 157.996 253.93 158.122 253.072 158.16C252.781 158.173 252.533 158.116 252.327 157.987C252.106 157.843 251.989 157.634 251.976 157.358C251.967 157.159 252.014 157.011 252.118 156.914C252.205 156.803 252.401 156.74 252.708 156.726L253.926 156.694C254.724 156.689 255.368 156.675 255.859 156.653C255.876 155.347 255.867 154.304 255.832 153.523C255.752 151.746 255.664 150.154 255.57 148.746L255.531 147.896C255.521 147.666 255.597 147.478 255.759 147.333C255.936 147.171 256.139 147.085 256.369 147.075C256.538 147.067 256.659 147.192 256.732 147.45C256.805 147.708 256.848 147.997 256.863 148.319C256.878 148.656 256.871 149.347 256.842 150.392C256.83 152.173 256.827 153.117 256.832 153.224L256.865 156.515C258.151 156.426 260.324 156.129 263.387 155.622C263.428 155.175 263.482 154.006 263.55 152.115C263.567 151.116 263.587 150.386 263.612 149.925L263.669 148.126C263.767 145.865 263.802 144.452 263.777 143.885C263.768 143.686 263.837 143.522 263.985 143.392C264.132 143.263 264.306 143.193 264.505 143.184C264.78 143.172 264.93 143.434 264.955 143.97C264.97 144.307 264.934 145.206 264.847 146.669C264.764 148.576 264.72 149.637 264.714 149.852C264.676 151.035 264.635 152.165 264.591 153.242C264.563 154.317 264.542 155.04 264.528 155.409C264.802 155.35 265.044 155.27 265.254 155.169C265.526 155.064 265.738 155.009 265.891 155.002C266.044 154.995 266.225 155.079 266.432 155.254C266.64 155.428 266.745 155.554 266.748 155.631C266.76 155.876 266.591 156.06 266.244 156.183ZM280.119 147.566C279.497 147.717 278.706 147.876 277.746 148.042C276.786 148.193 276.008 148.297 275.412 148.355C275.396 149.016 275.421 150.918 275.486 154.061C275.552 157.205 275.611 159.528 275.663 161.029C276.49 160.977 277.575 160.874 278.919 160.721C280.049 160.608 280.684 160.549 280.821 160.543C281.097 160.53 281.345 160.581 281.565 160.693C281.8 160.806 281.924 160.992 281.936 161.252C281.945 161.467 281.914 161.622 281.842 161.717C281.784 161.812 281.641 161.864 281.411 161.875C281.319 161.879 281.066 161.867 280.65 161.84C280.341 161.792 280.079 161.774 279.865 161.783C279.145 161.816 277.707 161.927 275.551 162.117C275.479 162.227 275.391 162.308 275.286 162.359C275.197 162.424 275.114 162.459 275.037 162.462C274.945 162.466 274.852 162.447 274.758 162.406C274.664 162.364 274.608 162.297 274.588 162.206L273.56 162.368C272.372 162.575 271.487 162.692 270.905 162.718C270.399 162.741 270.011 162.651 269.741 162.448C269.598 162.332 269.519 162.113 269.504 161.791C269.5 161.7 269.541 161.583 269.627 161.441C269.728 161.298 269.832 161.224 269.939 161.219C269.97 161.218 270.087 161.259 270.29 161.342C270.508 161.408 270.709 161.438 270.892 161.429C271.459 161.404 272.293 161.335 273.393 161.224L274.446 161.107L274.432 157.724C274.431 157.371 274.432 157.056 274.435 156.78C274.437 156.488 274.434 156.242 274.425 156.043L274.315 148.52C272.726 148.699 271.971 148.787 272.047 148.783C270.49 148.977 269.574 149.079 269.298 149.092C269.038 149.104 268.789 149.03 268.552 148.872C268.314 148.714 268.19 148.505 268.178 148.245C268.17 148.061 268.209 147.913 268.296 147.802C268.398 147.69 268.534 147.63 268.702 147.622C268.825 147.617 268.948 147.619 269.071 147.629C269.194 147.638 269.317 147.648 269.441 147.658C269.827 147.717 270.196 147.739 270.549 147.723C270.886 147.708 271.528 147.656 272.476 147.567C273.423 147.462 274.056 147.395 274.377 147.366C274.384 147.166 274.445 147.002 274.562 146.874C274.679 146.73 274.836 146.654 275.036 146.645C275.127 146.641 275.207 146.699 275.274 146.818C275.34 146.938 275.377 147.075 275.384 147.228C276.271 147.157 277.863 146.886 280.159 146.413C280.342 146.374 280.537 146.281 280.745 146.134C280.969 145.985 281.096 145.91 281.127 145.909C281.28 145.902 281.428 145.957 281.571 146.073C281.715 146.189 281.791 146.34 281.799 146.523C281.812 146.814 281.676 147.028 281.39 147.163C281.105 147.299 280.681 147.433 280.119 147.566ZM291.157 153.836C290.692 154.072 290.218 154.293 289.736 154.499C289.255 154.705 288.938 154.834 288.787 154.887C288.948 156.752 289.058 158.344 289.118 159.661C289.137 160.09 289.199 160.44 289.304 160.712C289.423 160.967 289.484 161.133 289.487 161.21C289.495 161.378 289.417 161.52 289.253 161.635C289.09 161.765 288.917 161.834 288.733 161.843C288.503 161.853 288.351 161.699 288.275 161.38C288.273 161.349 288.244 161.212 288.187 160.969C288.146 160.726 288.115 160.382 288.095 159.938C288.04 158.743 287.906 156.784 287.691 154.062C287.582 152.685 287.515 151.706 287.489 151.124C287.466 150.634 287.454 150.182 287.45 149.767C287.446 149.338 287.441 149.046 287.434 148.893C286.481 149.197 285.658 149.503 284.966 149.811C284.741 149.928 284.427 150.119 284.025 150.383C283.846 150.498 283.666 150.606 283.487 150.706C283.322 150.806 283.194 150.858 283.102 150.862C282.98 150.867 282.87 150.819 282.773 150.716C282.677 150.613 282.625 150.484 282.618 150.331C282.609 150.132 282.889 149.874 283.458 149.556C284.026 149.224 284.717 148.901 285.532 148.588C286.362 148.274 287.126 148.032 287.825 147.862C288.645 147.672 289.56 147.554 290.571 147.508C291.965 147.445 293.069 147.579 293.882 147.911C294.694 148.227 295.117 148.745 295.15 149.465C295.19 150.369 294.858 151.167 294.153 151.859C293.446 152.535 292.448 153.194 291.157 153.836ZM290.613 148.427C289.908 148.459 289.191 148.537 288.459 148.663C288.45 148.786 288.439 149.07 288.429 149.516C288.434 149.961 288.445 150.382 288.463 150.781L288.562 152.457C288.594 152.824 288.623 153.291 288.648 153.857C288.969 153.812 289.64 153.552 290.662 153.076C291.653 152.586 292.481 152.057 293.146 151.49C293.81 150.907 294.129 150.309 294.101 149.697C294.077 149.176 293.731 148.823 293.063 148.639C292.395 148.454 291.578 148.383 290.613 148.427Z" fill="white"/>
<path d="M187.012 198.115C186.778 198.125 186.555 198.1 186.342 198.04C186.128 197.956 185.806 197.807 185.376 197.593C183.869 196.797 181.908 196.045 179.493 195.337C178.429 195.034 177.165 194.73 175.703 194.422C174.263 194.09 173.131 193.849 172.307 193.7L172.756 198.199C172.808 198.827 172.913 199.348 173.072 199.761C173.232 200.198 173.314 200.474 173.319 200.591C173.331 200.847 173.212 201.063 172.963 201.238C172.715 201.436 172.451 201.541 172.172 201.554C171.822 201.57 171.59 201.335 171.474 200.85C171.472 200.803 171.428 200.595 171.341 200.225C171.277 199.854 171.23 199.331 171.2 198.655C171.18 198.212 171.09 197.27 170.932 195.829C170.886 195.341 170.842 194.875 170.799 194.434C170.754 193.968 170.724 193.561 170.708 193.211C170.635 193.145 170.538 193.067 170.418 192.979C170.32 192.89 170.233 192.766 170.155 192.606C170.076 192.399 170.008 192.18 169.951 191.949C169.893 191.718 169.862 191.545 169.857 191.428C169.849 191.265 169.89 191.135 169.979 191.037C170.068 190.94 170.203 190.829 170.385 190.704C169.981 184.882 169.761 181.552 169.723 180.713C169.689 179.967 169.669 179.279 169.664 178.649C169.659 178.018 169.652 177.598 169.642 177.388C169.503 177.418 169.086 177.495 168.391 177.62C167.696 177.745 167.141 177.864 166.726 177.976C165.25 178.393 164.135 178.782 163.38 179.143C162.601 179.482 161.86 179.866 161.155 180.295C160.951 180.444 160.759 180.57 160.576 180.671C160.37 180.751 160.173 180.795 159.987 180.803C159.8 180.812 159.633 180.737 159.486 180.581C159.338 180.401 159.258 180.182 159.246 179.926C159.226 179.483 159.949 178.936 161.414 178.286C162.88 177.636 164.478 177.085 166.21 176.633C167.179 176.379 168.418 176.148 169.927 175.939C171.435 175.707 172.841 175.562 174.147 175.503C176.384 175.402 178.295 175.561 179.879 175.979C181.486 176.397 182.706 177.031 183.539 177.881C184.395 178.73 184.848 179.725 184.9 180.868C184.966 182.336 184.604 183.614 183.812 184.701C183.02 185.788 181.943 186.747 180.579 187.58C179.238 188.411 177.402 189.37 175.068 190.457C174.475 190.764 173.88 191.048 173.285 191.308C172.713 191.568 172.324 191.749 172.118 191.851C172.125 191.991 172.141 192.096 172.167 192.164C174.71 192.61 177.222 193.139 179.702 193.751L180.446 193.927C183.021 194.581 184.925 195.103 186.157 195.491C187.388 195.855 188.01 196.178 188.023 196.457C188.035 196.737 187.934 197.08 187.719 197.487C187.504 197.894 187.268 198.103 187.012 198.115ZM173.935 177.019C172.49 177.084 171.582 177.149 171.211 177.212C171.195 177.377 171.177 177.763 171.158 178.371C171.162 178.978 171.178 179.585 171.205 180.191L171.598 185.779L171.934 190.108C172.143 190.075 172.546 189.952 173.144 189.738C173.764 189.5 174.279 189.278 174.69 189.072C177.597 187.75 179.746 186.461 181.137 185.207C182.551 183.929 183.222 182.508 183.152 180.947C183.117 180.177 182.747 179.482 182.041 178.86C181.336 178.238 180.287 177.76 178.893 177.425C177.522 177.067 175.87 176.932 173.935 177.019ZM206.149 176.613C205.536 176.991 204.562 177.409 203.228 177.866C201.917 178.323 200.835 178.652 199.979 178.854C198.639 179.172 197.285 179.443 195.917 179.669C194.571 179.87 193.701 179.991 193.306 180.032C193.39 181.383 193.489 182.78 193.601 184.223C193.711 185.643 193.791 186.62 193.838 187.155C194.742 186.997 196.096 186.714 197.899 186.306L199.218 186.036C200.675 185.713 201.785 185.196 202.546 184.484C202.951 184.139 203.247 183.962 203.433 183.953C203.597 183.946 203.729 184.033 203.831 184.216C203.955 184.373 204.021 184.546 204.029 184.732C204.048 185.152 203.591 185.64 202.659 186.196C201.749 186.727 200.728 187.135 199.596 187.42C198.65 187.673 197.587 187.92 196.406 188.16C195.226 188.4 194.45 188.552 194.08 188.616C194.4 192.595 194.941 195.537 195.705 197.441C196.391 197.644 197.064 197.789 197.722 197.876C198.379 197.939 199.22 197.948 200.245 197.902C201.271 197.855 202.244 197.683 203.165 197.384C204.085 197.062 204.815 196.69 205.357 196.269C205.922 195.846 206.196 195.46 206.18 195.111C206.172 194.924 206.129 194.751 206.052 194.591C205.973 194.408 205.872 194.225 205.747 194.044C205.697 193.976 205.611 193.875 205.488 193.74C205.387 193.581 205.335 193.455 205.33 193.362C205.32 193.129 205.571 193.001 206.084 192.978C206.457 192.961 206.779 193.11 207.05 193.425C207.343 193.715 207.499 194.047 207.515 194.419C207.549 195.165 207.244 195.915 206.601 196.668C205.981 197.42 205.098 198.044 203.953 198.54C202.832 199.058 201.572 199.348 200.174 199.411C198.752 199.476 197.583 199.447 196.666 199.325C195.751 199.226 195.05 198.966 194.564 198.544C193.976 197.94 193.53 196.862 193.226 195.311C192.946 193.759 192.665 191.681 192.384 189.078C191.946 189.214 191.45 189.342 190.894 189.46C190.361 189.555 189.955 189.608 189.675 189.621C189.396 189.633 189.159 189.562 188.965 189.408C188.793 189.229 188.702 189.011 188.69 188.754C188.683 188.591 188.7 188.45 188.741 188.332C188.806 188.212 188.896 188.138 189.011 188.109C189.776 187.981 190.333 187.898 190.682 187.858L192.177 187.616C191.948 184.613 191.744 182.17 191.566 180.286C191.216 180.302 190.937 180.326 190.728 180.359L189.121 180.466C188.911 180.476 188.746 180.425 188.624 180.314C188.502 180.202 188.438 180.077 188.432 179.937C188.406 179.378 188.762 178.988 189.5 178.768C189.777 178.708 190.125 178.646 190.542 178.58C190.982 178.49 191.272 178.442 191.412 178.436C191.833 177.926 192.311 177.659 192.847 177.635C192.94 177.631 193.014 177.709 193.068 177.87C193.144 178.007 193.184 178.11 193.187 178.18C194.722 178.041 196.544 177.783 198.653 177.408C200.043 177.158 202.179 176.617 205.061 175.786L206.342 175.448C206.575 175.438 206.698 175.572 206.711 175.852C206.723 176.132 206.536 176.385 206.149 176.613ZM224.911 177.937C224.637 178.58 224.36 179.433 224.081 180.497C223.826 181.559 223.454 183.153 222.966 185.277L222.15 188.923C221.156 193.289 220.56 196.364 220.36 198.148C220.308 198.547 220.136 198.882 219.845 199.152C219.554 199.446 219.106 199.606 218.5 199.633C218.36 199.64 217.815 198.683 216.864 196.764C215.935 194.821 214.709 192.237 213.185 189.013C212.257 187.093 211.324 185.313 210.386 183.674C209.446 182.011 208.819 181.059 208.505 180.816C208.095 180.531 207.882 180.213 207.866 179.864C207.859 179.701 208 179.472 208.29 179.179C208.604 178.884 208.924 178.73 209.251 178.715C209.46 178.706 209.614 178.745 209.711 178.834C209.808 178.9 209.943 179.046 210.117 179.271C210.44 179.701 210.985 180.645 211.751 182.106C212.517 183.542 213.301 185.119 214.102 186.834L217.284 193.662C218.29 195.766 218.872 197.001 219.028 197.367C219.055 196.922 219.217 195.864 219.515 194.192C219.837 192.519 220.219 190.633 220.661 188.534C221.317 185.492 221.851 183.097 222.263 181.35C222.697 179.578 223.112 178.17 223.508 177.124C223.863 176.197 224.173 175.564 224.438 175.225C224.703 174.886 225.011 174.709 225.36 174.693C225.477 174.688 225.672 174.866 225.945 175.227C226.217 175.565 226.356 175.792 226.361 175.909C226.364 175.979 226.187 176.186 225.829 176.529C225.47 176.872 225.165 177.341 224.911 177.937ZM237.108 196.725C235.849 196.782 234.648 196.579 233.506 196.117C232.363 195.631 231.419 194.892 230.673 193.898C229.928 192.904 229.522 191.684 229.457 190.239C229.345 187.768 229.87 185.187 231.033 182.495C232.195 179.779 233.866 177.205 236.044 174.77C236.268 174.55 236.483 174.4 236.69 174.321C236.896 174.241 237.14 174.195 237.419 174.183C237.652 174.172 237.876 174.22 238.092 174.327C238.33 174.433 238.453 174.568 238.46 174.731C238.464 174.824 238.424 174.966 238.339 175.157C238.277 175.323 238.235 175.43 238.214 175.478C238.353 175.472 238.516 175.453 238.702 175.421C238.909 175.365 239.304 175.324 239.887 175.297C240.563 175.267 241.477 175.342 242.63 175.523C243.805 175.681 244.666 175.863 245.213 176.072C246.758 176.68 247.952 177.502 248.793 178.538C249.633 179.551 250.08 180.664 250.135 181.876C250.244 184.277 249.671 186.603 248.419 188.856C247.166 191.108 245.509 192.958 243.449 194.406C241.389 195.854 239.275 196.627 237.108 196.725ZM244.678 177.428C243.989 177.155 243.131 177.042 242.105 177.089C241.779 177.104 241.337 177.147 240.78 177.219L239.488 177.312C238.369 177.363 237.799 177.155 237.778 176.689C237.771 176.526 237.775 176.374 237.792 176.233C237.809 176.092 237.828 175.998 237.85 175.95C237.36 175.972 236.97 176.13 236.68 176.423C234.858 178.491 233.473 180.668 232.526 182.953C231.601 185.237 231.187 187.439 231.283 189.561C231.373 191.542 231.927 192.965 232.948 193.83C233.99 194.67 235.374 195.051 237.098 194.973C239.056 194.885 240.942 194.239 242.757 193.036C244.594 191.831 246.054 190.294 247.138 188.423C248.244 186.551 248.753 184.636 248.665 182.678C248.604 181.326 248.239 180.245 247.572 179.434C246.904 178.6 245.939 177.931 244.678 177.428ZM272.719 193.327C271.577 193.379 269.106 192.708 265.306 191.315L264.343 190.938C262.989 190.439 261.932 190.066 261.174 189.82C260.439 189.573 259.729 189.372 259.044 189.216C259.175 192.106 259.197 194.137 259.11 195.309C258.896 196.253 258.579 196.734 258.159 196.753C257.949 196.763 257.749 196.714 257.557 196.606C257.388 196.496 257.3 196.349 257.291 196.162C257.273 195.742 257.282 195.17 257.319 194.444C257.391 192.946 257.403 191.661 257.355 190.589L257.288 189.12C257.048 188.967 256.867 188.835 256.745 188.724C256.645 188.589 256.592 188.439 256.584 188.276C256.575 188.066 256.625 187.877 256.734 187.709C256.865 187.516 257.009 187.346 257.166 187.199C257.322 187.028 257.433 186.895 257.499 186.798C257.5 186.308 257.473 185.456 257.418 184.244C257.281 181.214 256.705 178.028 255.689 174.688L255.518 173.995C255.503 173.668 255.62 173.406 255.868 173.208C256.139 173.009 256.45 172.901 256.799 172.886C257.056 172.874 257.335 173.363 257.636 174.354C257.961 175.344 258.241 176.616 258.475 178.17C258.707 179.701 258.859 181.248 258.93 182.809L259.036 185.152C259.346 184.788 260.044 183.95 261.129 182.64C262.215 181.329 263.277 180.02 264.315 178.712C266.059 176.461 267.393 174.462 268.318 172.715C268.554 172.237 268.841 171.617 269.18 170.854C269.497 170.116 269.702 169.744 269.795 169.74C270.052 169.728 270.193 170.002 270.218 170.562C270.248 171.238 270.173 171.895 269.992 172.534C269.809 173.15 269.536 173.816 269.171 174.533C268.57 175.705 267.864 176.87 267.052 178.027C266.262 179.161 265.247 180.457 264.005 181.914C263.538 182.449 263.127 182.912 262.771 183.301C262.415 183.691 262.104 184.044 261.838 184.36C260.681 185.626 259.759 186.684 259.073 187.533C259.382 187.636 260.093 187.86 261.206 188.207C262.343 188.553 263.811 188.988 265.61 189.514C266.888 189.9 267.954 190.214 268.805 190.456C269.656 190.674 270.389 190.875 271.005 191.057C271.147 191.097 271.313 191.148 271.502 191.21C271.691 191.248 271.892 191.297 272.105 191.358C272.909 191.578 273.318 191.84 273.331 192.143C273.345 192.446 273.287 192.717 273.158 192.957C273.029 193.196 272.882 193.32 272.719 193.327ZM291.136 172.769C290.522 173.147 289.548 173.565 288.214 174.022C286.904 174.478 285.821 174.808 284.966 175.01C283.625 175.327 282.271 175.599 280.903 175.824C279.558 176.025 278.687 176.146 278.292 176.188C278.377 177.539 278.475 178.936 278.587 180.379C278.698 181.798 278.777 182.776 278.825 183.311C279.728 183.153 281.082 182.87 282.885 182.462L284.205 182.192C285.661 181.869 286.771 181.352 287.533 180.64C287.938 180.294 288.233 180.118 288.42 180.109C288.583 180.102 288.715 180.189 288.817 180.371C288.941 180.529 289.007 180.701 289.016 180.888C289.035 181.308 288.578 181.795 287.645 182.351C286.735 182.883 285.714 183.291 284.582 183.576C283.636 183.829 282.573 184.076 281.393 184.316C280.212 184.556 279.437 184.708 279.066 184.772C279.386 188.751 279.928 191.693 280.691 193.597C281.378 193.8 282.05 193.944 282.708 194.031C283.365 194.095 284.206 194.104 285.232 194.057C286.257 194.011 287.231 193.838 288.151 193.54C289.071 193.218 289.802 192.846 290.343 192.425C290.908 192.002 291.183 191.616 291.167 191.266C291.158 191.08 291.115 190.907 291.038 190.747C290.96 190.563 290.858 190.381 290.733 190.2C290.683 190.132 290.597 190.031 290.474 189.896C290.373 189.737 290.321 189.611 290.317 189.518C290.306 189.285 290.557 189.157 291.07 189.134C291.443 189.117 291.765 189.266 292.036 189.58C292.33 189.871 292.485 190.202 292.502 190.575C292.536 191.321 292.231 192.071 291.588 192.824C290.968 193.576 290.085 194.2 288.939 194.695C287.818 195.213 286.558 195.504 285.16 195.567C283.738 195.631 282.569 195.603 281.652 195.481C280.737 195.382 280.036 195.122 279.55 194.7C278.962 194.096 278.516 193.018 278.213 191.467C277.932 189.915 277.651 187.837 277.37 185.234C276.932 185.37 276.436 185.498 275.881 185.616C275.348 185.71 274.941 185.764 274.662 185.777C274.382 185.789 274.145 185.718 273.951 185.563C273.78 185.384 273.688 185.167 273.677 184.91C273.669 184.747 273.686 184.606 273.728 184.487C273.792 184.368 273.882 184.294 273.998 184.265C274.763 184.137 275.32 184.053 275.668 184.014L277.164 183.771C276.934 180.769 276.731 178.325 276.552 176.442C276.202 176.457 275.923 176.482 275.714 176.515L274.108 176.622C273.898 176.632 273.732 176.581 273.61 176.47C273.488 176.358 273.424 176.233 273.418 176.093C273.393 175.533 273.749 175.144 274.486 174.923C274.764 174.864 275.111 174.802 275.529 174.736C275.968 174.646 276.258 174.598 276.398 174.592C276.819 174.082 277.297 173.815 277.833 173.791C277.927 173.787 278 173.865 278.054 174.026C278.131 174.163 278.17 174.266 278.173 174.336C279.709 174.197 281.531 173.939 283.639 173.563C285.029 173.314 287.165 172.773 290.047 171.942L291.328 171.604C291.561 171.593 291.684 171.728 291.697 172.008C291.71 172.287 291.523 172.541 291.136 172.769ZM308.568 188.062C307.203 189.385 305.788 190.64 304.323 191.827C302.882 193.014 301.671 193.863 300.69 194.374C300.631 194.634 300.535 194.825 300.4 194.948C300.267 195.094 300.06 195.173 299.781 195.186C299.571 195.196 299.417 195.156 299.32 195.067C299.223 195.001 299.17 194.863 299.161 194.654C299.154 194.514 299.175 193.929 299.222 192.899C299.292 191.868 299.296 190.665 299.234 189.29C299.128 186.959 298.998 184.851 298.842 182.966C298.697 180.777 298.604 179.24 298.564 178.354C298.501 176.979 298.59 175.842 298.83 174.943C299.014 174.374 299.375 174.078 299.911 174.054C300.097 174.045 300.262 174.073 300.405 174.136C300.571 174.199 300.658 174.3 300.664 174.44C300.646 174.558 300.536 174.971 300.335 175.681C300.157 176.39 300.082 177.059 300.11 177.688C300.189 179.437 300.311 181.346 300.474 183.418C300.641 186.073 300.748 187.913 300.794 188.939C300.873 190.687 300.909 191.737 300.902 192.087C301.726 191.723 302.826 190.996 304.201 189.906C305.6 188.815 306.77 187.828 307.711 186.944C309.657 185.034 311.063 183.336 311.93 181.848C312.797 180.361 313.195 178.837 313.125 177.275C313.039 175.387 311.792 174.147 309.383 173.555C306.997 172.962 303.893 172.752 300.07 172.925C298.904 172.978 297.349 173.189 295.404 173.557C295.032 173.597 294.454 173.74 293.671 173.986C293.327 174.118 293.085 174.187 292.945 174.194C292.758 174.202 292.577 174.058 292.4 173.763C292.2 173.468 292.093 173.169 292.079 172.866C292.074 172.75 292.151 172.641 292.31 172.541C292.467 172.417 292.72 172.323 293.068 172.261C294.458 172.011 295.64 171.818 296.615 171.68C297.613 171.542 298.777 171.442 300.105 171.382C304.348 171.19 307.819 171.512 310.519 172.348C313.243 173.182 314.657 174.741 314.76 177.026C314.842 178.844 314.396 180.592 313.421 182.272C312.446 183.951 310.828 185.881 308.568 188.062Z" fill="white"/>
<defs>
<linearGradient id="paint0_linear_106_282" x1="31.0146" y1="187.114" x2="438.442" y2="187.114" gradientUnits="userSpaceOnUse">
<stop stop-color="#72159E"/>
<stop offset="1" stop-color="#080838"/>
</linearGradient>
</defs>
</svg>
