<svg width="422" height="228" viewBox="0 0 422 228" fill="none" xmlns="http://www.w3.org/2000/svg">
<rect x="32.9916" width="407.428" height="109.34" rx="50" transform="rotate(17.5617 32.9916 0)" fill="url(#paint0_linear_106_278)"/>
<path d="M172.55 86.3172C172.539 86.5066 172.519 86.7252 172.49 86.9731C172.471 87.2402 172.452 87.403 172.434 87.4615C172.384 87.6225 172.243 87.7392 172.011 87.8115C171.79 87.903 171.57 87.9144 171.35 87.8459C171.218 87.8047 171.128 87.6319 171.078 87.3273C171.024 87.0373 171.03 86.6856 171.095 86.2721C171.311 84.6531 171.82 82.2016 172.621 78.9177L173.774 74.1455C172.276 74.9305 170.796 75.5285 169.334 75.9394C168.948 76.0437 168.689 76.0753 168.558 76.0342C168.411 75.9884 168.308 75.908 168.247 75.7927C168.192 75.6628 168.177 75.554 168.205 75.4662C168.264 75.2759 168.497 75.1236 168.902 75.0092C169.799 74.7593 170.625 74.4551 171.38 74.0964C172.149 73.7423 172.929 73.3516 173.722 72.9243L174.125 72.713L174.132 72.691L174.235 72.3617L174.303 72.1422C174.335 72.0397 174.378 71.9807 174.431 71.9651C174.469 71.945 174.503 71.9395 174.532 71.9487C174.634 71.9322 174.743 71.9422 174.86 71.9788C175.153 72.0702 175.373 72.1873 175.522 72.33C175.67 72.4726 175.716 72.6318 175.662 72.8074C175.607 72.983 175.455 73.1605 175.206 73.3398C175.17 73.714 175.104 74.0789 175.009 74.4348C174.768 75.3074 174.357 77.0102 173.775 79.5432C173.197 82.0614 172.838 83.7244 172.698 84.5321C172.653 84.9355 172.603 85.5306 172.55 86.3172ZM179.25 89.6629C178.197 89.3338 177.508 88.6849 177.184 87.7163C176.86 86.7476 176.894 85.634 177.288 84.3753C177.758 82.8678 178.417 81.4028 179.263 79.9803C180.128 78.5477 181.069 77.3077 182.087 76.2602C181.97 76.2236 181.874 76.1454 181.799 76.0256C181.724 75.9058 181.707 75.78 181.748 75.6483C181.808 75.458 181.972 75.3167 182.242 75.2243C182.527 75.1364 182.834 75.1039 183.164 75.1267C183.203 75.1066 183.272 75.064 183.373 74.9991C183.478 74.9195 183.596 74.9003 183.728 74.9414C183.874 74.9871 184.004 75.0598 184.118 75.1595C184.236 75.2446 184.3 75.3209 184.311 75.3886C184.744 75.4434 185.173 75.5371 185.597 75.6697C186.592 75.9806 187.4 76.5302 188.022 77.3186C188.643 78.107 189.029 79.055 189.181 80.1627C189.338 81.2558 189.231 82.395 188.861 83.5806C188.459 84.8685 187.72 86.0514 186.644 87.129C185.583 88.2113 184.376 88.9908 183.022 89.4676C181.679 89.9635 180.421 90.0286 179.25 89.6629ZM185.266 77.0363C184.93 76.9312 184.47 76.8357 183.886 76.7498L183.405 76.6716C182.356 77.6615 181.388 78.9093 180.5 80.415C179.627 81.9253 178.976 83.3684 178.546 84.7442C178.258 85.6662 178.196 86.4822 178.36 87.192C178.543 87.8917 179.022 88.3627 179.798 88.605C180.691 88.8838 181.707 88.7918 182.848 88.3288C183.993 87.8511 185.032 87.1476 185.965 86.2181C186.898 85.2886 187.522 84.3189 187.837 83.309C188.116 82.4162 188.177 81.5276 188.019 80.6431C187.881 79.7485 187.559 78.9811 187.052 78.3409C186.564 77.6906 185.969 77.2557 185.266 77.0363ZM191.642 93.5335C190.589 93.2043 189.9 92.5554 189.576 91.5868C189.252 90.6182 189.286 89.5045 189.68 88.2458C190.15 86.7383 190.809 85.2733 191.655 83.8508C192.52 82.4183 193.461 81.1782 194.479 80.1307C194.362 80.0942 194.266 80.016 194.191 79.8962C194.116 79.7763 194.099 79.6506 194.14 79.5189C194.2 79.3286 194.364 79.1872 194.634 79.0948C194.919 79.007 195.226 78.9744 195.556 78.9973C195.595 78.9771 195.664 78.9346 195.765 78.8696C195.87 78.79 195.988 78.7708 196.12 78.812C196.266 78.8577 196.396 78.9304 196.51 79.0301C196.628 79.1151 196.692 79.1915 196.703 79.2592C197.136 79.314 197.565 79.4077 197.989 79.5403C198.984 79.8511 199.792 80.4007 200.414 81.1891C201.035 81.9775 201.421 82.9256 201.573 84.0333C201.73 85.1263 201.623 86.2656 201.253 87.4511C200.851 88.7391 200.112 89.9219 199.036 90.9996C197.975 92.0818 196.768 92.8613 195.414 93.3381C194.071 93.8341 192.813 93.8992 191.642 93.5335ZM197.659 80.9069C197.322 80.8017 196.862 80.7062 196.278 80.6203L195.797 80.5422C194.748 81.532 193.78 82.7798 192.892 84.2856C192.019 85.7959 191.368 87.2389 190.938 88.6147C190.65 89.5368 190.588 90.3527 190.752 91.0625C190.935 91.7622 191.414 92.2333 192.19 92.4755C193.083 92.7544 194.099 92.6623 195.24 92.1993C196.385 91.7217 197.424 91.0181 198.357 90.0886C199.29 89.1592 199.914 88.1895 200.229 87.1796C200.508 86.2868 200.569 85.3981 200.411 84.5136C200.273 83.6191 199.951 82.8517 199.444 82.2115C198.956 81.5612 198.361 81.1263 197.659 80.9069ZM215.142 90.0784C214.759 90.6336 214.189 91.3792 213.431 92.3151C213.298 92.4825 212.936 92.9477 212.345 93.7106C211.772 94.4635 211.276 95.1761 210.858 95.8485C210.678 96.1138 210.325 96.1642 209.798 95.9996C209.564 95.9264 209.52 95.6557 209.666 95.1873C209.689 95.1142 210.066 94.6536 210.797 93.8055C212.173 92.2274 213.353 90.7889 214.338 89.4899C215.326 88.1762 215.99 86.9778 216.328 85.8948C216.396 85.6752 216.415 85.5124 216.384 85.4063C216.353 85.3002 216.286 85.2311 216.184 85.1991C215.628 85.0254 214.913 84.9469 214.041 84.9635C213.187 84.97 212.319 85.0762 211.435 85.2822C210.854 85.8558 210.159 86.4097 209.35 86.944C208.555 87.4829 207.731 87.8841 206.877 88.1477C206.024 88.4112 205.261 88.4379 204.587 88.2276C204.265 88.127 204.028 87.8842 203.875 87.4991C203.722 87.114 203.735 86.6361 203.913 86.0653C204.101 85.4652 204.528 84.8194 205.193 84.1278C205.874 83.4407 206.573 82.8721 207.292 82.422C208.026 81.9764 208.524 81.7948 208.788 81.8771C209.051 81.9594 209.231 82.0796 209.326 82.2378C209.425 82.3814 209.452 82.5264 209.407 82.6728C209.398 82.702 209.244 82.7826 208.946 82.9143C208.061 83.3288 207.258 83.7927 206.535 84.3059C205.832 84.8091 205.354 85.4632 205.103 86.2682C205.03 86.5024 205.031 86.7036 205.107 86.8719C205.188 87.0256 205.323 87.1321 205.513 87.1915C205.792 87.2784 206.251 87.2212 206.892 87.0198C207.553 86.8084 208.166 86.5179 208.731 86.1483C209.296 85.7787 209.636 85.4109 209.75 85.045C209.778 84.9572 209.748 84.7953 209.661 84.5593C209.589 84.3279 209.571 84.1537 209.607 84.0366C209.676 83.817 209.828 83.6638 210.064 83.5769C210.319 83.4799 210.601 83.4794 210.908 83.5754C211.142 83.6485 211.41 83.8204 211.711 84.0912C212.527 83.9447 213.486 83.8828 214.588 83.9055C215.708 83.9182 216.452 83.9816 216.817 84.0959C217.315 84.2513 217.612 84.4567 217.709 84.7118C217.806 84.967 217.784 85.3215 217.642 85.7752C217.386 86.5948 216.553 88.0292 215.142 90.0784ZM217.133 99.9048C216.123 99.5894 215.453 99.0347 215.122 98.2408C214.811 97.4368 214.795 96.5884 215.074 95.6956C215.248 95.1394 215.507 94.618 215.852 94.1313C216.196 93.6447 216.538 93.2696 216.878 93.0061C217.236 92.7325 217.496 92.6209 217.657 92.6712C217.92 92.7535 218.086 92.9177 218.154 93.1637C218.221 93.4097 218.219 93.6499 218.146 93.884C218.123 93.9572 218.052 94.0556 217.933 94.1791C217.819 94.2879 217.687 94.3995 217.539 94.5139C217.172 94.8167 216.867 95.099 216.624 95.3606C216.401 95.6122 216.235 95.9136 216.125 96.2649C215.96 96.7918 215.963 97.2985 216.132 97.7851C216.321 98.2616 216.722 98.5959 217.337 98.7879C217.922 98.9708 218.486 98.914 219.029 98.6175C219.59 98.311 220.074 97.8678 220.48 97.2878C220.901 96.7124 221.205 96.1246 221.392 95.5246C221.589 94.8952 221.614 94.3249 221.469 93.8136C221.342 93.2922 221.111 92.979 220.774 92.8738C220.467 92.7778 220.038 92.7642 219.486 92.8328C219.104 92.8741 218.795 92.8581 218.561 92.785C218.429 92.7438 218.333 92.6656 218.273 92.5504C218.217 92.4205 218.208 92.297 218.244 92.1799C218.34 91.8726 218.642 91.6777 219.15 91.5953C219.662 91.4983 220.181 91.532 220.708 91.6966C221.601 91.9755 222.171 92.4908 222.418 93.2427C222.665 93.9945 222.636 94.8608 222.329 95.8414C222.078 96.6464 221.687 97.4079 221.158 98.126C220.648 98.8341 220.039 99.367 219.333 99.7247C218.642 100.087 217.908 100.147 217.133 99.9048ZM239.427 105.398L235.561 104.504L232.88 103.908L231.485 103.592C231.368 103.556 231.281 103.448 231.224 103.27C231.182 103.096 231.182 102.944 231.223 102.812C231.255 102.709 231.307 102.645 231.379 102.62C231.471 102.584 231.555 102.57 231.633 102.579C231.73 102.577 231.795 102.573 231.829 102.568C232.091 101.782 232.674 99.9399 233.579 97.0419C234.247 94.9051 234.675 93.2238 234.865 91.9981C235.075 90.7622 235.193 90.1004 235.22 90.0126C235.284 89.8077 235.408 89.6696 235.591 89.5982C235.788 89.5314 235.968 89.5231 236.129 89.5734C236.231 89.6054 236.298 89.6745 236.329 89.7806C236.365 89.8721 236.37 90.0102 236.344 90.1949C236.335 90.7383 236.159 91.6873 235.816 93.0421C235.488 94.4014 235.098 95.8055 234.645 97.2545C234.261 98.4839 233.897 99.6232 233.554 100.672C233.21 101.722 232.981 102.429 232.866 102.795C233.061 102.84 233.434 102.932 233.985 103.072C234.54 103.197 235.11 103.327 235.694 103.462C236.575 103.624 237.582 103.77 238.714 103.899C239.628 104.008 240.173 104.089 240.348 104.144C240.509 104.194 240.589 104.3 240.587 104.46C240.585 104.62 240.553 104.802 240.489 105.007C240.429 105.197 240.293 105.324 240.081 105.386C239.884 105.453 239.665 105.457 239.427 105.398ZM250.377 102.602C249.859 102.665 249.339 102.711 248.815 102.741C248.292 102.77 247.951 102.784 247.791 102.782C247.306 104.59 246.867 106.124 246.474 107.383C246.346 107.792 246.285 108.143 246.29 108.434C246.315 108.715 246.316 108.892 246.293 108.965C246.243 109.126 246.121 109.232 245.928 109.284C245.731 109.351 245.544 109.357 245.368 109.302C245.149 109.234 245.058 109.037 245.095 108.711C245.104 108.682 245.124 108.543 245.153 108.295C245.197 108.052 245.285 107.718 245.418 107.294C245.774 106.152 246.315 104.265 247.041 101.632C247.409 100.301 247.679 99.3578 247.853 98.8016C247.999 98.3332 248.142 97.9038 248.28 97.5132C248.422 97.1079 248.516 96.8321 248.562 96.6858C247.562 96.6466 246.685 96.6536 245.929 96.7067C245.678 96.7406 245.318 96.8129 244.849 96.9237C244.642 96.9713 244.436 97.0115 244.233 97.0445C244.045 97.082 243.907 97.0871 243.819 97.0597C243.702 97.0231 243.615 96.9399 243.56 96.81C243.504 96.6801 243.499 96.542 243.544 96.3956C243.604 96.2053 243.955 96.058 244.598 95.9537C245.246 95.8347 246.006 95.7669 246.878 95.7503C247.766 95.7382 248.567 95.7715 249.281 95.8501C250.117 95.9506 251.018 96.1517 251.984 96.4534C253.316 96.8694 254.308 97.3719 254.959 97.9609C255.615 98.5352 255.835 99.1663 255.621 99.8542C255.351 100.718 254.766 101.354 253.867 101.764C252.973 102.16 251.809 102.439 250.377 102.602ZM251.71 97.3316C251.036 97.1213 250.335 96.9503 249.605 96.8187C249.554 96.9312 249.447 97.1951 249.285 97.6104C249.138 98.0303 249.005 98.4305 248.886 98.8111L248.408 100.421C248.313 100.776 248.18 101.225 248.011 101.767C248.328 101.833 249.048 101.817 250.171 101.718C251.269 101.596 252.228 101.381 253.047 101.074C253.87 100.753 254.373 100.3 254.556 99.7144C254.711 99.2168 254.506 98.7673 253.941 98.3658C253.376 97.9643 252.632 97.6196 251.71 97.3316Z" fill="white"/>
<path d="M115.175 105.853C113.571 105.353 112.523 104.365 112.03 102.891C111.537 101.417 111.59 99.7224 112.188 97.807C112.904 95.5129 113.906 93.2836 115.193 91.1189C116.51 88.9389 117.943 87.052 119.492 85.4579C119.314 85.4023 119.167 85.2833 119.053 85.101C118.939 84.9186 118.913 84.7273 118.976 84.5268C119.066 84.2373 119.317 84.0222 119.727 83.8815C120.16 83.7478 120.628 83.6984 121.13 83.7331C121.189 83.7025 121.295 83.6377 121.448 83.5389C121.608 83.4177 121.788 83.3885 121.989 83.4511C122.211 83.5207 122.409 83.6313 122.582 83.783C122.761 83.9124 122.859 84.0286 122.876 84.1316C123.534 84.2151 124.187 84.3576 124.832 84.5594C126.347 85.0324 127.577 85.8688 128.522 87.0685C129.468 88.2683 130.056 89.7109 130.287 91.3965C130.525 93.0599 130.363 94.7936 129.799 96.5976C129.187 98.5576 128.063 100.358 126.426 101.997C124.812 103.644 122.974 104.831 120.914 105.556C118.87 106.311 116.956 106.41 115.175 105.853ZM124.33 86.639C123.817 86.479 123.117 86.3337 122.229 86.2029L121.496 86.084C119.901 87.5904 118.428 89.4892 117.077 91.7805C115.748 94.0788 114.756 96.2748 114.103 98.3684C113.664 99.7715 113.57 101.013 113.819 102.093C114.098 103.158 114.827 103.875 116.008 104.244C117.366 104.668 118.913 104.528 120.649 103.823C122.392 103.096 123.973 102.026 125.392 100.611C126.812 99.1968 127.762 97.7212 128.242 96.1845C128.666 94.8258 128.758 93.4736 128.519 92.1276C128.308 90.7663 127.818 89.5985 127.046 88.6242C126.304 87.6347 125.399 86.9729 124.33 86.639ZM150.934 100.596C150.353 101.441 149.485 102.575 148.331 103.999C148.129 104.254 147.578 104.962 146.678 106.123C145.807 107.269 145.052 108.353 144.415 109.376C144.142 109.78 143.605 109.857 142.803 109.606C142.447 109.495 142.38 109.083 142.603 108.37C142.637 108.259 143.211 107.558 144.323 106.267C146.417 103.866 148.213 101.677 149.711 99.7001C151.215 97.701 152.225 95.8774 152.739 94.2293C152.844 93.8952 152.872 93.6474 152.825 93.486C152.778 93.3245 152.676 93.2194 152.52 93.1707C151.674 92.9064 150.587 92.7868 149.259 92.8121C147.96 92.822 146.638 92.9837 145.294 93.297C144.41 94.1699 143.352 95.0129 142.121 95.826C140.911 96.646 139.657 97.2566 138.358 97.6576C137.06 98.0587 135.898 98.0992 134.874 97.7792C134.384 97.6262 134.022 97.2567 133.79 96.6707C133.557 96.0847 133.577 95.3574 133.848 94.4888C134.133 93.5756 134.782 92.5928 135.796 91.5404C136.831 90.4949 137.896 89.6296 138.99 88.9446C140.106 88.2666 140.865 87.9902 141.265 88.1154C141.666 88.2406 141.939 88.4236 142.084 88.6644C142.236 88.8829 142.277 89.1035 142.207 89.3263C142.193 89.3708 141.96 89.4933 141.506 89.6938C140.16 90.3246 138.937 91.0305 137.838 91.8115C136.767 92.5772 136.041 93.5726 135.658 94.7976C135.547 95.1539 135.549 95.4601 135.665 95.7162C135.787 95.9501 135.993 96.1122 136.283 96.2026C136.706 96.3348 137.405 96.2477 138.381 95.9414C139.386 95.6197 140.319 95.1776 141.179 94.6151C142.039 94.0526 142.556 93.493 142.73 92.9362C142.772 92.8026 142.726 92.5562 142.594 92.1971C142.484 91.845 142.457 91.5798 142.512 91.4016C142.617 91.0675 142.849 90.8343 143.208 90.7021C143.596 90.5545 144.024 90.5537 144.492 90.6998C144.848 90.8111 145.255 91.0727 145.713 91.4847C146.956 91.2618 148.416 91.1676 150.092 91.2022C151.797 91.2214 152.928 91.318 153.484 91.4919C154.242 91.7284 154.694 92.0409 154.842 92.4292C154.989 92.8175 154.955 93.3569 154.74 94.0473C154.35 95.2946 153.082 97.4773 150.934 100.596ZM153.964 115.549C152.427 115.069 151.407 114.225 150.905 113.017C150.431 111.793 150.407 110.502 150.831 109.144C151.096 108.297 151.49 107.504 152.015 106.763C152.539 106.023 153.06 105.452 153.576 105.051C154.122 104.635 154.517 104.465 154.762 104.541C155.163 104.666 155.415 104.916 155.518 105.291C155.621 105.665 155.617 106.031 155.506 106.387C155.471 106.498 155.363 106.648 155.182 106.836C155.008 107.001 154.808 107.171 154.583 107.345C154.023 107.806 153.559 108.236 153.19 108.634C152.851 109.017 152.598 109.475 152.431 110.01C152.18 110.812 152.184 111.583 152.441 112.323C152.728 113.048 153.339 113.557 154.275 113.849C155.166 114.128 156.024 114.041 156.849 113.59C157.704 113.124 158.44 112.449 159.058 111.567C159.698 110.691 160.161 109.796 160.446 108.883C160.745 107.926 160.784 107.058 160.563 106.28C160.37 105.486 160.018 105.01 159.506 104.85C159.038 104.703 158.385 104.683 157.545 104.787C156.964 104.85 156.494 104.826 156.138 104.714C155.938 104.652 155.791 104.533 155.7 104.357C155.615 104.16 155.6 103.972 155.656 103.794C155.802 103.326 156.261 103.029 157.034 102.904C157.813 102.756 158.604 102.808 159.405 103.058C160.764 103.483 161.631 104.267 162.007 105.411C162.383 106.555 162.338 107.873 161.872 109.365C161.49 110.59 160.895 111.749 160.09 112.842C159.313 113.92 158.387 114.731 157.313 115.275C156.261 115.826 155.144 115.918 153.964 115.549ZM185.337 113.651C184.549 113.747 183.757 113.818 182.961 113.862C182.165 113.907 181.645 113.928 181.401 113.925C180.664 116.677 179.996 119.011 179.398 120.926C179.203 121.55 179.11 122.083 179.118 122.526C179.156 122.953 179.157 123.222 179.123 123.334C179.046 123.579 178.861 123.741 178.567 123.82C178.267 123.922 177.983 123.931 177.715 123.847C177.381 123.743 177.243 123.443 177.3 122.948C177.314 122.903 177.343 122.692 177.387 122.315C177.454 121.945 177.588 121.437 177.79 120.791C178.333 119.054 179.156 116.182 180.261 112.176C180.82 110.15 181.232 108.714 181.496 107.868C181.719 107.155 181.935 106.502 182.145 105.907C182.362 105.291 182.506 104.871 182.575 104.648C181.054 104.589 179.718 104.599 178.569 104.68C178.186 104.732 177.638 104.842 176.925 105.01C176.61 105.083 176.297 105.144 175.988 105.194C175.701 105.251 175.491 105.259 175.357 105.217C175.179 105.162 175.048 105.035 174.963 104.837C174.878 104.64 174.87 104.429 174.94 104.207C175.03 103.917 175.565 103.693 176.543 103.534C177.529 103.353 178.685 103.25 180.013 103.225C181.363 103.206 182.582 103.257 183.669 103.377C184.942 103.53 186.313 103.836 187.783 104.295C189.809 104.928 191.318 105.692 192.31 106.589C193.308 107.463 193.643 108.423 193.316 109.47C192.906 110.784 192.017 111.753 190.648 112.377C189.287 112.978 187.517 113.403 185.337 113.651ZM187.365 105.631C186.341 105.311 185.273 105.051 184.162 104.851C184.084 105.022 183.922 105.423 183.676 106.055C183.452 106.694 183.249 107.303 183.069 107.882L182.34 110.332C182.196 110.873 181.995 111.556 181.737 112.38C182.219 112.482 183.314 112.457 185.023 112.306C186.695 112.12 188.154 111.793 189.4 111.327C190.652 110.838 191.418 110.148 191.696 109.257C191.933 108.5 191.621 107.816 190.76 107.205C189.9 106.594 188.768 106.069 187.365 105.631ZM209.694 131.306C209.472 131.236 209.27 131.137 209.091 131.007C208.918 130.856 208.666 130.606 208.335 130.258C207.189 128.996 205.602 127.62 203.574 126.131C202.676 125.484 201.592 124.766 200.323 123.979C199.082 123.176 198.1 122.563 197.376 122.142L196.264 126.524C196.098 127.133 196.02 127.658 196.028 128.101C196.03 128.566 196.013 128.854 195.978 128.965C195.902 129.21 195.717 129.372 195.423 129.452C195.122 129.553 194.838 129.562 194.571 129.479C194.237 129.375 194.099 129.075 194.156 128.579C194.169 128.535 194.199 128.324 194.243 127.946C194.31 127.576 194.444 127.068 194.646 126.422C194.778 125.999 195.015 125.083 195.357 123.674C195.481 123.2 195.598 122.747 195.708 122.317C195.825 121.865 195.936 121.472 196.04 121.137C195.994 121.05 195.929 120.944 195.846 120.82C195.784 120.703 195.745 120.556 195.727 120.38C195.722 120.158 195.733 119.929 195.758 119.693C195.783 119.456 195.813 119.282 195.848 119.171C195.896 119.015 195.979 118.906 196.096 118.845C196.213 118.784 196.378 118.725 196.591 118.669C198.196 113.06 199.124 109.854 199.375 109.052C199.597 108.339 199.814 107.686 200.024 107.091C200.234 106.497 200.37 106.1 200.433 105.899C200.292 105.88 199.874 105.81 199.178 105.691C198.482 105.571 197.92 105.493 197.491 105.457C195.961 105.346 194.78 105.331 193.948 105.414C193.1 105.467 192.272 105.575 191.463 105.738C191.221 105.809 190.997 105.861 190.791 105.894C190.569 105.899 190.37 105.873 190.191 105.817C190.013 105.761 189.882 105.635 189.797 105.437C189.719 105.217 189.718 104.985 189.795 104.74C189.927 104.317 190.793 104.049 192.392 103.938C193.991 103.826 195.682 103.853 197.463 104.018C198.462 104.11 199.705 104.315 201.195 104.634C202.691 104.93 204.063 105.273 205.31 105.663C207.448 106.33 209.19 107.131 210.537 108.065C211.905 109.006 212.836 110.018 213.329 111.1C213.844 112.19 213.931 113.281 213.59 114.372C213.152 115.775 212.375 116.853 211.26 117.605C210.145 118.356 208.805 118.891 207.239 119.209C205.696 119.533 203.642 119.808 201.078 120.034C200.415 120.121 199.76 120.185 199.111 120.227C198.485 120.276 198.057 120.313 197.829 120.34C197.787 120.473 197.767 120.577 197.769 120.651C200.007 121.937 202.188 123.29 204.311 124.711L204.95 125.13C207.148 126.624 208.76 127.763 209.786 128.548C210.819 129.31 211.293 129.825 211.21 130.093C211.126 130.36 210.914 130.648 210.573 130.957C210.232 131.266 209.939 131.382 209.694 131.306ZM204.594 107.016C203.213 106.584 202.338 106.335 201.967 106.269C201.896 106.417 201.748 106.775 201.523 107.34C201.32 107.912 201.128 108.487 200.947 109.066L199.411 114.454L198.251 118.638C198.458 118.678 198.879 118.7 199.514 118.702C200.178 118.69 200.738 118.657 201.195 118.604C204.378 118.352 206.837 117.873 208.573 117.169C210.338 116.449 211.453 115.343 211.92 113.85C212.149 113.115 212.038 112.335 211.587 111.51C211.136 110.685 210.313 109.877 209.117 109.088C207.95 108.284 206.443 107.593 204.594 107.016ZM235.017 117.618C234.311 117.764 233.253 117.825 231.843 117.8C230.455 117.782 229.325 117.722 228.452 117.621C227.084 117.462 225.718 117.256 224.356 117.001C223.022 116.732 222.163 116.549 221.777 116.453C221.396 117.751 221.012 119.098 220.625 120.493C220.245 121.865 219.987 122.811 219.849 123.331C220.752 123.491 222.121 123.686 223.956 123.917L225.288 124.113C226.768 124.306 227.987 124.198 228.946 123.789C229.444 123.602 229.782 123.537 229.961 123.592C230.117 123.641 230.211 123.768 230.245 123.974C230.307 124.165 230.311 124.349 230.255 124.528C230.13 124.928 229.534 125.231 228.468 125.436C227.431 125.626 226.332 125.661 225.171 125.543C224.195 125.458 223.112 125.328 221.92 125.151C220.729 124.974 219.948 124.853 219.578 124.786C218.522 128.636 218.028 131.586 218.096 133.637C218.673 134.061 219.255 134.427 219.844 134.733C220.44 135.017 221.228 135.312 222.208 135.618C223.188 135.924 224.161 136.093 225.129 136.127C226.103 136.138 226.917 136.037 227.57 135.826C228.245 135.621 228.634 135.352 228.739 135.017C228.794 134.839 228.813 134.662 228.795 134.485C228.784 134.286 228.75 134.08 228.695 133.867C228.671 133.786 228.624 133.662 228.555 133.493C228.514 133.31 228.508 133.173 228.536 133.084C228.606 132.861 228.885 132.827 229.375 132.98C229.732 133.091 229.984 133.341 230.131 133.729C230.308 134.102 230.341 134.467 230.23 134.823C230.007 135.536 229.465 136.137 228.603 136.625C227.764 137.121 226.721 137.406 225.476 137.482C224.245 137.586 222.962 137.43 221.625 137.012C220.267 136.588 219.178 136.162 218.358 135.735C217.531 135.33 216.961 134.847 216.647 134.284C216.301 133.516 216.249 132.351 216.492 130.789C216.758 129.234 217.203 127.185 217.826 124.642C217.368 124.621 216.858 124.572 216.295 124.494C215.762 124.401 215.362 124.313 215.095 124.229C214.827 124.146 214.629 123.998 214.5 123.787C214.399 123.56 214.387 123.324 214.464 123.079C214.513 122.923 214.577 122.796 214.656 122.699C214.758 122.608 214.868 122.569 214.986 122.582C215.749 122.722 216.301 122.833 216.642 122.916L218.13 123.197C218.939 120.296 219.58 117.93 220.054 116.098C219.72 115.994 219.45 115.921 219.242 115.881L217.695 115.434C217.495 115.372 217.356 115.267 217.279 115.121C217.203 114.975 217.185 114.835 217.227 114.702C217.394 114.167 217.862 113.922 218.63 113.966C218.911 114.005 219.259 114.065 219.674 114.146C220.118 114.211 220.407 114.265 220.541 114.306C221.11 113.971 221.651 113.883 222.163 114.043C222.252 114.071 222.295 114.17 222.29 114.34C222.315 114.494 222.318 114.605 222.297 114.672C223.788 115.064 225.588 115.443 227.698 115.809C229.09 116.048 231.283 116.268 234.275 116.47L235.595 116.588C235.818 116.658 235.887 116.826 235.804 117.094C235.72 117.361 235.458 117.536 235.017 117.618ZM237.782 142.316C236.334 141.863 235.226 141.383 234.456 140.873C233.679 140.386 233.357 139.931 233.489 139.508C233.558 139.285 233.829 138.966 234.301 138.552C234.802 138.121 235.142 137.934 235.32 137.99C235.587 138.073 235.703 138.171 235.669 138.282C235.648 138.349 235.579 138.413 235.462 138.474C235.367 138.542 235.306 138.621 235.278 138.71C235.257 138.777 235.36 138.919 235.585 139.136C235.833 139.36 236.229 139.618 236.773 139.91C237.318 140.203 238.002 140.477 238.826 140.735C240.14 141.145 241.367 141.247 242.507 141.041C243.669 140.842 244.639 140.436 245.417 139.824C246.195 139.211 246.699 138.537 246.929 137.802C247.228 136.845 247.017 135.874 246.298 134.892C245.6 133.916 244.324 132.796 242.47 131.533C240.69 130.268 239.32 129.253 238.361 128.489C237.431 127.71 236.729 126.904 236.256 126.072C235.789 125.217 235.699 124.333 235.984 123.42C236.366 122.195 237.432 121.208 239.182 120.459C240.939 119.688 242.945 119.251 245.201 119.149C247.465 119.025 249.465 119.234 251.202 119.777C252.093 120.055 252.516 120.383 252.472 120.76C252.427 121.137 252.335 121.548 252.196 121.994C252.092 122.328 251.917 122.457 251.672 122.38C251.561 122.345 251.438 122.27 251.303 122.155C251.197 122.024 251.095 121.919 250.998 121.839C250.878 121.753 250.736 121.66 250.572 121.56C250.408 121.46 250.158 121.357 249.824 121.253C248.666 120.891 247.18 120.757 245.367 120.851C243.553 120.944 241.906 121.248 240.425 121.764C238.966 122.286 238.108 122.959 237.85 123.783C237.642 124.451 237.728 125.114 238.11 125.771C238.513 126.435 239.116 127.087 239.918 127.729C240.727 128.348 241.886 129.175 243.397 130.209C245.624 131.687 247.178 133.052 248.058 134.305C248.96 135.564 249.209 136.84 248.806 138.132C248.458 139.245 247.735 140.23 246.637 141.084C245.568 141.924 244.25 142.466 242.683 142.709C241.131 142.983 239.497 142.851 237.782 142.316ZM270.393 140.841C270.195 140.926 269.834 140.948 269.309 140.906C268.791 140.842 268.44 140.793 268.255 140.76C268.169 141.662 268.129 142.102 268.136 142.079C268.118 142.685 268.045 143.506 267.917 144.541C267.615 146.916 267.429 148.96 267.358 150.674C267.31 151.221 267.272 151.539 267.244 151.628C267.174 151.85 267.026 152.012 266.799 152.112C266.572 152.212 266.336 152.224 266.091 152.148C265.869 152.078 265.706 151.893 265.605 151.592C265.496 151.314 265.436 151.075 265.425 150.876C265.461 150.056 265.536 149.151 265.65 148.16C265.786 147.176 265.948 145.992 266.136 144.608C266.228 144.001 266.306 143.243 266.37 142.334C266.441 141.403 266.484 140.794 266.501 140.505C265.131 140.273 262.759 139.923 259.385 139.456L257.343 139.185L256.026 140.937L254.256 143.318C252.718 145.502 251.577 147.199 250.832 148.408C250.668 148.699 250.454 148.914 250.191 149.052C249.921 149.212 249.642 149.247 249.352 149.156C249.107 149.08 248.916 148.947 248.78 148.757C248.666 148.575 248.647 148.361 248.723 148.116C248.8 147.871 249.097 147.39 249.615 146.671C250.125 145.975 250.427 145.556 250.521 145.414C250.679 145.219 251.018 144.763 251.535 144.045C252.096 143.266 252.791 142.334 253.619 141.248C254.476 140.147 255.045 139.421 255.326 139.068C254.107 138.981 253.194 138.928 252.589 138.91C251.673 138.869 251.115 138.816 250.914 138.754C250.669 138.677 250.508 138.529 250.43 138.309C250.381 138.074 250.392 137.845 250.461 137.622C250.545 137.355 250.667 137.198 250.829 137.15C250.997 137.081 251.251 137.05 251.591 137.058C252.5 137.122 253.453 137.2 254.451 137.292C255.471 137.39 256.17 137.462 256.547 137.507C256.972 136.93 257.309 136.437 257.56 136.026C257.739 135.764 257.962 135.443 258.228 135.061C258.523 134.665 258.86 134.171 259.24 133.581L260.274 132.034C262.052 129.313 263.074 127.763 263.34 127.381C263.549 127.104 263.726 126.89 263.87 126.74C264.037 126.597 264.21 126.553 264.388 126.609C264.834 126.748 265.214 126.94 265.528 127.185C265.587 127.154 265.681 127.086 265.812 126.98C265.972 126.859 266.115 126.793 266.24 126.784C266.395 126.759 266.572 126.777 266.773 126.84C267.173 126.965 267.487 127.564 267.714 128.637C267.964 129.718 268.139 130.958 268.239 132.358C268.299 133.184 268.322 134.401 268.308 136.01C268.302 137.597 268.292 138.645 268.28 139.154C268.628 139.214 268.923 139.245 269.167 139.248C269.44 139.236 269.613 139.229 269.687 139.227C269.812 139.217 269.959 139.178 270.128 139.108C270.296 139.038 270.443 138.999 270.568 138.989C270.7 138.957 270.823 138.995 270.936 139.104C271.183 139.328 271.241 139.651 271.109 140.075C271.06 140.231 270.964 140.384 270.819 140.534C270.696 140.691 270.554 140.794 270.393 140.841ZM266.719 132.763C266.665 131.842 266.528 130.87 266.309 129.849C266.091 128.827 265.849 128.153 265.585 127.826L264.946 128.579C264.258 129.294 263.695 129.961 263.257 130.582C262.222 132.019 260.547 134.405 258.234 137.74L262.352 138.293L265.716 138.793L266.659 138.942C266.673 138.506 266.7 137.598 266.74 136.217C266.788 134.814 266.78 133.663 266.719 132.763ZM286.255 154.632L280.373 153.272L276.293 152.364L274.17 151.884C273.992 151.829 273.859 151.665 273.773 151.394C273.709 151.129 273.708 150.897 273.771 150.696C273.819 150.54 273.899 150.443 274.009 150.404C274.148 150.35 274.277 150.329 274.395 150.341C274.543 150.338 274.642 150.333 274.694 150.325C275.092 149.129 275.979 146.326 277.357 141.916C278.372 138.664 279.025 136.106 279.314 134.241C279.632 132.36 279.813 131.353 279.854 131.219C279.952 130.907 280.14 130.697 280.418 130.589C280.719 130.487 280.991 130.474 281.236 130.551C281.392 130.6 281.494 130.705 281.541 130.866C281.596 131.005 281.603 131.216 281.564 131.497C281.551 132.324 281.283 133.768 280.761 135.829C280.262 137.898 279.668 140.034 278.979 142.239C278.395 144.11 277.841 145.844 277.318 147.441C276.795 149.037 276.446 150.114 276.272 150.671C276.569 150.739 277.136 150.88 277.974 151.092C278.819 151.283 279.686 151.48 280.575 151.685C281.916 151.933 283.448 152.154 285.171 152.35C286.562 152.516 287.391 152.64 287.658 152.724C287.903 152.8 288.024 152.96 288.021 153.204C288.018 153.448 287.968 153.725 287.871 154.037C287.781 154.327 287.574 154.519 287.251 154.613C286.95 154.715 286.618 154.721 286.255 154.632ZM313.154 142.024C312.449 142.17 311.391 142.231 309.981 142.206C308.593 142.188 307.463 142.128 306.59 142.027C305.222 141.868 303.856 141.662 302.493 141.407C301.16 141.137 300.3 140.954 299.915 140.858C299.533 142.157 299.149 143.504 298.763 144.899C298.383 146.271 298.124 147.217 297.986 147.736C298.89 147.896 300.259 148.092 302.093 148.322L303.426 148.518C304.905 148.712 306.125 148.604 307.084 148.194C307.582 148.008 307.92 147.942 308.098 147.998C308.254 148.047 308.349 148.174 308.382 148.38C308.445 148.571 308.448 148.755 308.393 148.933C308.268 149.334 307.672 149.637 306.606 149.842C305.569 150.031 304.47 150.067 303.309 149.949C302.333 149.864 301.249 149.733 300.058 149.557C298.866 149.38 298.085 149.258 297.715 149.192C296.659 153.042 296.165 155.992 296.234 158.043C296.81 158.467 297.393 158.832 297.982 159.138C298.578 159.422 299.365 159.717 300.345 160.023C301.325 160.329 302.299 160.499 303.266 160.532C304.241 160.543 305.054 160.443 305.707 160.231C306.382 160.027 306.772 159.757 306.876 159.423C306.932 159.245 306.951 159.068 306.933 158.891C306.921 158.692 306.888 158.486 306.832 158.273C306.809 158.192 306.762 158.067 306.692 157.899C306.652 157.715 306.646 157.579 306.674 157.49C306.743 157.267 307.023 157.232 307.513 157.385C307.869 157.497 308.121 157.746 308.269 158.135C308.446 158.508 308.478 158.872 308.367 159.229C308.144 159.942 307.602 160.542 306.741 161.031C305.902 161.527 304.859 161.812 303.613 161.887C302.383 161.992 301.099 161.836 299.763 161.418C298.404 160.994 297.315 160.568 296.495 160.141C295.668 159.736 295.098 159.252 294.785 158.69C294.438 157.922 294.387 156.757 294.63 155.195C294.896 153.64 295.34 151.591 295.963 149.048C295.505 149.027 294.995 148.978 294.433 148.9C293.9 148.807 293.5 148.718 293.232 148.635C292.965 148.551 292.767 148.404 292.637 148.192C292.537 147.965 292.525 147.729 292.602 147.484C292.65 147.328 292.714 147.202 292.794 147.104C292.895 147.014 293.005 146.975 293.123 146.987C293.886 147.128 294.438 147.239 294.779 147.321L296.268 147.603C297.076 144.702 297.718 142.336 298.192 140.504C297.858 140.399 297.587 140.327 297.38 140.287L295.833 139.84C295.632 139.777 295.494 139.673 295.417 139.527C295.34 139.381 295.323 139.241 295.365 139.107C295.532 138.573 295.999 138.328 296.768 138.372C297.049 138.411 297.397 138.471 297.812 138.552C298.256 138.617 298.545 138.67 298.678 138.712C299.248 138.377 299.788 138.289 300.301 138.449C300.39 138.477 300.432 138.575 300.428 138.745C300.453 138.9 300.455 139.01 300.434 139.077C301.925 139.47 303.726 139.849 305.836 140.214C307.228 140.454 309.42 140.674 312.413 140.875L313.733 140.994C313.955 141.064 314.025 141.232 313.941 141.499C313.858 141.767 313.596 141.941 313.154 142.024Z" fill="white"/>
<defs>
<linearGradient id="paint0_linear_106_278" x1="32.9916" y1="54.6702" x2="440.419" y2="54.6702" gradientUnits="userSpaceOnUse">
<stop stop-color="#72159E"/>
<stop offset="1" stop-color="#080838"/>
</linearGradient>
</defs>
</svg>
