<svg width="422" height="228" viewBox="0 0 422 228" fill="none" xmlns="http://www.w3.org/2000/svg">
<rect x="32.9916" width="407.428" height="109.34" rx="50" transform="rotate(17.5617 32.9916 0)" fill="url(#paint0_linear_106_270)"/>
<path d="M151.207 64.7836C151.163 64.7699 151.021 64.6853 150.78 64.5298C150.559 64.3643 150.338 64.2473 150.119 64.1787C149.416 63.9593 148.607 63.7467 147.691 63.541C146.776 63.3354 146.005 63.2069 145.378 63.1558C145.203 63.8721 144.892 64.9958 144.446 66.5271C144.019 68.0483 143.545 69.6432 143.023 71.3117C142.804 72.0142 142.545 72.7927 142.246 73.6471C141.961 74.506 141.765 75.0311 141.657 75.2223C141.578 75.3741 141.434 75.4739 141.227 75.5215C141.034 75.5736 140.849 75.5723 140.674 75.5174C140.571 75.4854 140.497 75.4141 140.451 75.3034C140.406 75.1927 140.401 75.0789 140.438 74.9618L140.7 74.2002C141.144 73.0861 141.627 71.6947 142.148 70.0262C142.523 68.8261 142.935 67.453 143.386 65.9071C143.842 64.3465 144.112 63.3787 144.197 63.0037C141.169 62.4114 139.121 62.1011 138.054 62.0729C137.86 62.0766 137.653 62.0442 137.434 61.9756C137.17 61.8933 136.944 61.7182 136.754 61.4502C136.565 61.1822 136.505 60.9385 136.573 60.7189C136.619 60.5726 136.695 60.4838 136.801 60.4527C136.912 60.4069 137.033 60.4046 137.164 60.4458C138.012 60.6625 138.729 60.838 139.313 60.9724C140.652 61.2621 142.349 61.5912 144.402 61.9595C144.544 61.5058 144.652 61.1861 144.726 61.0004C144.815 60.8193 144.896 60.7401 144.969 60.763C145.247 60.8498 145.461 61.0373 145.612 61.3254C145.643 61.3831 145.643 61.5116 145.612 61.711C145.587 61.8958 145.565 62.0174 145.547 62.076C145.873 62.1619 146.423 62.2533 147.196 62.3501C148.854 62.5951 149.976 62.8089 150.562 62.9918C151.264 63.2112 151.705 63.4453 151.884 63.6941C152.009 63.8615 152.023 64.0988 151.927 64.4062C151.891 64.5233 151.8 64.6317 151.657 64.7314C151.518 64.8165 151.368 64.8339 151.207 64.7836ZM154.126 79.7434C153.336 79.4965 152.64 79.1024 152.038 78.5609C151.44 78.0049 151.023 77.3363 150.785 76.5552C150.547 75.774 150.57 74.9297 150.853 74.0223C151.338 72.4709 152.241 70.994 153.562 69.5915C154.888 68.1745 156.497 66.9581 158.389 65.9425C158.576 65.8565 158.743 65.8121 158.888 65.8094C159.034 65.8066 159.194 65.8326 159.37 65.8875C159.516 65.9332 159.644 66.0132 159.753 66.1276C159.876 66.2464 159.922 66.3571 159.89 66.4596C159.872 66.5181 159.815 66.5968 159.72 66.6956C159.644 66.7843 159.594 66.841 159.57 66.8657C159.658 66.8932 159.763 66.9179 159.884 66.9398C160.025 66.9517 160.279 67.0147 160.645 67.129C161.069 67.2616 161.617 67.5131 162.288 67.8834C162.979 68.2437 163.47 68.5496 163.761 68.8011C164.58 69.5227 165.133 70.2979 165.42 71.1265C165.712 71.9406 165.739 72.7282 165.501 73.4892C165.03 74.9967 164.156 76.3058 162.877 77.4165C161.598 78.5271 160.161 79.2989 158.564 79.7317C156.967 80.1646 155.487 80.1685 154.126 79.7434ZM163.127 69.5188C162.762 69.196 162.257 68.934 161.613 68.7328C161.409 68.6688 161.126 68.5966 160.765 68.5162L159.946 68.2844C159.244 68.065 158.938 67.8089 159.03 67.5162C159.062 67.4137 159.099 67.3209 159.141 67.2376C159.183 67.1544 159.216 67.1004 159.24 67.0757C158.932 66.9797 158.656 66.9898 158.411 67.106C156.822 67.9752 155.479 69.0095 154.382 70.2088C153.299 71.4128 152.549 72.6807 152.133 74.0125C151.745 75.2566 151.769 76.26 152.205 77.0228C152.661 77.7756 153.43 78.3211 154.513 78.6594C155.743 79.0434 157.052 79.067 158.443 78.7302C159.848 78.3979 161.094 77.7753 162.183 76.8622C163.286 75.9538 164.029 74.8848 164.413 73.6554C164.678 72.8065 164.696 72.0569 164.465 71.4066C164.239 70.7416 163.793 70.1124 163.127 69.5188ZM182.401 74.527C182.357 74.5133 182.215 74.4287 181.975 74.2732C181.753 74.1077 181.533 73.9906 181.313 73.922C180.611 73.7026 179.801 73.4901 178.886 73.2844C177.97 73.0787 177.199 72.9503 176.572 72.8992C176.397 73.6154 176.086 74.7392 175.64 76.2705C175.213 77.7917 174.739 79.3865 174.218 81.0551C173.998 81.7576 173.739 82.536 173.44 83.3904C173.156 84.2494 172.96 84.7744 172.852 84.9656C172.772 85.1175 172.629 85.2172 172.421 85.2648C172.228 85.317 172.044 85.3156 171.868 85.2608C171.766 85.2288 171.692 85.1574 171.646 85.0468C171.6 84.9361 171.595 84.8222 171.632 84.7051L171.894 83.9436C172.338 82.8294 172.821 81.4381 173.342 79.7696C173.717 78.5694 174.13 77.1964 174.581 75.6504C175.036 74.0899 175.306 73.1221 175.391 72.747C172.363 72.1547 170.316 71.8445 169.248 71.8163C169.054 71.82 168.848 71.7875 168.628 71.719C168.365 71.6367 168.138 71.4615 167.949 71.1936C167.759 70.9256 167.699 70.6818 167.768 70.4623C167.813 70.3159 167.889 70.2272 167.995 70.1961C168.106 70.1503 168.227 70.148 168.359 70.1891C169.207 70.4058 169.923 70.5813 170.508 70.7157C171.847 71.0055 173.543 71.3345 175.597 71.7029C175.738 71.2491 175.846 70.9294 175.92 70.7437C176.009 70.5626 176.09 70.4835 176.163 70.5063C176.441 70.5932 176.656 70.7807 176.807 71.0688C176.837 71.1264 176.837 71.2549 176.807 71.4543C176.781 71.6391 176.759 71.7608 176.741 71.8193C177.068 71.9053 177.617 71.9967 178.39 72.0935C180.049 72.3384 181.171 72.5523 181.756 72.7351C182.459 72.9546 182.9 73.1887 183.079 73.4375C183.203 73.6048 183.218 73.8422 183.122 74.1495C183.085 74.2666 182.995 74.375 182.851 74.4748C182.712 74.5599 182.562 74.5773 182.401 74.527ZM193.907 85.3734C193.777 85.4292 193.539 85.4434 193.194 85.416C192.854 85.374 192.623 85.342 192.502 85.3201C192.445 85.9128 192.419 86.2019 192.423 86.1872C192.412 86.5851 192.364 87.1244 192.28 87.8049C192.081 89.3655 191.959 90.7087 191.912 91.8347C191.881 92.1942 191.855 92.4032 191.837 92.4618C191.791 92.6081 191.694 92.7143 191.545 92.7801C191.396 92.846 191.241 92.8538 191.08 92.8035C190.933 92.7578 190.827 92.6362 190.76 92.4386C190.689 92.2557 190.649 92.0988 190.642 91.968C190.666 91.4292 190.715 90.8342 190.79 90.1829C190.879 89.5362 190.986 88.7582 191.109 87.849C191.17 87.4502 191.221 86.9521 191.263 86.3548C191.309 85.7429 191.338 85.3422 191.349 85.1529C190.449 85.0002 188.89 84.7704 186.673 84.4634L185.331 84.2852L184.465 85.4365L183.302 87.0008C182.292 88.4361 181.542 89.5513 181.052 90.3462C180.944 90.5374 180.804 90.6783 180.631 90.7689C180.454 90.8741 180.27 90.897 180.08 90.8376C179.919 90.7873 179.793 90.7 179.704 90.5756C179.629 90.4557 179.616 90.3153 179.667 90.1543C179.717 89.9933 179.912 89.6768 180.252 89.2048C180.588 88.7474 180.786 88.472 180.848 88.3787C180.952 88.2506 181.174 87.9506 181.514 87.4786C181.883 86.9672 182.339 86.3547 182.883 85.6412C183.447 84.9175 183.821 84.44 184.006 84.2086C183.204 84.1511 182.605 84.1164 182.207 84.1045C181.605 84.0772 181.238 84.0429 181.106 84.0018C180.945 83.9515 180.839 83.8541 180.788 83.7096C180.756 83.555 180.763 83.4045 180.809 83.2582C180.863 83.0825 180.944 82.9792 181.05 82.9481C181.161 82.9023 181.328 82.8822 181.551 82.8876C182.148 82.9296 182.775 82.9807 183.43 83.041C184.101 83.1059 184.56 83.1529 184.808 83.1821C185.087 82.8034 185.309 82.4791 185.473 82.2093C185.591 82.0373 185.738 81.826 185.912 81.5753C186.106 81.3146 186.328 80.9903 186.578 80.6024L187.257 79.5856C188.425 77.7981 189.097 76.779 189.272 76.5284C189.409 76.3463 189.525 76.2059 189.62 76.1071C189.73 76.0129 189.843 75.984 189.961 76.0206C190.253 76.112 190.503 76.2382 190.71 76.3992C190.748 76.3791 190.81 76.3342 190.896 76.2647C191.001 76.1851 191.095 76.1421 191.178 76.1357C191.279 76.1192 191.396 76.1315 191.527 76.1727C191.791 76.255 191.997 76.6487 192.146 77.3539C192.31 78.0637 192.425 78.8787 192.491 79.7989C192.531 80.3413 192.546 81.1412 192.537 82.1986C192.532 83.2414 192.526 83.9302 192.518 84.265C192.747 84.3043 192.941 84.3248 193.101 84.3266C193.28 84.3184 193.394 84.3138 193.443 84.3129C193.525 84.3064 193.621 84.2804 193.732 84.2346C193.843 84.1889 193.939 84.1628 194.022 84.1564C194.109 84.1353 194.189 84.1605 194.263 84.2318C194.426 84.379 194.464 84.5917 194.377 84.8698C194.345 84.9722 194.282 85.0729 194.186 85.1717C194.106 85.275 194.013 85.3423 193.907 85.3734ZM191.492 80.0652C191.457 79.4597 191.367 78.8212 191.223 78.1499C191.079 77.4785 190.921 77.0353 190.747 76.8204L190.327 77.3158C189.875 77.7851 189.505 78.2237 189.217 78.6317C188.537 79.5758 187.437 81.1438 185.917 83.3357L188.622 83.6989L190.833 84.0278L191.453 84.1252C191.462 83.8389 191.48 83.242 191.506 82.3346C191.537 81.4126 191.533 80.6561 191.492 80.0652ZM204.33 94.4362L200.465 93.5422L197.784 92.9458L196.388 92.6304C196.271 92.5938 196.184 92.4863 196.128 92.308C196.086 92.1342 196.085 91.9814 196.126 91.8497C196.158 91.7473 196.21 91.6832 196.283 91.6576C196.374 91.6219 196.459 91.6082 196.536 91.6164C196.633 91.6146 196.699 91.6109 196.733 91.6054C196.994 90.8196 197.578 88.9778 198.483 86.0798C199.15 83.943 199.579 82.2617 199.769 81.0359C199.978 79.8001 200.097 79.1383 200.124 79.0505C200.188 78.8456 200.311 78.7075 200.494 78.6361C200.692 78.5693 200.871 78.561 201.032 78.6113C201.135 78.6433 201.201 78.7124 201.233 78.8185C201.268 78.9099 201.273 79.0481 201.248 79.2328C201.239 79.7762 201.063 80.7252 200.72 82.0799C200.392 83.4393 200.001 84.8434 199.549 86.2924C199.165 87.5218 198.801 88.6611 198.457 89.7103C198.113 90.7595 197.884 91.4671 197.77 91.833C197.965 91.8778 198.338 91.9701 198.888 92.11C199.444 92.2352 200.013 92.365 200.598 92.4994C201.479 92.6621 202.485 92.8079 203.618 92.9367C204.532 93.0454 205.076 93.1272 205.252 93.182C205.413 93.2323 205.493 93.3375 205.491 93.4976C205.489 93.6577 205.456 93.8402 205.392 94.0451C205.333 94.2353 205.197 94.3616 204.985 94.4238C204.787 94.4906 204.569 94.4948 204.33 94.4362ZM217.135 100.291C216.184 99.994 215.455 99.678 214.949 99.3433C214.439 99.0232 214.227 98.7242 214.314 98.4461C214.359 98.2997 214.537 98.0902 214.847 97.8176C215.177 97.5349 215.4 97.4118 215.517 97.4484C215.693 97.5033 215.769 97.5673 215.746 97.6405C215.732 97.6844 215.687 97.7265 215.61 97.7667C215.548 97.8116 215.508 97.8632 215.49 97.9218C215.476 97.9657 215.543 98.059 215.691 98.2017C215.854 98.3489 216.114 98.5185 216.472 98.7106C216.83 98.9026 217.279 99.0832 217.821 99.2524C218.684 99.5221 219.491 99.5892 220.24 99.4537C221.004 99.3228 221.641 99.0561 222.152 98.6535C222.664 98.251 222.995 97.8082 223.146 97.3252C223.342 96.6959 223.204 96.0583 222.731 95.4126C222.273 94.7715 221.434 94.0357 220.216 93.2053C219.046 92.374 218.145 91.7073 217.515 91.2052C216.904 90.6931 216.443 90.1635 216.132 89.6166C215.825 89.055 215.766 88.4742 215.953 87.8741C216.205 87.0691 216.905 86.4205 218.055 85.9282C219.209 85.4213 220.528 85.1343 222.011 85.0673C223.498 84.9857 224.812 85.1232 225.954 85.4798C226.539 85.6626 226.817 85.878 226.788 86.1259C226.759 86.3738 226.699 86.6441 226.607 86.9368C226.539 87.1563 226.424 87.241 226.263 87.1907C226.19 87.1678 226.109 87.1185 226.02 87.0425C225.95 86.9566 225.884 86.8875 225.82 86.8354C225.741 86.7787 225.648 86.7174 225.54 86.6516C225.432 86.5857 225.268 86.5185 225.048 86.4499C224.287 86.2122 223.311 86.1241 222.119 86.1856C220.927 86.247 219.845 86.447 218.871 86.7856C217.913 87.1288 217.349 87.5711 217.18 88.1126C217.043 88.5517 217.1 88.9871 217.35 89.4188C217.616 89.8551 218.012 90.2841 218.539 90.7057C219.07 91.1126 219.832 91.6559 220.825 92.3353C222.288 93.3066 223.309 94.2037 223.888 95.0269C224.48 95.8546 224.644 96.6929 224.379 97.5418C224.151 98.2736 223.675 98.9204 222.954 99.4821C222.251 100.034 221.385 100.39 220.355 100.55C219.335 100.729 218.262 100.643 217.135 100.291ZM236.955 106.096C236.662 106.005 236.488 105.613 236.431 104.92C236.389 104.233 236.441 103.55 236.588 102.873C236.704 102.299 237.05 100.985 237.626 98.9326C237.862 98.0746 238.005 97.5408 238.054 97.3313C236.276 99.4748 234.446 101.272 232.563 102.724C230.694 104.181 229.189 104.731 228.047 104.374C227.477 104.196 227.086 103.697 226.877 102.876C226.682 102.06 226.655 101.04 226.797 99.815C226.943 98.5756 227.233 97.2606 227.668 95.8702C228.02 94.7432 228.483 93.4905 229.058 92.1119C229.638 90.7187 230.121 89.7372 230.508 89.1673C230.622 89.0099 230.745 88.896 230.88 88.8256C231.034 88.745 231.184 88.7276 231.33 88.7734C231.696 88.8876 231.835 89.0838 231.748 89.3619C231.735 89.4058 231.431 89.8893 230.838 90.8123C230.244 91.7353 229.515 93.58 228.651 96.3462C228.08 98.1757 227.777 99.7358 227.744 101.026C227.729 102.307 228.037 103.046 228.666 103.242C229.281 103.434 230.168 103.165 231.328 102.435C232.492 101.69 233.672 100.742 234.867 99.5888C236.077 98.4407 237.022 97.3946 237.703 96.4505C238.179 95.748 238.696 94.6324 239.254 93.1038C239.486 92.5175 239.62 92.2142 239.659 92.1941C239.822 92.0843 240.02 92.066 240.254 92.1391C240.518 92.2214 240.537 92.6211 240.313 93.3383C240.044 94.2018 239.554 95.8479 238.843 98.2766C238.148 100.71 237.736 102.26 237.608 102.927C237.497 103.486 237.467 103.943 237.517 104.296C237.582 104.654 237.671 104.962 237.782 105.222C237.894 105.482 237.941 105.641 237.922 105.7C237.868 105.875 237.749 105.999 237.566 106.07C237.378 106.156 237.175 106.165 236.955 106.096ZM247.89 101.825C247.372 101.888 246.852 101.935 246.328 101.964C245.805 101.993 245.464 102.007 245.304 102.005C244.819 103.814 244.38 105.347 243.987 106.606C243.859 107.016 243.798 107.366 243.803 107.657C243.828 107.938 243.829 108.115 243.806 108.188C243.756 108.349 243.634 108.455 243.441 108.508C243.244 108.574 243.057 108.58 242.881 108.526C242.662 108.457 242.571 108.26 242.608 107.934C242.617 107.905 242.637 107.766 242.666 107.519C242.71 107.275 242.798 106.941 242.931 106.517C243.287 105.375 243.828 103.488 244.554 100.855C244.922 99.5245 245.192 98.581 245.366 98.0248C245.512 97.5565 245.655 97.127 245.793 96.7364C245.935 96.3311 246.029 96.0553 246.075 95.909C245.075 95.8698 244.198 95.8768 243.442 95.9299C243.191 95.9638 242.831 96.0361 242.362 96.1469C242.155 96.1945 241.949 96.2348 241.746 96.2677C241.558 96.3052 241.42 96.3103 241.332 96.2829C241.215 96.2463 241.128 96.1631 241.073 96.0332C241.017 95.9033 241.012 95.7652 241.057 95.6188C241.117 95.4286 241.468 95.2812 242.111 95.1769C242.759 95.0579 243.519 94.9901 244.392 94.9735C245.279 94.9615 246.08 94.9947 246.794 95.0733C247.63 95.1738 248.531 95.3749 249.497 95.6766C250.829 96.0926 251.821 96.5951 252.472 97.1841C253.128 97.7584 253.348 98.3895 253.134 99.0774C252.864 99.941 252.279 100.578 251.38 100.988C250.486 101.383 249.322 101.662 247.89 101.825ZM249.223 96.5548C248.55 96.3445 247.848 96.1735 247.118 96.0419C247.067 96.1544 246.96 96.4183 246.798 96.8337C246.651 97.2535 246.518 97.6537 246.399 98.0343L245.921 99.6438C245.826 99.9996 245.693 100.448 245.524 100.99C245.841 101.057 246.561 101.04 247.684 100.941C248.782 100.819 249.741 100.604 250.56 100.298C251.383 99.9764 251.886 99.5231 252.069 98.9376C252.224 98.44 252.019 97.9905 251.454 97.589C250.889 97.1875 250.145 96.8428 249.223 96.5548ZM260.089 105.635C259.571 105.699 259.051 105.745 258.528 105.774C258.004 105.804 257.663 105.817 257.503 105.815C257.018 107.624 256.579 109.157 256.186 110.416C256.058 110.826 255.997 111.176 256.002 111.467C256.027 111.748 256.028 111.925 256.005 111.998C255.955 112.159 255.833 112.266 255.64 112.318C255.443 112.385 255.256 112.391 255.08 112.336C254.861 112.267 254.77 112.07 254.807 111.745C254.817 111.715 254.836 111.577 254.865 111.329C254.909 111.085 254.997 110.752 255.13 110.327C255.486 109.186 256.027 107.298 256.753 104.666C257.121 103.335 257.391 102.391 257.565 101.835C257.711 101.367 257.854 100.937 257.992 100.547C258.134 100.141 258.229 99.8656 258.274 99.7193C257.274 99.6801 256.397 99.6871 255.641 99.7402C255.39 99.7741 255.03 99.8464 254.561 99.9572C254.354 100.005 254.148 100.045 253.945 100.078C253.757 100.116 253.619 100.121 253.531 100.093C253.414 100.057 253.328 99.9734 253.272 99.8435C253.216 99.7136 253.211 99.5755 253.257 99.4291C253.316 99.2388 253.667 99.0915 254.31 98.9872C254.958 98.8682 255.718 98.8004 256.591 98.7838C257.478 98.7717 258.279 98.805 258.993 98.8836C259.829 98.9841 260.73 99.1852 261.696 99.4869C263.028 99.9029 264.02 100.405 264.671 100.994C265.327 101.569 265.547 102.2 265.333 102.888C265.063 103.751 264.478 104.388 263.579 104.798C262.685 105.193 261.521 105.472 260.089 105.635ZM261.422 100.365C260.749 100.155 260.047 99.9838 259.317 99.8522C259.266 99.9647 259.159 100.229 258.997 100.644C258.85 101.064 258.717 101.464 258.598 101.845L258.12 103.454C258.025 103.81 257.893 104.259 257.723 104.8C258.04 104.867 258.76 104.851 259.883 104.752C260.982 104.629 261.94 104.414 262.759 104.108C263.582 103.787 264.085 103.333 264.268 102.748C264.423 102.25 264.218 101.801 263.653 101.399C263.088 100.998 262.344 100.653 261.422 100.365ZM273.966 116.186L270.1 115.292L267.419 114.696L266.024 114.38C265.907 114.344 265.82 114.236 265.763 114.058C265.721 113.884 265.721 113.732 265.762 113.6C265.794 113.497 265.846 113.433 265.918 113.408C266.01 113.372 266.094 113.358 266.172 113.367C266.269 113.365 266.334 113.361 266.368 113.356C266.63 112.57 267.213 110.728 268.118 107.83C268.786 105.693 269.214 104.012 269.404 102.786C269.614 101.55 269.732 100.888 269.759 100.801C269.823 100.596 269.947 100.458 270.13 100.386C270.327 100.319 270.507 100.311 270.668 100.361C270.77 100.393 270.837 100.462 270.868 100.569C270.904 100.66 270.909 100.798 270.883 100.983C270.874 101.526 270.698 102.475 270.355 103.83C270.027 105.189 269.637 106.593 269.184 108.042C268.8 109.272 268.436 110.411 268.093 111.46C267.749 112.51 267.52 113.217 267.405 113.583C267.6 113.628 267.973 113.72 268.524 113.86C269.079 113.985 269.649 114.115 270.233 114.25C271.114 114.412 272.121 114.558 273.253 114.687C274.167 114.796 274.712 114.877 274.887 114.932C275.048 114.982 275.128 115.088 275.126 115.248C275.124 115.408 275.092 115.59 275.028 115.795C274.968 115.985 274.832 116.112 274.62 116.174C274.423 116.241 274.204 116.245 273.966 116.186ZM288.483 108.528C288.203 108.858 287.826 109.343 287.354 109.983C286.12 111.67 284.978 113.602 283.928 115.78C283.766 116.147 283.594 116.543 283.413 116.968C283.232 117.394 283.093 117.76 282.997 118.068C282.942 118.243 282.941 118.427 282.993 118.62C283.06 118.818 283.086 118.939 283.073 118.983C283.045 119.07 282.9 119.202 282.636 119.377C282.378 119.537 282.101 119.675 281.808 119.792C281.514 119.909 281.294 119.945 281.148 119.899C280.855 119.808 280.748 119.638 280.825 119.389C280.926 119.067 281.452 118.027 282.403 116.267C283.358 114.494 284.118 113.141 284.682 112.209C284.208 112.494 283.797 112.703 283.45 112.836C283.104 112.968 282.726 112.971 282.316 112.843C281.73 112.66 281.282 112.014 280.969 110.904C280.662 109.78 280.412 108.473 280.218 106.983L280.136 106.475C280.064 105.987 279.973 105.557 279.864 105.186C279.755 104.814 279.708 104.607 279.721 104.563C279.744 104.49 279.811 104.454 279.923 104.457C280.054 104.45 280.185 104.467 280.317 104.508C280.8 104.659 281.088 105.255 281.18 106.295C281.314 107.719 281.493 108.971 281.717 110.053C281.961 111.125 282.36 111.748 282.917 111.922C283.282 112.036 283.643 112.012 283.999 111.851C284.355 111.689 284.673 111.467 284.954 111.185C285.211 110.928 285.538 110.548 285.936 110.046C286.349 109.548 286.671 109.135 286.902 108.806C287.809 107.547 288.319 106.814 288.431 106.609C288.601 106.324 288.733 106.132 288.828 106.034C288.928 105.92 289.043 105.884 289.175 105.925C289.336 105.975 289.471 106.082 289.581 106.245C289.696 106.393 289.73 106.54 289.684 106.687C289.606 106.935 289.48 107.185 289.306 107.436C289.131 107.686 288.857 108.051 288.483 108.528Z" fill="white"/>
<path d="M110.411 102.459C110.394 102.747 110.364 103.08 110.319 103.457C110.29 103.863 110.262 104.111 110.234 104.2C110.157 104.445 109.943 104.623 109.591 104.733C109.254 104.872 108.918 104.889 108.584 104.785C108.384 104.722 108.246 104.459 108.171 103.996C108.089 103.555 108.097 103.019 108.196 102.39C108.525 99.9264 109.299 96.1959 110.518 91.1986L112.273 83.9365C109.993 85.1312 107.741 86.0411 105.517 86.6664C104.929 86.8252 104.535 86.8733 104.335 86.8107C104.112 86.7411 103.955 86.6186 103.863 86.4433C103.778 86.2456 103.757 86.08 103.798 85.9463C103.889 85.6568 104.242 85.425 104.859 85.2509C106.224 84.8707 107.481 84.4077 108.629 83.8619C109.8 83.3231 110.988 82.7285 112.193 82.0783L112.807 81.7567L112.817 81.7233L112.974 81.2221L113.078 80.8881C113.127 80.7322 113.192 80.6424 113.273 80.6187C113.331 80.5881 113.382 80.5797 113.427 80.5936C113.582 80.5685 113.748 80.5838 113.926 80.6395C114.371 80.7786 114.707 80.9567 114.932 81.1738C115.158 81.391 115.229 81.6331 115.146 81.9004C115.062 82.1677 114.831 82.4377 114.452 82.7106C114.397 83.2799 114.297 83.8353 114.152 84.3768C113.786 85.7048 113.16 88.296 112.274 92.1504C111.395 95.9826 110.849 98.5133 110.636 99.7424C110.567 100.356 110.492 101.262 110.411 102.459ZM120.607 107.55C119.003 107.049 117.955 106.062 117.462 104.588C116.969 103.114 117.022 101.419 117.62 99.5037C118.336 97.2096 119.338 94.9803 120.626 92.8156C121.942 90.6356 123.375 88.7486 124.924 87.1546C124.746 87.099 124.599 86.98 124.485 86.7977C124.371 86.6153 124.345 86.4239 124.408 86.2235C124.498 85.9339 124.749 85.7189 125.16 85.5782C125.592 85.4445 126.06 85.395 126.563 85.4298C126.621 85.3991 126.727 85.3344 126.88 85.2355C127.04 85.1144 127.22 85.0852 127.421 85.1478C127.643 85.2173 127.841 85.328 128.014 85.4797C128.193 85.6091 128.291 85.7253 128.308 85.8283C128.967 85.9117 129.619 86.0543 130.265 86.256C131.779 86.7291 133.009 87.5655 133.954 88.7652C134.9 89.9649 135.488 91.4076 135.719 93.0932C135.957 94.7566 135.795 96.4903 135.231 98.2943C134.619 100.254 133.495 102.054 131.858 103.694C130.244 105.341 128.406 106.527 126.346 107.253C124.302 108.008 122.389 108.107 120.607 107.55ZM129.762 88.3357C129.249 88.1757 128.549 88.0303 127.661 87.8996L126.928 87.7807C125.333 89.287 123.86 91.1859 122.509 93.4772C121.18 95.7755 120.189 97.9714 119.535 100.065C119.096 101.468 119.002 102.71 119.251 103.79C119.53 104.855 120.259 105.571 121.44 105.94C122.798 106.365 124.345 106.224 126.081 105.52C127.824 104.793 129.405 103.722 130.824 102.308C132.244 100.894 133.194 99.4179 133.674 97.8811C134.098 96.5225 134.19 95.1702 133.951 93.8242C133.74 92.463 133.25 91.2952 132.478 90.3209C131.736 89.3314 130.831 88.6696 129.762 88.3357ZM171.338 98.865C171.271 98.8441 171.055 98.7154 170.689 98.4788C170.352 98.2269 170.016 98.0488 169.682 97.9445C168.613 97.6106 167.382 97.2871 165.988 96.9741C164.595 96.6611 163.422 96.4657 162.468 96.3879C162.201 97.4779 161.728 99.1879 161.049 101.518C160.399 103.833 159.678 106.26 158.885 108.799C158.551 109.868 158.157 111.053 157.702 112.353C157.269 113.66 156.97 114.459 156.806 114.75C156.685 114.981 156.467 115.133 156.151 115.205C155.857 115.285 155.576 115.283 155.309 115.199C155.153 115.15 155.041 115.042 154.971 114.873C154.901 114.705 154.894 114.532 154.95 114.354L155.349 113.195C156.025 111.499 156.759 109.382 157.553 106.843C158.123 105.017 158.751 102.927 159.437 100.575C160.13 98.1999 160.541 96.7271 160.67 96.1564C156.063 95.2551 152.947 94.783 151.323 94.7401C151.027 94.7457 150.713 94.6963 150.379 94.5919C149.978 94.4667 149.633 94.2002 149.345 93.7924C149.057 93.3846 148.965 93.0137 149.069 92.6796C149.139 92.4569 149.254 92.3218 149.416 92.2745C149.584 92.2049 149.769 92.2014 149.969 92.264C151.26 92.5937 152.35 92.8608 153.239 93.0653C155.277 93.5062 157.858 94.0069 160.983 94.5675C161.199 93.877 161.363 93.3905 161.476 93.1079C161.611 92.8323 161.734 92.7119 161.845 92.7467C162.269 92.8788 162.595 93.1641 162.825 93.6026C162.871 93.6903 162.871 93.8858 162.825 94.1893C162.786 94.4705 162.753 94.6556 162.725 94.7447C163.222 94.8755 164.058 95.0145 165.234 95.1619C167.758 95.5346 169.465 95.8601 170.356 96.1383C171.425 96.4722 172.096 96.8285 172.369 97.207C172.559 97.4618 172.58 97.823 172.434 98.2907C172.378 98.4689 172.241 98.6338 172.023 98.7856C171.811 98.9151 171.583 98.9415 171.338 98.865ZM187.167 124.269C186.944 124.2 186.743 124.1 186.563 123.971C186.39 123.819 186.138 123.569 185.807 123.221C184.661 121.959 183.074 120.583 181.046 119.094C180.148 118.447 179.064 117.73 177.795 116.942C176.555 116.139 175.572 115.527 174.849 115.105L173.736 119.488C173.571 120.096 173.492 120.622 173.501 121.064C173.502 121.529 173.485 121.817 173.451 121.929C173.374 122.174 173.189 122.336 172.895 122.415C172.595 122.517 172.311 122.526 172.043 122.443C171.709 122.338 171.571 122.038 171.628 121.543C171.642 121.498 171.671 121.287 171.715 120.91C171.782 120.54 171.916 120.032 172.118 119.386C172.25 118.963 172.488 118.047 172.83 116.638C172.954 116.163 173.07 115.711 173.18 115.281C173.297 114.828 173.408 114.435 173.512 114.101C173.466 114.013 173.401 113.908 173.318 113.784C173.257 113.667 173.217 113.52 173.199 113.343C173.195 113.122 173.205 112.893 173.23 112.656C173.255 112.42 173.285 112.246 173.32 112.134C173.368 111.978 173.451 111.87 173.568 111.809C173.685 111.747 173.85 111.689 174.063 111.633C175.668 106.023 176.596 102.818 176.847 102.016C177.069 101.303 177.286 100.649 177.496 100.055C177.706 99.4607 177.842 99.0632 177.905 98.8628C177.764 98.8433 177.346 98.7738 176.65 98.6542C175.954 98.5346 175.392 98.4567 174.963 98.4206C173.433 98.3094 172.252 98.295 171.42 98.3772C170.572 98.4303 169.744 98.5383 168.935 98.7012C168.693 98.7722 168.469 98.8245 168.263 98.8579C168.042 98.8621 167.842 98.8364 167.664 98.7807C167.486 98.7251 167.354 98.5984 167.269 98.4008C167.191 98.1809 167.19 97.9484 167.267 97.7034C167.399 97.2803 168.265 97.0129 169.864 96.9013C171.463 96.7897 173.154 96.8166 174.936 96.982C175.934 97.0737 177.177 97.2789 178.667 97.5974C180.163 97.8937 181.535 98.2366 182.782 98.6262C184.92 99.294 186.663 100.095 188.009 101.029C189.377 101.969 190.308 102.981 190.801 104.064C191.316 105.154 191.403 106.244 191.062 107.336C190.624 108.739 189.847 109.816 188.733 110.568C187.618 111.32 186.277 111.855 184.711 112.172C183.168 112.497 181.114 112.772 178.55 112.998C177.888 113.084 177.232 113.148 176.583 113.19C175.957 113.239 175.53 113.277 175.301 113.303C175.26 113.437 175.239 113.541 175.241 113.614C177.479 114.9 179.66 116.254 181.783 117.674L182.422 118.094C184.62 119.587 186.232 120.726 187.258 121.511C188.291 122.274 188.766 122.789 188.682 123.056C188.599 123.323 188.386 123.612 188.045 123.921C187.704 124.23 187.412 124.346 187.167 124.269ZM182.066 99.9792C180.686 99.5479 179.81 99.2989 179.44 99.2321C179.369 99.3811 179.221 99.7381 178.995 100.303C178.792 100.875 178.6 101.451 178.419 102.03L176.883 107.417L175.723 111.602C175.93 111.642 176.351 111.663 176.986 111.666C177.65 111.653 178.21 111.621 178.667 111.568C181.85 111.315 184.31 110.837 186.045 110.132C187.81 109.412 188.926 108.306 189.392 106.814C189.621 106.079 189.511 105.299 189.06 104.474C188.608 103.648 187.785 102.841 186.589 102.052C185.423 101.248 183.915 100.557 182.066 99.9792ZM211.869 111.158C210.9 111.051 209.686 110.867 208.228 110.607C206.776 110.325 205.609 110.07 204.726 109.844C204.36 110.78 203.408 113.514 201.871 118.045C200.333 122.576 199.213 125.93 198.509 128.105C199.718 128.459 201.324 128.875 203.326 129.353C205.002 129.779 205.94 130.023 206.14 130.086C206.541 130.211 206.87 130.411 207.126 130.687C207.404 130.969 207.484 131.3 207.366 131.679C207.269 131.99 207.144 132.196 206.99 132.295C206.86 132.4 206.627 132.401 206.293 132.297C206.159 132.255 205.802 132.107 205.222 131.852C204.804 131.624 204.44 131.461 204.128 131.364C203.081 131.037 200.966 130.45 197.784 129.603C197.624 129.724 197.456 129.793 197.279 129.811C197.118 129.859 196.981 129.865 196.87 129.83C196.736 129.789 196.613 129.713 196.5 129.605C196.388 129.496 196.341 129.372 196.36 129.231L194.805 128.929C192.998 128.609 191.671 128.317 190.825 128.052C190.09 127.823 189.582 127.493 189.301 127.063C189.156 126.822 189.157 126.468 189.303 126C189.344 125.866 189.463 125.72 189.66 125.561C189.878 125.41 190.065 125.358 190.221 125.407C190.266 125.421 190.412 125.54 190.66 125.764C190.937 125.973 191.209 126.119 191.476 126.202C192.3 126.46 193.528 126.794 195.16 127.206L196.728 127.586L198.462 122.737C198.644 122.232 198.809 121.782 198.957 121.388C199.111 120.972 199.233 120.619 199.324 120.33L203.07 109.51C200.705 108.942 199.578 108.676 199.69 108.711C197.362 108.179 195.998 107.851 195.597 107.726C195.219 107.607 194.901 107.374 194.643 107.024C194.385 106.675 194.316 106.311 194.434 105.932C194.518 105.665 194.65 105.474 194.833 105.36C195.037 105.253 195.262 105.238 195.507 105.314C195.685 105.37 195.86 105.436 196.031 105.514C196.202 105.592 196.374 105.67 196.545 105.748C197.067 106.033 197.584 106.256 198.096 106.416C198.586 106.569 199.532 106.828 200.934 107.192C202.343 107.535 203.284 107.768 203.759 107.891C203.872 107.609 204.045 107.406 204.279 107.284C204.52 107.139 204.785 107.112 205.074 107.202C205.208 107.244 205.291 107.368 205.325 107.574C205.358 107.78 205.34 107.994 205.271 108.217C206.576 108.576 208.994 109.013 212.524 109.529C212.806 109.568 213.133 109.536 213.508 109.433C213.904 109.337 214.125 109.296 214.17 109.31C214.392 109.379 214.576 109.534 214.721 109.775C214.866 110.016 214.896 110.27 214.813 110.537C214.681 110.961 214.375 111.195 213.896 111.241C213.418 111.287 212.742 111.259 211.869 111.158ZM226.959 136.112L221.077 134.751L216.997 133.843L214.873 133.363C214.695 133.308 214.563 133.144 214.476 132.873C214.412 132.608 214.412 132.376 214.474 132.175C214.523 132.02 214.602 131.922 214.712 131.883C214.851 131.829 214.98 131.808 215.099 131.82C215.246 131.818 215.346 131.812 215.397 131.804C215.795 130.608 216.683 127.805 218.06 123.395C219.076 120.143 219.728 117.585 220.017 115.72C220.336 113.839 220.516 112.832 220.558 112.698C220.655 112.387 220.843 112.176 221.121 112.068C221.422 111.966 221.695 111.954 221.94 112.03C222.096 112.079 222.197 112.184 222.245 112.345C222.299 112.485 222.307 112.695 222.268 112.976C222.254 113.803 221.986 115.247 221.465 117.308C220.965 119.377 220.371 121.514 219.682 123.719C219.098 125.589 218.544 127.323 218.021 128.92C217.498 130.517 217.15 131.593 216.976 132.15C217.272 132.218 217.839 132.359 218.677 132.572C219.522 132.762 220.39 132.96 221.279 133.164C222.619 133.412 224.151 133.634 225.875 133.83C227.265 133.995 228.094 134.119 228.361 134.203C228.606 134.279 228.728 134.44 228.725 134.683C228.722 134.927 228.672 135.204 228.575 135.516C228.484 135.806 228.277 135.998 227.955 136.093C227.654 136.194 227.322 136.201 226.959 136.112ZM246.175 142.114L240.293 140.753L236.213 139.845L234.09 139.366C233.911 139.31 233.779 139.146 233.693 138.875C233.629 138.61 233.628 138.378 233.691 138.178C233.739 138.022 233.819 137.924 233.929 137.885C234.068 137.831 234.197 137.81 234.315 137.822C234.462 137.82 234.562 137.814 234.613 137.806C235.011 136.61 235.899 133.807 237.276 129.397C238.292 126.146 238.945 123.587 239.234 121.722C239.552 119.841 239.732 118.834 239.774 118.7C239.872 118.389 240.059 118.178 240.338 118.07C240.638 117.968 240.911 117.956 241.156 118.032C241.312 118.081 241.414 118.186 241.461 118.347C241.515 118.487 241.523 118.697 241.484 118.978C241.47 119.805 241.203 121.249 240.681 123.311C240.182 125.379 239.587 127.516 238.899 129.721C238.314 131.592 237.761 133.325 237.238 134.922C236.714 136.519 236.366 137.595 236.192 138.152C236.488 138.22 237.056 138.361 237.894 138.574C238.739 138.764 239.606 138.962 240.495 139.166C241.836 139.414 243.368 139.636 245.091 139.832C246.481 139.997 247.31 140.122 247.578 140.205C247.823 140.282 247.944 140.442 247.941 140.685C247.938 140.929 247.888 141.206 247.791 141.518C247.7 141.808 247.494 142 247.171 142.095C246.87 142.196 246.538 142.203 246.175 142.114ZM272.454 130.081C271.485 129.974 270.271 129.791 268.813 129.531C267.361 129.248 266.194 128.994 265.311 128.767C264.945 129.704 263.993 132.438 262.456 136.969C260.919 141.5 259.798 144.853 259.094 147.029C260.303 147.382 261.909 147.798 263.911 148.277C265.587 148.702 266.525 148.946 266.725 149.009C267.126 149.134 267.455 149.335 267.711 149.61C267.989 149.893 268.07 150.223 267.951 150.602C267.854 150.914 267.729 151.119 267.576 151.218C267.445 151.324 267.212 151.325 266.878 151.22C266.745 151.178 266.388 151.03 265.807 150.776C265.389 150.547 265.025 150.385 264.713 150.287C263.666 149.96 261.552 149.373 258.37 148.526C258.209 148.647 258.041 148.717 257.864 148.735C257.703 148.782 257.566 148.788 257.455 148.754C257.321 148.712 257.198 148.637 257.085 148.528C256.973 148.42 256.926 148.295 256.946 148.154L255.39 147.852C253.583 147.532 252.257 147.24 251.41 146.976C250.675 146.746 250.167 146.416 249.886 145.986C249.741 145.745 249.742 145.391 249.888 144.923C249.93 144.79 250.049 144.644 250.245 144.485C250.463 144.333 250.651 144.282 250.806 144.33C250.851 144.344 250.997 144.463 251.245 144.687C251.522 144.896 251.794 145.042 252.061 145.126C252.885 145.383 254.113 145.718 255.745 146.129L257.313 146.509L259.047 141.661C259.229 141.155 259.394 140.706 259.542 140.312C259.696 139.896 259.819 139.543 259.909 139.253L263.655 128.433C261.29 127.865 260.164 127.599 260.275 127.634C257.947 127.102 256.583 126.774 256.182 126.649C255.804 126.531 255.486 126.297 255.228 125.948C254.971 125.598 254.901 125.234 255.019 124.856C255.103 124.588 255.236 124.398 255.418 124.283C255.623 124.176 255.847 124.161 256.092 124.237C256.27 124.293 256.445 124.36 256.616 124.438C256.788 124.516 256.959 124.594 257.13 124.672C257.652 124.957 258.169 125.179 258.681 125.339C259.171 125.492 260.117 125.751 261.519 126.116C262.928 126.458 263.869 126.691 264.344 126.815C264.457 126.532 264.63 126.33 264.864 126.207C265.105 126.062 265.37 126.035 265.659 126.126C265.793 126.167 265.877 126.291 265.91 126.497C265.943 126.703 265.925 126.918 265.856 127.14C267.162 127.499 269.579 127.937 273.109 128.453C273.391 128.491 273.718 128.459 274.093 128.356C274.49 128.26 274.71 128.219 274.755 128.233C274.977 128.303 275.161 128.458 275.306 128.699C275.451 128.939 275.481 129.193 275.398 129.461C275.266 129.884 274.96 130.118 274.482 130.164C274.003 130.21 273.327 130.183 272.454 130.081ZM279.399 153.994C278.196 153.618 277.137 153.019 276.221 152.195C275.311 151.349 274.676 150.331 274.314 149.143C273.952 147.954 273.986 146.669 274.418 145.288C275.155 142.927 276.529 140.68 278.54 138.546C280.558 136.389 283.007 134.538 285.885 132.993C286.17 132.862 286.424 132.794 286.645 132.79C286.866 132.786 287.11 132.826 287.378 132.909C287.6 132.979 287.795 133.1 287.96 133.274C288.148 133.455 288.218 133.624 288.169 133.78C288.141 133.869 288.055 133.988 287.91 134.139C287.795 134.274 287.719 134.36 287.683 134.398C287.816 134.439 287.976 134.477 288.161 134.51C288.375 134.529 288.761 134.624 289.318 134.798C289.964 135 290.797 135.383 291.819 135.946C292.87 136.495 293.617 136.96 294.06 137.343C295.306 138.441 296.147 139.621 296.585 140.882C297.029 142.12 297.07 143.319 296.708 144.477C295.992 146.771 294.661 148.763 292.715 150.453C290.769 152.143 288.581 153.318 286.151 153.976C283.721 154.635 281.47 154.641 279.399 153.994ZM293.095 138.435C292.54 137.944 291.772 137.545 290.792 137.239C290.48 137.142 290.05 137.032 289.502 136.909L288.255 136.557C287.186 136.223 286.721 135.833 286.86 135.388C286.909 135.232 286.965 135.09 287.029 134.964C287.093 134.837 287.143 134.755 287.18 134.717C286.712 134.571 286.292 134.587 285.919 134.763C283.501 136.086 281.457 137.66 279.787 139.485C278.139 141.317 276.999 143.247 276.366 145.273C275.774 147.166 275.811 148.693 276.475 149.854C277.168 151 278.339 151.83 279.987 152.345C281.858 152.929 283.851 152.965 285.967 152.452C288.105 151.947 290.002 150.999 291.658 149.61C293.337 148.227 294.468 146.601 295.053 144.73C295.456 143.438 295.482 142.297 295.131 141.308C294.787 140.296 294.109 139.338 293.095 138.435ZM312.417 164.6C312.261 164.552 311.586 163.033 310.393 160.045C309.229 157.041 308.287 154.498 307.569 152.416C307.467 152.115 307.153 151.125 306.627 149.445C305.864 146.958 305.381 145.45 305.179 144.923L304.309 147.474L303.493 149.97C302.999 151.551 302.441 153.259 301.819 155.094C301.219 156.935 300.727 158.395 300.342 159.472C300.236 159.732 300.037 159.939 299.744 160.092C299.474 160.252 299.228 160.298 299.005 160.228C298.76 160.152 298.603 160.029 298.533 159.861C298.493 159.677 298.539 159.374 298.671 158.95C298.755 158.683 299.057 157.873 299.577 156.52C300.577 154.021 301.349 151.903 301.892 150.166C302.323 148.785 302.752 147.489 303.179 146.278C303.613 145.045 303.876 144.283 303.966 143.994L304.302 143.035L304.333 142.935C304.41 142.69 304.502 142.511 304.611 142.399C304.749 142.27 304.94 142.245 305.185 142.321L305.352 142.373C305.597 142.45 305.937 143.045 306.371 144.158C306.835 145.257 307.387 146.737 308.028 148.599C308.175 148.988 308.312 149.372 308.437 149.754C308.569 150.113 308.694 150.457 308.811 150.787C309.573 152.81 309.973 153.876 310.012 153.986C311.916 159.005 312.925 161.838 313.041 162.485C313.052 162.293 313.103 161.857 313.193 161.176C313.283 160.495 313.436 159.614 313.652 158.533C313.89 157.458 314.183 156.364 314.53 155.25C315.15 153.268 315.778 150.592 316.415 147.222C316.637 146.118 316.787 145.444 316.863 145.199C317.128 144.352 317.739 144.079 318.696 144.378C318.919 144.448 319.013 144.734 318.978 145.236C318.951 145.716 318.729 146.698 318.315 148.182C317.9 149.666 317.189 152.023 316.18 155.252C315.86 156.277 315.58 157.289 315.341 158.29C315.124 159.298 314.931 160.191 314.761 160.969C314.545 162.051 314.354 162.859 314.187 163.393L313.845 164.606C313.761 164.874 313.285 164.872 312.417 164.6Z" fill="white"/>
<defs>
<linearGradient id="paint0_linear_106_270" x1="32.9916" y1="54.6702" x2="440.419" y2="54.6702" gradientUnits="userSpaceOnUse">
<stop stop-color="#72159E"/>
<stop offset="1" stop-color="#080838"/>
</linearGradient>
</defs>
</svg>
